G75*
%MOIN*%
%OFA0B0*%
%FSLAX25Y25*%
%IPPOS*%
%LPD*%
%AMOC8*
5,1,8,0,0,1.08239X$1,22.5*
%
%ADD10OC8,0.05906*%
%ADD11C,0.01600*%
%ADD12C,0.03200*%
%ADD13C,0.01200*%
D10*
X0108334Y0096147D03*
X0118334Y0096147D03*
X0118334Y0106147D03*
X0108334Y0106147D03*
X0128334Y0106147D03*
X0138334Y0106147D03*
X0148334Y0106147D03*
X0158334Y0106147D03*
X0168334Y0106147D03*
X0178334Y0106147D03*
X0188334Y0106147D03*
X0198334Y0106147D03*
X0208334Y0106147D03*
X0218334Y0106147D03*
X0228334Y0106147D03*
X0238334Y0106147D03*
X0248334Y0106147D03*
X0258334Y0106147D03*
X0268334Y0106147D03*
X0268334Y0096147D03*
X0258334Y0096147D03*
X0248334Y0096147D03*
X0238334Y0096147D03*
X0228334Y0096147D03*
X0218334Y0096147D03*
X0208334Y0096147D03*
X0198334Y0096147D03*
X0188334Y0096147D03*
X0178334Y0096147D03*
X0168334Y0096147D03*
X0158334Y0096147D03*
X0148334Y0096147D03*
X0138334Y0096147D03*
X0128334Y0096147D03*
D11*
X0138334Y0092947D02*
X0140834Y0090447D01*
X0156334Y0090447D01*
X0158334Y0092447D01*
X0158334Y0096147D01*
X0158334Y0092947D01*
X0160834Y0090447D01*
X0176334Y0090447D01*
X0178334Y0092447D01*
X0178334Y0096147D01*
X0178334Y0092947D01*
X0180834Y0090447D01*
X0196334Y0090447D01*
X0198334Y0092447D01*
X0198334Y0096147D01*
X0198334Y0092947D01*
X0200834Y0090447D01*
X0216334Y0090447D01*
X0218334Y0092447D01*
X0218334Y0096147D01*
X0218334Y0092947D01*
X0220834Y0090447D01*
X0236834Y0090447D01*
X0238334Y0091947D01*
X0238334Y0096147D01*
X0238334Y0092447D01*
X0240334Y0090447D01*
X0246834Y0090447D01*
X0248334Y0091947D01*
X0248334Y0096147D01*
X0147894Y0114507D02*
X0145834Y0112447D01*
X0136334Y0112447D01*
X0133334Y0109447D01*
X0133334Y0103447D01*
X0131084Y0101197D01*
X0113534Y0101197D01*
X0108334Y0106147D01*
X0128334Y0096147D02*
X0138334Y0096147D01*
X0138334Y0092947D01*
X0147894Y0114507D02*
X0147894Y0154357D01*
X0151894Y0158357D01*
X0185201Y0158357D01*
X0188547Y0155010D01*
X0188547Y0146510D01*
X0188394Y0146357D01*
D12*
X0188394Y0146357D03*
X0165894Y0145357D03*
X0160894Y0145357D03*
X0140334Y0132947D03*
D13*
X0140334Y0123197D01*
X0128334Y0111197D01*
X0128334Y0106147D01*
X0165894Y0117357D02*
X0170894Y0112357D01*
X0185894Y0112357D01*
X0188394Y0109857D01*
X0188394Y0106207D01*
X0188334Y0106147D01*
X0198334Y0106147D02*
X0188194Y0116287D01*
X0188194Y0116357D01*
X0175894Y0116357D01*
X0170894Y0121357D01*
X0170894Y0147357D01*
X0167894Y0150357D01*
X0162894Y0150357D01*
X0160894Y0148357D01*
X0160894Y0145357D01*
X0165894Y0145357D02*
X0165894Y0117357D01*
M02*
