%
M48
M72
T01C0.01800
T02C0.02500
T03C0.03937
T04C0.10236
T05C0.12500
%
T01
X140334Y132947
X160894Y145357
X165894Y145357
X188394Y146357
T02
X204142Y185743
X172646Y185743
T03
X108334Y96147
X118334Y96147
X118334Y106147
X108334Y106147
X128334Y106147
X138334Y106147
X148334Y106147
X158334Y106147
X168334Y106147
X178334Y106147
X188334Y106147
X198334Y106147
X208334Y106147
X218334Y106147
X228334Y106147
X238334Y106147
X248334Y106147
X258334Y106147
X268334Y106147
X268334Y96147
X258334Y96147
X248334Y96147
X238334Y96147
X228334Y96147
X218334Y96147
X208334Y96147
X198334Y96147
X188334Y96147
X178334Y96147
X168334Y96147
X158334Y96147
X148334Y96147
X138334Y96147
X128334Y96147
T04
X148040Y181412
X228748Y181412
X228748Y314089
X148040Y314089
T05
X90634Y373847
X286034Y373847
M30
