G75*
%MOIN*%
%OFA0B0*%
%FSLAX25Y25*%
%IPPOS*%
%LPD*%
%AMOC8*
5,1,8,0,0,1.08239X$1,22.5*
%
%ADD10R,0.02402X0.05394*%
%ADD11R,0.03937X0.04331*%
%ADD12R,0.04331X0.03937*%
%ADD13OC8,0.05906*%
%ADD14R,0.03937X0.03937*%
%ADD15C,0.01600*%
%ADD16C,0.01200*%
%ADD17C,0.03200*%
D10*
X0170677Y0179443D03*
X0174614Y0179443D03*
X0178551Y0179443D03*
X0182488Y0179443D03*
X0186425Y0179443D03*
X0190362Y0179443D03*
X0194299Y0179443D03*
X0198236Y0179443D03*
X0202173Y0179443D03*
X0206110Y0179443D03*
X0206110Y0192042D03*
X0202173Y0192042D03*
X0198236Y0192042D03*
X0194299Y0192042D03*
X0190362Y0192042D03*
X0186425Y0192042D03*
X0182488Y0192042D03*
X0178551Y0192042D03*
X0174614Y0192042D03*
X0170677Y0192042D03*
D11*
X0169894Y0160703D03*
X0161894Y0160703D03*
X0161894Y0154010D03*
X0169894Y0154010D03*
X0206894Y0154010D03*
X0214894Y0154010D03*
X0214894Y0160703D03*
X0206894Y0160703D03*
D12*
X0195240Y0162357D03*
X0188547Y0162357D03*
X0188547Y0152357D03*
X0195240Y0152357D03*
X0125180Y0138447D03*
X0118487Y0138447D03*
X0118487Y0121447D03*
X0125180Y0121447D03*
D13*
X0128334Y0106147D03*
X0138334Y0106147D03*
X0148334Y0106147D03*
X0158334Y0106147D03*
X0168334Y0106147D03*
X0178334Y0106147D03*
X0188334Y0106147D03*
X0198334Y0106147D03*
X0208334Y0106147D03*
X0218334Y0106147D03*
X0228334Y0106147D03*
X0238334Y0106147D03*
X0248334Y0106147D03*
X0258334Y0106147D03*
X0268334Y0106147D03*
X0268334Y0096147D03*
X0258334Y0096147D03*
X0248334Y0096147D03*
X0238334Y0096147D03*
X0228334Y0096147D03*
X0218334Y0096147D03*
X0208334Y0096147D03*
X0198334Y0096147D03*
X0188334Y0096147D03*
X0178334Y0096147D03*
X0168334Y0096147D03*
X0158334Y0096147D03*
X0148334Y0096147D03*
X0138334Y0096147D03*
X0128334Y0096147D03*
X0118334Y0096147D03*
X0108334Y0096147D03*
X0108334Y0106147D03*
X0118334Y0106147D03*
D14*
X0133381Y0121447D03*
X0140287Y0121447D03*
X0140287Y0138447D03*
X0133381Y0138447D03*
D15*
X0188394Y0146357D02*
X0188394Y0152203D01*
X0188547Y0152357D01*
X0188547Y0162357D01*
X0188547Y0167010D01*
X0190362Y0168825D01*
X0190362Y0179443D01*
X0186425Y0179443D01*
X0190362Y0179443D02*
X0190362Y0192042D01*
X0194299Y0192042D02*
X0194299Y0179443D01*
X0194299Y0166951D01*
X0195240Y0166010D01*
X0195240Y0162357D01*
X0195240Y0152357D01*
X0195240Y0114010D01*
X0197894Y0111357D01*
X0200894Y0111357D01*
X0203344Y0108757D01*
X0203344Y0101157D01*
X0198334Y0096147D01*
X0198236Y0192042D02*
X0194299Y0192042D01*
D16*
X0143394Y0092857D02*
X0145894Y0090357D01*
X0180894Y0090357D01*
X0183394Y0092857D01*
X0183394Y0110357D01*
X0182488Y0111262D01*
X0182488Y0179443D01*
X0178551Y0179443D02*
X0178551Y0106364D01*
X0178334Y0106147D01*
X0168334Y0106147D02*
X0163544Y0101357D01*
X0155394Y0101357D01*
X0153394Y0103357D01*
X0153394Y0108857D01*
X0155894Y0111357D01*
X0155894Y0163357D01*
X0161894Y0169357D01*
X0161894Y0193857D01*
X0164894Y0196857D01*
X0172894Y0196857D01*
X0174614Y0195136D01*
X0174614Y0192042D01*
X0170677Y0192042D02*
X0166579Y0192042D01*
X0164894Y0190357D01*
X0164894Y0167357D01*
X0161894Y0164357D01*
X0161894Y0160703D01*
X0169894Y0160703D02*
X0169894Y0173357D01*
X0170677Y0174140D01*
X0170677Y0179443D01*
X0174614Y0179443D02*
X0174614Y0174136D01*
X0175614Y0173136D01*
X0175614Y0150077D01*
X0158394Y0132857D01*
X0158394Y0106207D01*
X0158334Y0106147D01*
X0152894Y0112357D02*
X0148394Y0107857D01*
X0148394Y0106207D01*
X0148334Y0106147D01*
X0143394Y0103357D02*
X0140604Y0106147D01*
X0138334Y0106147D01*
X0143394Y0103357D02*
X0143394Y0092857D01*
X0138334Y0096147D02*
X0134834Y0096147D01*
X0133334Y0097647D01*
X0133334Y0110947D01*
X0140287Y0117899D01*
X0140287Y0121447D01*
X0133381Y0121447D02*
X0125180Y0121447D01*
X0118487Y0121447D02*
X0118487Y0138447D01*
X0125180Y0138447D02*
X0133381Y0138447D01*
X0140287Y0138447D02*
X0140287Y0133994D01*
X0140334Y0132947D01*
X0160894Y0145357D02*
X0160894Y0148357D01*
X0161894Y0149357D01*
X0161894Y0154010D01*
X0169894Y0154010D02*
X0169894Y0149357D01*
X0165894Y0145357D01*
X0152894Y0164357D02*
X0158894Y0170357D01*
X0158894Y0194857D01*
X0163394Y0199357D01*
X0174894Y0199357D01*
X0178551Y0196199D01*
X0178551Y0192042D01*
X0182488Y0192042D02*
X0182488Y0196451D01*
X0185894Y0199357D01*
X0211394Y0199357D01*
X0214894Y0195857D01*
X0214894Y0160703D01*
X0206894Y0160703D02*
X0206894Y0167357D01*
X0210894Y0171357D01*
X0210894Y0195357D01*
X0209394Y0196857D01*
X0187894Y0196857D01*
X0186425Y0195388D01*
X0186425Y0192042D01*
X0152894Y0164357D02*
X0152894Y0112357D01*
X0118487Y0121447D02*
X0114834Y0121447D01*
X0108334Y0114947D01*
X0108334Y0106147D01*
X0206894Y0111387D02*
X0208334Y0109947D01*
X0208334Y0106147D01*
X0214894Y0113387D02*
X0218334Y0109947D01*
X0218334Y0106147D01*
X0214894Y0113387D02*
X0214894Y0154010D01*
X0206894Y0154010D02*
X0206894Y0111387D01*
D17*
X0140334Y0132947D03*
X0160894Y0145357D03*
X0165894Y0145357D03*
X0188394Y0146357D03*
M02*
