G75*
%MOIN*%
%OFA0B0*%
%FSLAX25Y25*%
%IPPOS*%
%LPD*%
%AMOC8*
5,1,8,0,0,1.08239X$1,22.5*
%
%ADD10R,0.02402X0.05394*%
%ADD11R,0.03937X0.04331*%
%ADD12R,0.04331X0.03937*%
%ADD13R,0.03937X0.03937*%
D10*
X0170677Y0179443D03*
X0174614Y0179443D03*
X0178551Y0179443D03*
X0182488Y0179443D03*
X0186425Y0179443D03*
X0190362Y0179443D03*
X0194299Y0179443D03*
X0198236Y0179443D03*
X0202173Y0179443D03*
X0206110Y0179443D03*
X0206110Y0192042D03*
X0202173Y0192042D03*
X0198236Y0192042D03*
X0194299Y0192042D03*
X0190362Y0192042D03*
X0186425Y0192042D03*
X0182488Y0192042D03*
X0178551Y0192042D03*
X0174614Y0192042D03*
X0170677Y0192042D03*
D11*
X0169894Y0160703D03*
X0161894Y0160703D03*
X0161894Y0154010D03*
X0169894Y0154010D03*
X0206894Y0154010D03*
X0214894Y0154010D03*
X0214894Y0160703D03*
X0206894Y0160703D03*
D12*
X0118487Y0121447D03*
X0125180Y0121447D03*
X0125180Y0138447D03*
X0118487Y0138447D03*
X0188547Y0152357D03*
X0195240Y0152357D03*
X0195240Y0162357D03*
X0188547Y0162357D03*
D13*
X0140287Y0138447D03*
X0133381Y0138447D03*
X0133381Y0121447D03*
X0140287Y0121447D03*
M02*
