G75*
%MOIN*%
%OFA0B0*%
%FSLAX25Y25*%
%IPPOS*%
%LPD*%
%AMOC8*
5,1,8,0,0,1.08239X$1,22.5*
%
%ADD10C,0.00000*%
%ADD11C,0.00400*%
%ADD12C,0.01200*%
%ADD13R,0.00500X0.06000*%
%ADD14R,0.00500X0.04000*%
%ADD15R,0.00500X0.04500*%
%ADD16R,0.00500X0.11500*%
%ADD17R,0.00500X0.09000*%
%ADD18R,0.00500X0.06500*%
%ADD19R,0.00500X0.07500*%
%ADD20R,0.00500X0.05000*%
%ADD21R,0.00500X0.13000*%
%ADD22R,0.00500X0.11000*%
%ADD23R,0.00500X0.08500*%
%ADD24R,0.00500X0.14000*%
%ADD25R,0.00500X0.12000*%
%ADD26R,0.00500X0.09500*%
%ADD27R,0.00500X0.10000*%
%ADD28R,0.00500X0.14500*%
%ADD29R,0.00500X0.13500*%
%ADD30R,0.00500X0.10500*%
%ADD31R,0.00500X0.15000*%
%ADD32R,0.00500X0.15500*%
%ADD33R,0.00500X0.12500*%
%ADD34R,0.00500X0.16000*%
%ADD35R,0.00500X0.05500*%
%ADD36R,0.00500X0.16500*%
%ADD37R,0.00500X0.02500*%
%ADD38R,0.00500X0.03500*%
%ADD39R,0.00500X0.00500*%
%ADD40R,0.00500X0.07000*%
%ADD41R,0.00500X0.01500*%
%ADD42R,0.00500X0.08000*%
%ADD43C,0.00600*%
%ADD44R,0.01470X0.00294*%
%ADD45R,0.01170X0.00294*%
%ADD46R,0.01470X0.00294*%
%ADD47R,0.05000X0.00294*%
%ADD48R,0.01760X0.00294*%
%ADD49R,0.04120X0.00294*%
%ADD50R,0.03230X0.00294*%
%ADD51R,0.01180X0.00294*%
%ADD52R,0.01770X0.00294*%
%ADD53R,0.01480X0.00294*%
%ADD54R,0.02650X0.00294*%
%ADD55R,0.02940X0.00294*%
%ADD56R,0.04410X0.00294*%
%ADD57R,0.04710X0.00294*%
%ADD58R,0.03820X0.00294*%
%ADD59R,0.04110X0.00294*%
%ADD60R,0.01770X0.00294*%
%ADD61R,0.05300X0.00294*%
%ADD62R,0.02060X0.00294*%
%ADD63R,0.05290X0.00294*%
%ADD64R,0.05590X0.00294*%
%ADD65R,0.01470X0.00295*%
%ADD66R,0.01470X0.00295*%
%ADD67R,0.01170X0.00295*%
%ADD68R,0.01480X0.00295*%
%ADD69R,0.01770X0.00295*%
%ADD70R,0.02060X0.00295*%
%ADD71R,0.01180X0.00295*%
%ADD72R,0.02350X0.00295*%
%ADD73R,0.02360X0.00295*%
%ADD74R,0.01770X0.00295*%
%ADD75R,0.01760X0.00295*%
%ADD76R,0.02350X0.00294*%
%ADD77R,0.02360X0.00294*%
%ADD78R,0.02640X0.00294*%
%ADD79R,0.01170X0.00294*%
%ADD80R,0.04700X0.00294*%
%ADD81R,0.04120X0.00294*%
%ADD82R,0.05880X0.00294*%
%ADD83R,0.03830X0.00294*%
%ADD84R,0.03240X0.00294*%
%ADD85R,0.05880X0.00295*%
%ADD86R,0.04120X0.00295*%
%ADD87R,0.03830X0.00295*%
%ADD88R,0.04420X0.00295*%
%ADD89R,0.05000X0.00295*%
%ADD90R,0.04410X0.00295*%
%ADD91R,0.05290X0.00295*%
%ADD92R,0.00590X0.00294*%
%ADD93R,0.00880X0.00294*%
%ADD94R,0.02640X0.00294*%
%ADD95R,0.04420X0.00294*%
%ADD96R,0.00890X0.00294*%
%ADD97R,0.00300X0.00294*%
%ADD98R,0.02940X0.00294*%
%ADD99R,0.02650X0.00295*%
%ADD100R,0.02640X0.00295*%
%ADD101R,0.02940X0.00295*%
%ADD102R,0.00880X0.00295*%
%ADD103R,0.00590X0.00295*%
%ADD104R,0.02050X0.00294*%
%ADD105R,0.04420X0.00294*%
%ADD106R,0.03530X0.00294*%
%ADD107R,0.03820X0.00294*%
%ADD108R,0.39110X0.00294*%
%ADD109R,0.08240X0.00294*%
%ADD110R,0.13240X0.00294*%
%ADD111R,0.05890X0.00294*%
%ADD112R,0.12940X0.00294*%
%ADD113R,0.06770X0.00294*%
%ADD114R,0.09710X0.00294*%
%ADD115R,0.07650X0.00294*%
%ADD116R,0.07940X0.00294*%
%ADD117R,0.10590X0.00294*%
%ADD118R,0.08530X0.00294*%
%ADD119R,0.09120X0.00294*%
%ADD120R,0.11180X0.00294*%
%ADD121R,0.09410X0.00294*%
%ADD122R,0.10290X0.00294*%
%ADD123R,0.39110X0.00295*%
%ADD124R,0.11770X0.00295*%
%ADD125R,0.13240X0.00295*%
%ADD126R,0.03820X0.00295*%
%ADD127R,0.10300X0.00295*%
%ADD128R,0.12940X0.00295*%
%ADD129R,0.10880X0.00295*%
%ADD130R,0.12060X0.00294*%
%ADD131R,0.10880X0.00294*%
%ADD132R,0.11470X0.00294*%
%ADD133R,0.12350X0.00294*%
%ADD134R,0.11470X0.00294*%
%ADD135R,0.12650X0.00294*%
%ADD136R,0.12360X0.00294*%
%ADD137R,0.06470X0.00295*%
%ADD138R,0.04110X0.00295*%
%ADD139R,0.03530X0.00295*%
%ADD140R,0.03520X0.00295*%
%ADD141R,0.06470X0.00294*%
%ADD142R,0.07060X0.00294*%
%ADD143R,0.08230X0.00294*%
%ADD144R,0.30580X0.00294*%
%ADD145R,0.30000X0.00294*%
%ADD146R,0.29410X0.00294*%
%ADD147R,0.29110X0.00294*%
%ADD148R,0.08230X0.00295*%
%ADD149R,0.28520X0.00295*%
%ADD150R,0.03820X0.00295*%
%ADD151R,0.27940X0.00294*%
%ADD152R,0.27640X0.00294*%
%ADD153R,0.05580X0.00294*%
%ADD154R,0.27050X0.00294*%
%ADD155R,0.07050X0.00294*%
%ADD156R,0.26470X0.00294*%
%ADD157R,0.25880X0.00294*%
%ADD158R,0.25580X0.00294*%
%ADD159R,0.25000X0.00294*%
%ADD160R,0.24410X0.00294*%
%ADD161R,0.24110X0.00295*%
%ADD162R,0.12060X0.00295*%
%ADD163R,0.11470X0.00295*%
%ADD164R,0.23520X0.00294*%
%ADD165R,0.22940X0.00294*%
%ADD166R,0.22640X0.00294*%
%ADD167R,0.10290X0.00294*%
%ADD168R,0.22050X0.00294*%
%ADD169R,0.21470X0.00294*%
%ADD170R,0.20880X0.00294*%
%ADD171R,0.06470X0.00294*%
%ADD172R,0.20580X0.00294*%
%ADD173R,0.20000X0.00295*%
%ADD174R,0.04120X0.00295*%
%ADD175R,0.04710X0.00295*%
%ADD176R,0.19410X0.00294*%
%ADD177R,0.19110X0.00294*%
%ADD178R,0.18520X0.00294*%
%ADD179R,0.17940X0.00294*%
%ADD180R,0.17640X0.00294*%
%ADD181R,0.17050X0.00294*%
%ADD182R,0.16470X0.00294*%
%ADD183R,0.15880X0.00294*%
%ADD184R,0.15580X0.00295*%
%ADD185R,0.04700X0.00295*%
%ADD186R,0.15000X0.00294*%
%ADD187R,0.14410X0.00294*%
%ADD188R,0.12640X0.00294*%
%ADD189R,0.14110X0.00294*%
%ADD190R,0.13520X0.00294*%
%ADD191R,0.11770X0.00294*%
%ADD192R,0.11170X0.00294*%
%ADD193R,0.12050X0.00294*%
%ADD194R,0.11770X0.00294*%
%ADD195R,0.11470X0.00295*%
%ADD196R,0.10290X0.00295*%
%ADD197R,0.12640X0.00295*%
%ADD198R,0.09120X0.00294*%
%ADD199R,0.10580X0.00294*%
%ADD200R,0.10300X0.00294*%
%ADD201R,0.10000X0.00294*%
%ADD202R,0.07350X0.00294*%
%ADD203R,0.09110X0.00294*%
%ADD204R,0.03520X0.00294*%
%ADD205R,0.08520X0.00294*%
%ADD206R,0.07940X0.00294*%
%ADD207R,0.07050X0.00295*%
%ADD208R,0.08820X0.00294*%
%ADD209R,0.11170X0.00295*%
%ADD210R,0.11480X0.00294*%
%ADD211R,0.06180X0.00294*%
%ADD212R,0.06760X0.00294*%
%ADD213R,0.13230X0.00294*%
%ADD214R,0.09700X0.00294*%
%ADD215R,0.14700X0.00294*%
%ADD216R,0.13530X0.00294*%
%ADD217R,0.15290X0.00294*%
%ADD218R,0.13830X0.00294*%
%ADD219R,0.15880X0.00295*%
%ADD220R,0.11480X0.00295*%
%ADD221R,0.14120X0.00295*%
%ADD222R,0.16170X0.00294*%
%ADD223R,0.16760X0.00294*%
%ADD224R,0.17350X0.00294*%
%ADD225R,0.18230X0.00294*%
%ADD226R,0.06170X0.00294*%
%ADD227R,0.18820X0.00294*%
%ADD228R,0.06760X0.00295*%
%ADD229R,0.11760X0.00294*%
%ADD230R,0.07360X0.00294*%
%ADD231R,0.24110X0.00294*%
%ADD232R,0.24700X0.00295*%
%ADD233R,0.07360X0.00295*%
%ADD234R,0.25290X0.00294*%
%ADD235R,0.26170X0.00294*%
%ADD236R,0.26760X0.00294*%
%ADD237R,0.27350X0.00294*%
%ADD238R,0.28230X0.00294*%
%ADD239R,0.28820X0.00295*%
%ADD240R,0.03240X0.00295*%
%ADD241R,0.03230X0.00295*%
%ADD242R,0.30290X0.00294*%
%ADD243R,0.07640X0.00294*%
%ADD244R,0.06170X0.00294*%
%ADD245R,0.05580X0.00295*%
%ADD246R,0.05590X0.00295*%
%ADD247R,0.12650X0.00295*%
%ADD248R,0.11170X0.00294*%
%ADD249R,0.08830X0.00294*%
%ADD250R,0.04000X0.00286*%
%ADD251R,0.04580X0.00286*%
%ADD252R,0.03430X0.00286*%
%ADD253R,0.06280X0.00286*%
%ADD254R,0.04000X0.00285*%
%ADD255R,0.07140X0.00285*%
%ADD256R,0.03430X0.00285*%
%ADD257R,0.07710X0.00286*%
%ADD258R,0.08290X0.00286*%
%ADD259R,0.08580X0.00285*%
%ADD260R,0.08580X0.00286*%
%ADD261R,0.08860X0.00286*%
%ADD262R,0.09140X0.00286*%
%ADD263R,0.09140X0.00285*%
%ADD264R,0.03140X0.00285*%
%ADD265R,0.03140X0.00286*%
%ADD266R,0.03150X0.00286*%
%ADD267R,0.09150X0.00285*%
%ADD268R,0.09150X0.00286*%
%ADD269R,0.08570X0.00286*%
%ADD270R,0.08000X0.00285*%
%ADD271R,0.07430X0.00286*%
%ADD272R,0.06850X0.00286*%
%ADD273R,0.05150X0.00285*%
%ADD274R,0.00280X0.00286*%
%ADD275R,0.06290X0.00286*%
%ADD276R,0.07430X0.00285*%
%ADD277R,0.07720X0.00286*%
%ADD278R,0.08280X0.00286*%
%ADD279R,0.08570X0.00285*%
%ADD280R,0.05430X0.00286*%
%ADD281R,0.03720X0.00286*%
%ADD282R,0.14860X0.00285*%
%ADD283R,0.14860X0.00286*%
%ADD284R,0.14580X0.00285*%
%ADD285R,0.14580X0.00286*%
%ADD286R,0.14290X0.00286*%
%ADD287R,0.14000X0.00285*%
%ADD288R,0.13430X0.00286*%
%ADD289R,0.14000X0.00286*%
%ADD290R,0.14290X0.00285*%
%ADD291R,0.13720X0.00286*%
%ADD292R,0.13150X0.00285*%
%ADD293R,0.30280X0.00286*%
%ADD294R,0.30850X0.00286*%
%ADD295R,0.31140X0.00286*%
%ADD296R,0.31430X0.00285*%
%ADD297R,0.31710X0.00286*%
%ADD298R,0.31710X0.00285*%
%ADD299R,0.32000X0.00286*%
%ADD300R,0.32000X0.00285*%
%ADD301R,0.11430X0.00286*%
%ADD302R,0.12570X0.00286*%
%ADD303R,0.13140X0.00285*%
%ADD304R,0.13710X0.00286*%
%ADD305R,0.08860X0.00285*%
%ADD306R,0.07710X0.00285*%
%ADD307R,0.07140X0.00286*%
%ADD308R,0.11140X0.00286*%
%ADD309R,0.12570X0.00285*%
%ADD310R,0.13140X0.00286*%
%ADD311R,0.06000X0.00286*%
%ADD312R,0.07150X0.00286*%
%ADD313R,0.06000X0.00285*%
%ADD314R,0.07150X0.00285*%
%ADD315R,0.05720X0.00286*%
%ADD316R,0.06860X0.00286*%
%ADD317R,0.05430X0.00285*%
%ADD318R,0.06570X0.00285*%
%ADD319R,0.05140X0.00286*%
%ADD320R,0.04860X0.00286*%
%ADD321C,0.00500*%
%ADD322C,0.00050*%
%ADD323R,0.03000X0.01800*%
%ADD324C,0.00200*%
%ADD325C,0.02200*%
%ADD326C,0.00800*%
%ADD327C,0.01600*%
%ADD328R,0.01800X0.03000*%
D10*
X0076834Y0082447D02*
X0076834Y0387447D01*
X0299834Y0387447D01*
X0299834Y0082447D01*
X0076834Y0082447D01*
X0142922Y0181412D02*
X0142924Y0181555D01*
X0142930Y0181698D01*
X0142940Y0181840D01*
X0142954Y0181982D01*
X0142972Y0182124D01*
X0142994Y0182266D01*
X0143019Y0182406D01*
X0143049Y0182546D01*
X0143083Y0182685D01*
X0143120Y0182823D01*
X0143162Y0182960D01*
X0143207Y0183095D01*
X0143256Y0183229D01*
X0143308Y0183362D01*
X0143364Y0183494D01*
X0143424Y0183623D01*
X0143488Y0183751D01*
X0143555Y0183878D01*
X0143626Y0184002D01*
X0143700Y0184124D01*
X0143777Y0184244D01*
X0143858Y0184362D01*
X0143942Y0184478D01*
X0144029Y0184591D01*
X0144119Y0184702D01*
X0144213Y0184810D01*
X0144309Y0184916D01*
X0144408Y0185018D01*
X0144511Y0185118D01*
X0144615Y0185215D01*
X0144723Y0185310D01*
X0144833Y0185401D01*
X0144946Y0185489D01*
X0145061Y0185573D01*
X0145178Y0185655D01*
X0145298Y0185733D01*
X0145419Y0185808D01*
X0145543Y0185880D01*
X0145669Y0185948D01*
X0145796Y0186012D01*
X0145926Y0186073D01*
X0146057Y0186130D01*
X0146189Y0186184D01*
X0146323Y0186233D01*
X0146458Y0186280D01*
X0146595Y0186322D01*
X0146733Y0186360D01*
X0146871Y0186395D01*
X0147011Y0186425D01*
X0147151Y0186452D01*
X0147292Y0186475D01*
X0147434Y0186494D01*
X0147576Y0186509D01*
X0147719Y0186520D01*
X0147861Y0186527D01*
X0148004Y0186530D01*
X0148147Y0186529D01*
X0148290Y0186524D01*
X0148433Y0186515D01*
X0148575Y0186502D01*
X0148717Y0186485D01*
X0148858Y0186464D01*
X0148999Y0186439D01*
X0149139Y0186411D01*
X0149278Y0186378D01*
X0149416Y0186341D01*
X0149553Y0186301D01*
X0149689Y0186257D01*
X0149824Y0186209D01*
X0149957Y0186157D01*
X0150089Y0186102D01*
X0150219Y0186043D01*
X0150348Y0185980D01*
X0150474Y0185914D01*
X0150599Y0185844D01*
X0150722Y0185771D01*
X0150842Y0185695D01*
X0150961Y0185615D01*
X0151077Y0185531D01*
X0151191Y0185445D01*
X0151302Y0185355D01*
X0151411Y0185263D01*
X0151517Y0185167D01*
X0151621Y0185069D01*
X0151722Y0184967D01*
X0151819Y0184863D01*
X0151914Y0184756D01*
X0152006Y0184647D01*
X0152095Y0184535D01*
X0152181Y0184420D01*
X0152263Y0184304D01*
X0152342Y0184184D01*
X0152418Y0184063D01*
X0152490Y0183940D01*
X0152559Y0183815D01*
X0152624Y0183688D01*
X0152686Y0183559D01*
X0152744Y0183428D01*
X0152799Y0183296D01*
X0152849Y0183162D01*
X0152896Y0183027D01*
X0152940Y0182891D01*
X0152979Y0182754D01*
X0153014Y0182615D01*
X0153046Y0182476D01*
X0153074Y0182336D01*
X0153098Y0182195D01*
X0153118Y0182053D01*
X0153134Y0181911D01*
X0153146Y0181769D01*
X0153154Y0181626D01*
X0153158Y0181483D01*
X0153158Y0181341D01*
X0153154Y0181198D01*
X0153146Y0181055D01*
X0153134Y0180913D01*
X0153118Y0180771D01*
X0153098Y0180629D01*
X0153074Y0180488D01*
X0153046Y0180348D01*
X0153014Y0180209D01*
X0152979Y0180070D01*
X0152940Y0179933D01*
X0152896Y0179797D01*
X0152849Y0179662D01*
X0152799Y0179528D01*
X0152744Y0179396D01*
X0152686Y0179265D01*
X0152624Y0179136D01*
X0152559Y0179009D01*
X0152490Y0178884D01*
X0152418Y0178761D01*
X0152342Y0178640D01*
X0152263Y0178520D01*
X0152181Y0178404D01*
X0152095Y0178289D01*
X0152006Y0178177D01*
X0151914Y0178068D01*
X0151819Y0177961D01*
X0151722Y0177857D01*
X0151621Y0177755D01*
X0151517Y0177657D01*
X0151411Y0177561D01*
X0151302Y0177469D01*
X0151191Y0177379D01*
X0151077Y0177293D01*
X0150961Y0177209D01*
X0150842Y0177129D01*
X0150722Y0177053D01*
X0150599Y0176980D01*
X0150474Y0176910D01*
X0150348Y0176844D01*
X0150219Y0176781D01*
X0150089Y0176722D01*
X0149957Y0176667D01*
X0149824Y0176615D01*
X0149689Y0176567D01*
X0149553Y0176523D01*
X0149416Y0176483D01*
X0149278Y0176446D01*
X0149139Y0176413D01*
X0148999Y0176385D01*
X0148858Y0176360D01*
X0148717Y0176339D01*
X0148575Y0176322D01*
X0148433Y0176309D01*
X0148290Y0176300D01*
X0148147Y0176295D01*
X0148004Y0176294D01*
X0147861Y0176297D01*
X0147719Y0176304D01*
X0147576Y0176315D01*
X0147434Y0176330D01*
X0147292Y0176349D01*
X0147151Y0176372D01*
X0147011Y0176399D01*
X0146871Y0176429D01*
X0146733Y0176464D01*
X0146595Y0176502D01*
X0146458Y0176544D01*
X0146323Y0176591D01*
X0146189Y0176640D01*
X0146057Y0176694D01*
X0145926Y0176751D01*
X0145796Y0176812D01*
X0145669Y0176876D01*
X0145543Y0176944D01*
X0145419Y0177016D01*
X0145298Y0177091D01*
X0145178Y0177169D01*
X0145061Y0177251D01*
X0144946Y0177335D01*
X0144833Y0177423D01*
X0144723Y0177514D01*
X0144615Y0177609D01*
X0144511Y0177706D01*
X0144408Y0177806D01*
X0144309Y0177908D01*
X0144213Y0178014D01*
X0144119Y0178122D01*
X0144029Y0178233D01*
X0143942Y0178346D01*
X0143858Y0178462D01*
X0143777Y0178580D01*
X0143700Y0178700D01*
X0143626Y0178822D01*
X0143555Y0178946D01*
X0143488Y0179073D01*
X0143424Y0179201D01*
X0143364Y0179330D01*
X0143308Y0179462D01*
X0143256Y0179595D01*
X0143207Y0179729D01*
X0143162Y0179864D01*
X0143120Y0180001D01*
X0143083Y0180139D01*
X0143049Y0180278D01*
X0143019Y0180418D01*
X0142994Y0180558D01*
X0142972Y0180700D01*
X0142954Y0180842D01*
X0142940Y0180984D01*
X0142930Y0181126D01*
X0142924Y0181269D01*
X0142922Y0181412D01*
X0171396Y0185743D02*
X0171398Y0185813D01*
X0171404Y0185883D01*
X0171414Y0185952D01*
X0171427Y0186021D01*
X0171445Y0186089D01*
X0171466Y0186156D01*
X0171491Y0186221D01*
X0171520Y0186285D01*
X0171552Y0186348D01*
X0171588Y0186408D01*
X0171627Y0186466D01*
X0171669Y0186522D01*
X0171714Y0186576D01*
X0171762Y0186627D01*
X0171813Y0186675D01*
X0171867Y0186720D01*
X0171923Y0186762D01*
X0171981Y0186801D01*
X0172041Y0186837D01*
X0172104Y0186869D01*
X0172168Y0186898D01*
X0172233Y0186923D01*
X0172300Y0186944D01*
X0172368Y0186962D01*
X0172437Y0186975D01*
X0172506Y0186985D01*
X0172576Y0186991D01*
X0172646Y0186993D01*
X0172716Y0186991D01*
X0172786Y0186985D01*
X0172855Y0186975D01*
X0172924Y0186962D01*
X0172992Y0186944D01*
X0173059Y0186923D01*
X0173124Y0186898D01*
X0173188Y0186869D01*
X0173251Y0186837D01*
X0173311Y0186801D01*
X0173369Y0186762D01*
X0173425Y0186720D01*
X0173479Y0186675D01*
X0173530Y0186627D01*
X0173578Y0186576D01*
X0173623Y0186522D01*
X0173665Y0186466D01*
X0173704Y0186408D01*
X0173740Y0186348D01*
X0173772Y0186285D01*
X0173801Y0186221D01*
X0173826Y0186156D01*
X0173847Y0186089D01*
X0173865Y0186021D01*
X0173878Y0185952D01*
X0173888Y0185883D01*
X0173894Y0185813D01*
X0173896Y0185743D01*
X0173894Y0185673D01*
X0173888Y0185603D01*
X0173878Y0185534D01*
X0173865Y0185465D01*
X0173847Y0185397D01*
X0173826Y0185330D01*
X0173801Y0185265D01*
X0173772Y0185201D01*
X0173740Y0185138D01*
X0173704Y0185078D01*
X0173665Y0185020D01*
X0173623Y0184964D01*
X0173578Y0184910D01*
X0173530Y0184859D01*
X0173479Y0184811D01*
X0173425Y0184766D01*
X0173369Y0184724D01*
X0173311Y0184685D01*
X0173251Y0184649D01*
X0173188Y0184617D01*
X0173124Y0184588D01*
X0173059Y0184563D01*
X0172992Y0184542D01*
X0172924Y0184524D01*
X0172855Y0184511D01*
X0172786Y0184501D01*
X0172716Y0184495D01*
X0172646Y0184493D01*
X0172576Y0184495D01*
X0172506Y0184501D01*
X0172437Y0184511D01*
X0172368Y0184524D01*
X0172300Y0184542D01*
X0172233Y0184563D01*
X0172168Y0184588D01*
X0172104Y0184617D01*
X0172041Y0184649D01*
X0171981Y0184685D01*
X0171923Y0184724D01*
X0171867Y0184766D01*
X0171813Y0184811D01*
X0171762Y0184859D01*
X0171714Y0184910D01*
X0171669Y0184964D01*
X0171627Y0185020D01*
X0171588Y0185078D01*
X0171552Y0185138D01*
X0171520Y0185201D01*
X0171491Y0185265D01*
X0171466Y0185330D01*
X0171445Y0185397D01*
X0171427Y0185465D01*
X0171414Y0185534D01*
X0171404Y0185603D01*
X0171398Y0185673D01*
X0171396Y0185743D01*
X0202892Y0185743D02*
X0202894Y0185813D01*
X0202900Y0185883D01*
X0202910Y0185952D01*
X0202923Y0186021D01*
X0202941Y0186089D01*
X0202962Y0186156D01*
X0202987Y0186221D01*
X0203016Y0186285D01*
X0203048Y0186348D01*
X0203084Y0186408D01*
X0203123Y0186466D01*
X0203165Y0186522D01*
X0203210Y0186576D01*
X0203258Y0186627D01*
X0203309Y0186675D01*
X0203363Y0186720D01*
X0203419Y0186762D01*
X0203477Y0186801D01*
X0203537Y0186837D01*
X0203600Y0186869D01*
X0203664Y0186898D01*
X0203729Y0186923D01*
X0203796Y0186944D01*
X0203864Y0186962D01*
X0203933Y0186975D01*
X0204002Y0186985D01*
X0204072Y0186991D01*
X0204142Y0186993D01*
X0204212Y0186991D01*
X0204282Y0186985D01*
X0204351Y0186975D01*
X0204420Y0186962D01*
X0204488Y0186944D01*
X0204555Y0186923D01*
X0204620Y0186898D01*
X0204684Y0186869D01*
X0204747Y0186837D01*
X0204807Y0186801D01*
X0204865Y0186762D01*
X0204921Y0186720D01*
X0204975Y0186675D01*
X0205026Y0186627D01*
X0205074Y0186576D01*
X0205119Y0186522D01*
X0205161Y0186466D01*
X0205200Y0186408D01*
X0205236Y0186348D01*
X0205268Y0186285D01*
X0205297Y0186221D01*
X0205322Y0186156D01*
X0205343Y0186089D01*
X0205361Y0186021D01*
X0205374Y0185952D01*
X0205384Y0185883D01*
X0205390Y0185813D01*
X0205392Y0185743D01*
X0205390Y0185673D01*
X0205384Y0185603D01*
X0205374Y0185534D01*
X0205361Y0185465D01*
X0205343Y0185397D01*
X0205322Y0185330D01*
X0205297Y0185265D01*
X0205268Y0185201D01*
X0205236Y0185138D01*
X0205200Y0185078D01*
X0205161Y0185020D01*
X0205119Y0184964D01*
X0205074Y0184910D01*
X0205026Y0184859D01*
X0204975Y0184811D01*
X0204921Y0184766D01*
X0204865Y0184724D01*
X0204807Y0184685D01*
X0204747Y0184649D01*
X0204684Y0184617D01*
X0204620Y0184588D01*
X0204555Y0184563D01*
X0204488Y0184542D01*
X0204420Y0184524D01*
X0204351Y0184511D01*
X0204282Y0184501D01*
X0204212Y0184495D01*
X0204142Y0184493D01*
X0204072Y0184495D01*
X0204002Y0184501D01*
X0203933Y0184511D01*
X0203864Y0184524D01*
X0203796Y0184542D01*
X0203729Y0184563D01*
X0203664Y0184588D01*
X0203600Y0184617D01*
X0203537Y0184649D01*
X0203477Y0184685D01*
X0203419Y0184724D01*
X0203363Y0184766D01*
X0203309Y0184811D01*
X0203258Y0184859D01*
X0203210Y0184910D01*
X0203165Y0184964D01*
X0203123Y0185020D01*
X0203084Y0185078D01*
X0203048Y0185138D01*
X0203016Y0185201D01*
X0202987Y0185265D01*
X0202962Y0185330D01*
X0202941Y0185397D01*
X0202923Y0185465D01*
X0202910Y0185534D01*
X0202900Y0185603D01*
X0202894Y0185673D01*
X0202892Y0185743D01*
X0223630Y0181412D02*
X0223632Y0181555D01*
X0223638Y0181698D01*
X0223648Y0181840D01*
X0223662Y0181982D01*
X0223680Y0182124D01*
X0223702Y0182266D01*
X0223727Y0182406D01*
X0223757Y0182546D01*
X0223791Y0182685D01*
X0223828Y0182823D01*
X0223870Y0182960D01*
X0223915Y0183095D01*
X0223964Y0183229D01*
X0224016Y0183362D01*
X0224072Y0183494D01*
X0224132Y0183623D01*
X0224196Y0183751D01*
X0224263Y0183878D01*
X0224334Y0184002D01*
X0224408Y0184124D01*
X0224485Y0184244D01*
X0224566Y0184362D01*
X0224650Y0184478D01*
X0224737Y0184591D01*
X0224827Y0184702D01*
X0224921Y0184810D01*
X0225017Y0184916D01*
X0225116Y0185018D01*
X0225219Y0185118D01*
X0225323Y0185215D01*
X0225431Y0185310D01*
X0225541Y0185401D01*
X0225654Y0185489D01*
X0225769Y0185573D01*
X0225886Y0185655D01*
X0226006Y0185733D01*
X0226127Y0185808D01*
X0226251Y0185880D01*
X0226377Y0185948D01*
X0226504Y0186012D01*
X0226634Y0186073D01*
X0226765Y0186130D01*
X0226897Y0186184D01*
X0227031Y0186233D01*
X0227166Y0186280D01*
X0227303Y0186322D01*
X0227441Y0186360D01*
X0227579Y0186395D01*
X0227719Y0186425D01*
X0227859Y0186452D01*
X0228000Y0186475D01*
X0228142Y0186494D01*
X0228284Y0186509D01*
X0228427Y0186520D01*
X0228569Y0186527D01*
X0228712Y0186530D01*
X0228855Y0186529D01*
X0228998Y0186524D01*
X0229141Y0186515D01*
X0229283Y0186502D01*
X0229425Y0186485D01*
X0229566Y0186464D01*
X0229707Y0186439D01*
X0229847Y0186411D01*
X0229986Y0186378D01*
X0230124Y0186341D01*
X0230261Y0186301D01*
X0230397Y0186257D01*
X0230532Y0186209D01*
X0230665Y0186157D01*
X0230797Y0186102D01*
X0230927Y0186043D01*
X0231056Y0185980D01*
X0231182Y0185914D01*
X0231307Y0185844D01*
X0231430Y0185771D01*
X0231550Y0185695D01*
X0231669Y0185615D01*
X0231785Y0185531D01*
X0231899Y0185445D01*
X0232010Y0185355D01*
X0232119Y0185263D01*
X0232225Y0185167D01*
X0232329Y0185069D01*
X0232430Y0184967D01*
X0232527Y0184863D01*
X0232622Y0184756D01*
X0232714Y0184647D01*
X0232803Y0184535D01*
X0232889Y0184420D01*
X0232971Y0184304D01*
X0233050Y0184184D01*
X0233126Y0184063D01*
X0233198Y0183940D01*
X0233267Y0183815D01*
X0233332Y0183688D01*
X0233394Y0183559D01*
X0233452Y0183428D01*
X0233507Y0183296D01*
X0233557Y0183162D01*
X0233604Y0183027D01*
X0233648Y0182891D01*
X0233687Y0182754D01*
X0233722Y0182615D01*
X0233754Y0182476D01*
X0233782Y0182336D01*
X0233806Y0182195D01*
X0233826Y0182053D01*
X0233842Y0181911D01*
X0233854Y0181769D01*
X0233862Y0181626D01*
X0233866Y0181483D01*
X0233866Y0181341D01*
X0233862Y0181198D01*
X0233854Y0181055D01*
X0233842Y0180913D01*
X0233826Y0180771D01*
X0233806Y0180629D01*
X0233782Y0180488D01*
X0233754Y0180348D01*
X0233722Y0180209D01*
X0233687Y0180070D01*
X0233648Y0179933D01*
X0233604Y0179797D01*
X0233557Y0179662D01*
X0233507Y0179528D01*
X0233452Y0179396D01*
X0233394Y0179265D01*
X0233332Y0179136D01*
X0233267Y0179009D01*
X0233198Y0178884D01*
X0233126Y0178761D01*
X0233050Y0178640D01*
X0232971Y0178520D01*
X0232889Y0178404D01*
X0232803Y0178289D01*
X0232714Y0178177D01*
X0232622Y0178068D01*
X0232527Y0177961D01*
X0232430Y0177857D01*
X0232329Y0177755D01*
X0232225Y0177657D01*
X0232119Y0177561D01*
X0232010Y0177469D01*
X0231899Y0177379D01*
X0231785Y0177293D01*
X0231669Y0177209D01*
X0231550Y0177129D01*
X0231430Y0177053D01*
X0231307Y0176980D01*
X0231182Y0176910D01*
X0231056Y0176844D01*
X0230927Y0176781D01*
X0230797Y0176722D01*
X0230665Y0176667D01*
X0230532Y0176615D01*
X0230397Y0176567D01*
X0230261Y0176523D01*
X0230124Y0176483D01*
X0229986Y0176446D01*
X0229847Y0176413D01*
X0229707Y0176385D01*
X0229566Y0176360D01*
X0229425Y0176339D01*
X0229283Y0176322D01*
X0229141Y0176309D01*
X0228998Y0176300D01*
X0228855Y0176295D01*
X0228712Y0176294D01*
X0228569Y0176297D01*
X0228427Y0176304D01*
X0228284Y0176315D01*
X0228142Y0176330D01*
X0228000Y0176349D01*
X0227859Y0176372D01*
X0227719Y0176399D01*
X0227579Y0176429D01*
X0227441Y0176464D01*
X0227303Y0176502D01*
X0227166Y0176544D01*
X0227031Y0176591D01*
X0226897Y0176640D01*
X0226765Y0176694D01*
X0226634Y0176751D01*
X0226504Y0176812D01*
X0226377Y0176876D01*
X0226251Y0176944D01*
X0226127Y0177016D01*
X0226006Y0177091D01*
X0225886Y0177169D01*
X0225769Y0177251D01*
X0225654Y0177335D01*
X0225541Y0177423D01*
X0225431Y0177514D01*
X0225323Y0177609D01*
X0225219Y0177706D01*
X0225116Y0177806D01*
X0225017Y0177908D01*
X0224921Y0178014D01*
X0224827Y0178122D01*
X0224737Y0178233D01*
X0224650Y0178346D01*
X0224566Y0178462D01*
X0224485Y0178580D01*
X0224408Y0178700D01*
X0224334Y0178822D01*
X0224263Y0178946D01*
X0224196Y0179073D01*
X0224132Y0179201D01*
X0224072Y0179330D01*
X0224016Y0179462D01*
X0223964Y0179595D01*
X0223915Y0179729D01*
X0223870Y0179864D01*
X0223828Y0180001D01*
X0223791Y0180139D01*
X0223757Y0180278D01*
X0223727Y0180418D01*
X0223702Y0180558D01*
X0223680Y0180700D01*
X0223662Y0180842D01*
X0223648Y0180984D01*
X0223638Y0181126D01*
X0223632Y0181269D01*
X0223630Y0181412D01*
X0223630Y0314089D02*
X0223632Y0314232D01*
X0223638Y0314375D01*
X0223648Y0314517D01*
X0223662Y0314659D01*
X0223680Y0314801D01*
X0223702Y0314943D01*
X0223727Y0315083D01*
X0223757Y0315223D01*
X0223791Y0315362D01*
X0223828Y0315500D01*
X0223870Y0315637D01*
X0223915Y0315772D01*
X0223964Y0315906D01*
X0224016Y0316039D01*
X0224072Y0316171D01*
X0224132Y0316300D01*
X0224196Y0316428D01*
X0224263Y0316555D01*
X0224334Y0316679D01*
X0224408Y0316801D01*
X0224485Y0316921D01*
X0224566Y0317039D01*
X0224650Y0317155D01*
X0224737Y0317268D01*
X0224827Y0317379D01*
X0224921Y0317487D01*
X0225017Y0317593D01*
X0225116Y0317695D01*
X0225219Y0317795D01*
X0225323Y0317892D01*
X0225431Y0317987D01*
X0225541Y0318078D01*
X0225654Y0318166D01*
X0225769Y0318250D01*
X0225886Y0318332D01*
X0226006Y0318410D01*
X0226127Y0318485D01*
X0226251Y0318557D01*
X0226377Y0318625D01*
X0226504Y0318689D01*
X0226634Y0318750D01*
X0226765Y0318807D01*
X0226897Y0318861D01*
X0227031Y0318910D01*
X0227166Y0318957D01*
X0227303Y0318999D01*
X0227441Y0319037D01*
X0227579Y0319072D01*
X0227719Y0319102D01*
X0227859Y0319129D01*
X0228000Y0319152D01*
X0228142Y0319171D01*
X0228284Y0319186D01*
X0228427Y0319197D01*
X0228569Y0319204D01*
X0228712Y0319207D01*
X0228855Y0319206D01*
X0228998Y0319201D01*
X0229141Y0319192D01*
X0229283Y0319179D01*
X0229425Y0319162D01*
X0229566Y0319141D01*
X0229707Y0319116D01*
X0229847Y0319088D01*
X0229986Y0319055D01*
X0230124Y0319018D01*
X0230261Y0318978D01*
X0230397Y0318934D01*
X0230532Y0318886D01*
X0230665Y0318834D01*
X0230797Y0318779D01*
X0230927Y0318720D01*
X0231056Y0318657D01*
X0231182Y0318591D01*
X0231307Y0318521D01*
X0231430Y0318448D01*
X0231550Y0318372D01*
X0231669Y0318292D01*
X0231785Y0318208D01*
X0231899Y0318122D01*
X0232010Y0318032D01*
X0232119Y0317940D01*
X0232225Y0317844D01*
X0232329Y0317746D01*
X0232430Y0317644D01*
X0232527Y0317540D01*
X0232622Y0317433D01*
X0232714Y0317324D01*
X0232803Y0317212D01*
X0232889Y0317097D01*
X0232971Y0316981D01*
X0233050Y0316861D01*
X0233126Y0316740D01*
X0233198Y0316617D01*
X0233267Y0316492D01*
X0233332Y0316365D01*
X0233394Y0316236D01*
X0233452Y0316105D01*
X0233507Y0315973D01*
X0233557Y0315839D01*
X0233604Y0315704D01*
X0233648Y0315568D01*
X0233687Y0315431D01*
X0233722Y0315292D01*
X0233754Y0315153D01*
X0233782Y0315013D01*
X0233806Y0314872D01*
X0233826Y0314730D01*
X0233842Y0314588D01*
X0233854Y0314446D01*
X0233862Y0314303D01*
X0233866Y0314160D01*
X0233866Y0314018D01*
X0233862Y0313875D01*
X0233854Y0313732D01*
X0233842Y0313590D01*
X0233826Y0313448D01*
X0233806Y0313306D01*
X0233782Y0313165D01*
X0233754Y0313025D01*
X0233722Y0312886D01*
X0233687Y0312747D01*
X0233648Y0312610D01*
X0233604Y0312474D01*
X0233557Y0312339D01*
X0233507Y0312205D01*
X0233452Y0312073D01*
X0233394Y0311942D01*
X0233332Y0311813D01*
X0233267Y0311686D01*
X0233198Y0311561D01*
X0233126Y0311438D01*
X0233050Y0311317D01*
X0232971Y0311197D01*
X0232889Y0311081D01*
X0232803Y0310966D01*
X0232714Y0310854D01*
X0232622Y0310745D01*
X0232527Y0310638D01*
X0232430Y0310534D01*
X0232329Y0310432D01*
X0232225Y0310334D01*
X0232119Y0310238D01*
X0232010Y0310146D01*
X0231899Y0310056D01*
X0231785Y0309970D01*
X0231669Y0309886D01*
X0231550Y0309806D01*
X0231430Y0309730D01*
X0231307Y0309657D01*
X0231182Y0309587D01*
X0231056Y0309521D01*
X0230927Y0309458D01*
X0230797Y0309399D01*
X0230665Y0309344D01*
X0230532Y0309292D01*
X0230397Y0309244D01*
X0230261Y0309200D01*
X0230124Y0309160D01*
X0229986Y0309123D01*
X0229847Y0309090D01*
X0229707Y0309062D01*
X0229566Y0309037D01*
X0229425Y0309016D01*
X0229283Y0308999D01*
X0229141Y0308986D01*
X0228998Y0308977D01*
X0228855Y0308972D01*
X0228712Y0308971D01*
X0228569Y0308974D01*
X0228427Y0308981D01*
X0228284Y0308992D01*
X0228142Y0309007D01*
X0228000Y0309026D01*
X0227859Y0309049D01*
X0227719Y0309076D01*
X0227579Y0309106D01*
X0227441Y0309141D01*
X0227303Y0309179D01*
X0227166Y0309221D01*
X0227031Y0309268D01*
X0226897Y0309317D01*
X0226765Y0309371D01*
X0226634Y0309428D01*
X0226504Y0309489D01*
X0226377Y0309553D01*
X0226251Y0309621D01*
X0226127Y0309693D01*
X0226006Y0309768D01*
X0225886Y0309846D01*
X0225769Y0309928D01*
X0225654Y0310012D01*
X0225541Y0310100D01*
X0225431Y0310191D01*
X0225323Y0310286D01*
X0225219Y0310383D01*
X0225116Y0310483D01*
X0225017Y0310585D01*
X0224921Y0310691D01*
X0224827Y0310799D01*
X0224737Y0310910D01*
X0224650Y0311023D01*
X0224566Y0311139D01*
X0224485Y0311257D01*
X0224408Y0311377D01*
X0224334Y0311499D01*
X0224263Y0311623D01*
X0224196Y0311750D01*
X0224132Y0311878D01*
X0224072Y0312007D01*
X0224016Y0312139D01*
X0223964Y0312272D01*
X0223915Y0312406D01*
X0223870Y0312541D01*
X0223828Y0312678D01*
X0223791Y0312816D01*
X0223757Y0312955D01*
X0223727Y0313095D01*
X0223702Y0313235D01*
X0223680Y0313377D01*
X0223662Y0313519D01*
X0223648Y0313661D01*
X0223638Y0313803D01*
X0223632Y0313946D01*
X0223630Y0314089D01*
X0142922Y0314089D02*
X0142924Y0314232D01*
X0142930Y0314375D01*
X0142940Y0314517D01*
X0142954Y0314659D01*
X0142972Y0314801D01*
X0142994Y0314943D01*
X0143019Y0315083D01*
X0143049Y0315223D01*
X0143083Y0315362D01*
X0143120Y0315500D01*
X0143162Y0315637D01*
X0143207Y0315772D01*
X0143256Y0315906D01*
X0143308Y0316039D01*
X0143364Y0316171D01*
X0143424Y0316300D01*
X0143488Y0316428D01*
X0143555Y0316555D01*
X0143626Y0316679D01*
X0143700Y0316801D01*
X0143777Y0316921D01*
X0143858Y0317039D01*
X0143942Y0317155D01*
X0144029Y0317268D01*
X0144119Y0317379D01*
X0144213Y0317487D01*
X0144309Y0317593D01*
X0144408Y0317695D01*
X0144511Y0317795D01*
X0144615Y0317892D01*
X0144723Y0317987D01*
X0144833Y0318078D01*
X0144946Y0318166D01*
X0145061Y0318250D01*
X0145178Y0318332D01*
X0145298Y0318410D01*
X0145419Y0318485D01*
X0145543Y0318557D01*
X0145669Y0318625D01*
X0145796Y0318689D01*
X0145926Y0318750D01*
X0146057Y0318807D01*
X0146189Y0318861D01*
X0146323Y0318910D01*
X0146458Y0318957D01*
X0146595Y0318999D01*
X0146733Y0319037D01*
X0146871Y0319072D01*
X0147011Y0319102D01*
X0147151Y0319129D01*
X0147292Y0319152D01*
X0147434Y0319171D01*
X0147576Y0319186D01*
X0147719Y0319197D01*
X0147861Y0319204D01*
X0148004Y0319207D01*
X0148147Y0319206D01*
X0148290Y0319201D01*
X0148433Y0319192D01*
X0148575Y0319179D01*
X0148717Y0319162D01*
X0148858Y0319141D01*
X0148999Y0319116D01*
X0149139Y0319088D01*
X0149278Y0319055D01*
X0149416Y0319018D01*
X0149553Y0318978D01*
X0149689Y0318934D01*
X0149824Y0318886D01*
X0149957Y0318834D01*
X0150089Y0318779D01*
X0150219Y0318720D01*
X0150348Y0318657D01*
X0150474Y0318591D01*
X0150599Y0318521D01*
X0150722Y0318448D01*
X0150842Y0318372D01*
X0150961Y0318292D01*
X0151077Y0318208D01*
X0151191Y0318122D01*
X0151302Y0318032D01*
X0151411Y0317940D01*
X0151517Y0317844D01*
X0151621Y0317746D01*
X0151722Y0317644D01*
X0151819Y0317540D01*
X0151914Y0317433D01*
X0152006Y0317324D01*
X0152095Y0317212D01*
X0152181Y0317097D01*
X0152263Y0316981D01*
X0152342Y0316861D01*
X0152418Y0316740D01*
X0152490Y0316617D01*
X0152559Y0316492D01*
X0152624Y0316365D01*
X0152686Y0316236D01*
X0152744Y0316105D01*
X0152799Y0315973D01*
X0152849Y0315839D01*
X0152896Y0315704D01*
X0152940Y0315568D01*
X0152979Y0315431D01*
X0153014Y0315292D01*
X0153046Y0315153D01*
X0153074Y0315013D01*
X0153098Y0314872D01*
X0153118Y0314730D01*
X0153134Y0314588D01*
X0153146Y0314446D01*
X0153154Y0314303D01*
X0153158Y0314160D01*
X0153158Y0314018D01*
X0153154Y0313875D01*
X0153146Y0313732D01*
X0153134Y0313590D01*
X0153118Y0313448D01*
X0153098Y0313306D01*
X0153074Y0313165D01*
X0153046Y0313025D01*
X0153014Y0312886D01*
X0152979Y0312747D01*
X0152940Y0312610D01*
X0152896Y0312474D01*
X0152849Y0312339D01*
X0152799Y0312205D01*
X0152744Y0312073D01*
X0152686Y0311942D01*
X0152624Y0311813D01*
X0152559Y0311686D01*
X0152490Y0311561D01*
X0152418Y0311438D01*
X0152342Y0311317D01*
X0152263Y0311197D01*
X0152181Y0311081D01*
X0152095Y0310966D01*
X0152006Y0310854D01*
X0151914Y0310745D01*
X0151819Y0310638D01*
X0151722Y0310534D01*
X0151621Y0310432D01*
X0151517Y0310334D01*
X0151411Y0310238D01*
X0151302Y0310146D01*
X0151191Y0310056D01*
X0151077Y0309970D01*
X0150961Y0309886D01*
X0150842Y0309806D01*
X0150722Y0309730D01*
X0150599Y0309657D01*
X0150474Y0309587D01*
X0150348Y0309521D01*
X0150219Y0309458D01*
X0150089Y0309399D01*
X0149957Y0309344D01*
X0149824Y0309292D01*
X0149689Y0309244D01*
X0149553Y0309200D01*
X0149416Y0309160D01*
X0149278Y0309123D01*
X0149139Y0309090D01*
X0148999Y0309062D01*
X0148858Y0309037D01*
X0148717Y0309016D01*
X0148575Y0308999D01*
X0148433Y0308986D01*
X0148290Y0308977D01*
X0148147Y0308972D01*
X0148004Y0308971D01*
X0147861Y0308974D01*
X0147719Y0308981D01*
X0147576Y0308992D01*
X0147434Y0309007D01*
X0147292Y0309026D01*
X0147151Y0309049D01*
X0147011Y0309076D01*
X0146871Y0309106D01*
X0146733Y0309141D01*
X0146595Y0309179D01*
X0146458Y0309221D01*
X0146323Y0309268D01*
X0146189Y0309317D01*
X0146057Y0309371D01*
X0145926Y0309428D01*
X0145796Y0309489D01*
X0145669Y0309553D01*
X0145543Y0309621D01*
X0145419Y0309693D01*
X0145298Y0309768D01*
X0145178Y0309846D01*
X0145061Y0309928D01*
X0144946Y0310012D01*
X0144833Y0310100D01*
X0144723Y0310191D01*
X0144615Y0310286D01*
X0144511Y0310383D01*
X0144408Y0310483D01*
X0144309Y0310585D01*
X0144213Y0310691D01*
X0144119Y0310799D01*
X0144029Y0310910D01*
X0143942Y0311023D01*
X0143858Y0311139D01*
X0143777Y0311257D01*
X0143700Y0311377D01*
X0143626Y0311499D01*
X0143555Y0311623D01*
X0143488Y0311750D01*
X0143424Y0311878D01*
X0143364Y0312007D01*
X0143308Y0312139D01*
X0143256Y0312272D01*
X0143207Y0312406D01*
X0143162Y0312541D01*
X0143120Y0312678D01*
X0143083Y0312816D01*
X0143049Y0312955D01*
X0143019Y0313095D01*
X0142994Y0313235D01*
X0142972Y0313377D01*
X0142954Y0313519D01*
X0142940Y0313661D01*
X0142930Y0313803D01*
X0142924Y0313946D01*
X0142922Y0314089D01*
X0084384Y0373847D02*
X0084386Y0374005D01*
X0084392Y0374162D01*
X0084402Y0374320D01*
X0084416Y0374477D01*
X0084434Y0374633D01*
X0084455Y0374790D01*
X0084481Y0374945D01*
X0084511Y0375100D01*
X0084544Y0375254D01*
X0084582Y0375407D01*
X0084623Y0375560D01*
X0084668Y0375711D01*
X0084717Y0375861D01*
X0084770Y0376009D01*
X0084826Y0376157D01*
X0084887Y0376302D01*
X0084950Y0376447D01*
X0085018Y0376589D01*
X0085089Y0376730D01*
X0085163Y0376869D01*
X0085241Y0377006D01*
X0085323Y0377141D01*
X0085407Y0377274D01*
X0085496Y0377405D01*
X0085587Y0377533D01*
X0085682Y0377660D01*
X0085779Y0377783D01*
X0085880Y0377905D01*
X0085984Y0378023D01*
X0086091Y0378139D01*
X0086201Y0378252D01*
X0086313Y0378363D01*
X0086429Y0378470D01*
X0086547Y0378575D01*
X0086667Y0378677D01*
X0086790Y0378775D01*
X0086916Y0378871D01*
X0087044Y0378963D01*
X0087174Y0379052D01*
X0087306Y0379138D01*
X0087441Y0379220D01*
X0087578Y0379299D01*
X0087716Y0379374D01*
X0087856Y0379446D01*
X0087999Y0379514D01*
X0088142Y0379579D01*
X0088288Y0379640D01*
X0088435Y0379697D01*
X0088583Y0379751D01*
X0088733Y0379801D01*
X0088883Y0379847D01*
X0089035Y0379889D01*
X0089188Y0379928D01*
X0089342Y0379962D01*
X0089497Y0379993D01*
X0089652Y0380019D01*
X0089808Y0380042D01*
X0089965Y0380061D01*
X0090122Y0380076D01*
X0090279Y0380087D01*
X0090437Y0380094D01*
X0090595Y0380097D01*
X0090752Y0380096D01*
X0090910Y0380091D01*
X0091067Y0380082D01*
X0091225Y0380069D01*
X0091381Y0380052D01*
X0091538Y0380031D01*
X0091693Y0380007D01*
X0091848Y0379978D01*
X0092003Y0379945D01*
X0092156Y0379909D01*
X0092309Y0379868D01*
X0092460Y0379824D01*
X0092610Y0379776D01*
X0092759Y0379725D01*
X0092907Y0379669D01*
X0093053Y0379610D01*
X0093198Y0379547D01*
X0093341Y0379480D01*
X0093482Y0379410D01*
X0093621Y0379337D01*
X0093759Y0379260D01*
X0093895Y0379179D01*
X0094028Y0379095D01*
X0094159Y0379008D01*
X0094288Y0378917D01*
X0094415Y0378823D01*
X0094540Y0378726D01*
X0094661Y0378626D01*
X0094781Y0378523D01*
X0094897Y0378417D01*
X0095011Y0378308D01*
X0095123Y0378196D01*
X0095231Y0378082D01*
X0095336Y0377964D01*
X0095439Y0377844D01*
X0095538Y0377722D01*
X0095634Y0377597D01*
X0095727Y0377469D01*
X0095817Y0377340D01*
X0095903Y0377208D01*
X0095987Y0377074D01*
X0096066Y0376938D01*
X0096143Y0376800D01*
X0096215Y0376660D01*
X0096284Y0376518D01*
X0096350Y0376375D01*
X0096412Y0376230D01*
X0096470Y0376083D01*
X0096525Y0375935D01*
X0096576Y0375786D01*
X0096623Y0375635D01*
X0096666Y0375484D01*
X0096705Y0375331D01*
X0096741Y0375177D01*
X0096772Y0375023D01*
X0096800Y0374868D01*
X0096824Y0374712D01*
X0096844Y0374555D01*
X0096860Y0374398D01*
X0096872Y0374241D01*
X0096880Y0374084D01*
X0096884Y0373926D01*
X0096884Y0373768D01*
X0096880Y0373610D01*
X0096872Y0373453D01*
X0096860Y0373296D01*
X0096844Y0373139D01*
X0096824Y0372982D01*
X0096800Y0372826D01*
X0096772Y0372671D01*
X0096741Y0372517D01*
X0096705Y0372363D01*
X0096666Y0372210D01*
X0096623Y0372059D01*
X0096576Y0371908D01*
X0096525Y0371759D01*
X0096470Y0371611D01*
X0096412Y0371464D01*
X0096350Y0371319D01*
X0096284Y0371176D01*
X0096215Y0371034D01*
X0096143Y0370894D01*
X0096066Y0370756D01*
X0095987Y0370620D01*
X0095903Y0370486D01*
X0095817Y0370354D01*
X0095727Y0370225D01*
X0095634Y0370097D01*
X0095538Y0369972D01*
X0095439Y0369850D01*
X0095336Y0369730D01*
X0095231Y0369612D01*
X0095123Y0369498D01*
X0095011Y0369386D01*
X0094897Y0369277D01*
X0094781Y0369171D01*
X0094661Y0369068D01*
X0094540Y0368968D01*
X0094415Y0368871D01*
X0094288Y0368777D01*
X0094159Y0368686D01*
X0094028Y0368599D01*
X0093895Y0368515D01*
X0093759Y0368434D01*
X0093621Y0368357D01*
X0093482Y0368284D01*
X0093341Y0368214D01*
X0093198Y0368147D01*
X0093053Y0368084D01*
X0092907Y0368025D01*
X0092759Y0367969D01*
X0092610Y0367918D01*
X0092460Y0367870D01*
X0092309Y0367826D01*
X0092156Y0367785D01*
X0092003Y0367749D01*
X0091848Y0367716D01*
X0091693Y0367687D01*
X0091538Y0367663D01*
X0091381Y0367642D01*
X0091225Y0367625D01*
X0091067Y0367612D01*
X0090910Y0367603D01*
X0090752Y0367598D01*
X0090595Y0367597D01*
X0090437Y0367600D01*
X0090279Y0367607D01*
X0090122Y0367618D01*
X0089965Y0367633D01*
X0089808Y0367652D01*
X0089652Y0367675D01*
X0089497Y0367701D01*
X0089342Y0367732D01*
X0089188Y0367766D01*
X0089035Y0367805D01*
X0088883Y0367847D01*
X0088733Y0367893D01*
X0088583Y0367943D01*
X0088435Y0367997D01*
X0088288Y0368054D01*
X0088142Y0368115D01*
X0087999Y0368180D01*
X0087856Y0368248D01*
X0087716Y0368320D01*
X0087578Y0368395D01*
X0087441Y0368474D01*
X0087306Y0368556D01*
X0087174Y0368642D01*
X0087044Y0368731D01*
X0086916Y0368823D01*
X0086790Y0368919D01*
X0086667Y0369017D01*
X0086547Y0369119D01*
X0086429Y0369224D01*
X0086313Y0369331D01*
X0086201Y0369442D01*
X0086091Y0369555D01*
X0085984Y0369671D01*
X0085880Y0369789D01*
X0085779Y0369911D01*
X0085682Y0370034D01*
X0085587Y0370161D01*
X0085496Y0370289D01*
X0085407Y0370420D01*
X0085323Y0370553D01*
X0085241Y0370688D01*
X0085163Y0370825D01*
X0085089Y0370964D01*
X0085018Y0371105D01*
X0084950Y0371247D01*
X0084887Y0371392D01*
X0084826Y0371537D01*
X0084770Y0371685D01*
X0084717Y0371833D01*
X0084668Y0371983D01*
X0084623Y0372134D01*
X0084582Y0372287D01*
X0084544Y0372440D01*
X0084511Y0372594D01*
X0084481Y0372749D01*
X0084455Y0372904D01*
X0084434Y0373061D01*
X0084416Y0373217D01*
X0084402Y0373374D01*
X0084392Y0373532D01*
X0084386Y0373689D01*
X0084384Y0373847D01*
X0279784Y0373847D02*
X0279786Y0374005D01*
X0279792Y0374162D01*
X0279802Y0374320D01*
X0279816Y0374477D01*
X0279834Y0374633D01*
X0279855Y0374790D01*
X0279881Y0374945D01*
X0279911Y0375100D01*
X0279944Y0375254D01*
X0279982Y0375407D01*
X0280023Y0375560D01*
X0280068Y0375711D01*
X0280117Y0375861D01*
X0280170Y0376009D01*
X0280226Y0376157D01*
X0280287Y0376302D01*
X0280350Y0376447D01*
X0280418Y0376589D01*
X0280489Y0376730D01*
X0280563Y0376869D01*
X0280641Y0377006D01*
X0280723Y0377141D01*
X0280807Y0377274D01*
X0280896Y0377405D01*
X0280987Y0377533D01*
X0281082Y0377660D01*
X0281179Y0377783D01*
X0281280Y0377905D01*
X0281384Y0378023D01*
X0281491Y0378139D01*
X0281601Y0378252D01*
X0281713Y0378363D01*
X0281829Y0378470D01*
X0281947Y0378575D01*
X0282067Y0378677D01*
X0282190Y0378775D01*
X0282316Y0378871D01*
X0282444Y0378963D01*
X0282574Y0379052D01*
X0282706Y0379138D01*
X0282841Y0379220D01*
X0282978Y0379299D01*
X0283116Y0379374D01*
X0283256Y0379446D01*
X0283399Y0379514D01*
X0283542Y0379579D01*
X0283688Y0379640D01*
X0283835Y0379697D01*
X0283983Y0379751D01*
X0284133Y0379801D01*
X0284283Y0379847D01*
X0284435Y0379889D01*
X0284588Y0379928D01*
X0284742Y0379962D01*
X0284897Y0379993D01*
X0285052Y0380019D01*
X0285208Y0380042D01*
X0285365Y0380061D01*
X0285522Y0380076D01*
X0285679Y0380087D01*
X0285837Y0380094D01*
X0285995Y0380097D01*
X0286152Y0380096D01*
X0286310Y0380091D01*
X0286467Y0380082D01*
X0286625Y0380069D01*
X0286781Y0380052D01*
X0286938Y0380031D01*
X0287093Y0380007D01*
X0287248Y0379978D01*
X0287403Y0379945D01*
X0287556Y0379909D01*
X0287709Y0379868D01*
X0287860Y0379824D01*
X0288010Y0379776D01*
X0288159Y0379725D01*
X0288307Y0379669D01*
X0288453Y0379610D01*
X0288598Y0379547D01*
X0288741Y0379480D01*
X0288882Y0379410D01*
X0289021Y0379337D01*
X0289159Y0379260D01*
X0289295Y0379179D01*
X0289428Y0379095D01*
X0289559Y0379008D01*
X0289688Y0378917D01*
X0289815Y0378823D01*
X0289940Y0378726D01*
X0290061Y0378626D01*
X0290181Y0378523D01*
X0290297Y0378417D01*
X0290411Y0378308D01*
X0290523Y0378196D01*
X0290631Y0378082D01*
X0290736Y0377964D01*
X0290839Y0377844D01*
X0290938Y0377722D01*
X0291034Y0377597D01*
X0291127Y0377469D01*
X0291217Y0377340D01*
X0291303Y0377208D01*
X0291387Y0377074D01*
X0291466Y0376938D01*
X0291543Y0376800D01*
X0291615Y0376660D01*
X0291684Y0376518D01*
X0291750Y0376375D01*
X0291812Y0376230D01*
X0291870Y0376083D01*
X0291925Y0375935D01*
X0291976Y0375786D01*
X0292023Y0375635D01*
X0292066Y0375484D01*
X0292105Y0375331D01*
X0292141Y0375177D01*
X0292172Y0375023D01*
X0292200Y0374868D01*
X0292224Y0374712D01*
X0292244Y0374555D01*
X0292260Y0374398D01*
X0292272Y0374241D01*
X0292280Y0374084D01*
X0292284Y0373926D01*
X0292284Y0373768D01*
X0292280Y0373610D01*
X0292272Y0373453D01*
X0292260Y0373296D01*
X0292244Y0373139D01*
X0292224Y0372982D01*
X0292200Y0372826D01*
X0292172Y0372671D01*
X0292141Y0372517D01*
X0292105Y0372363D01*
X0292066Y0372210D01*
X0292023Y0372059D01*
X0291976Y0371908D01*
X0291925Y0371759D01*
X0291870Y0371611D01*
X0291812Y0371464D01*
X0291750Y0371319D01*
X0291684Y0371176D01*
X0291615Y0371034D01*
X0291543Y0370894D01*
X0291466Y0370756D01*
X0291387Y0370620D01*
X0291303Y0370486D01*
X0291217Y0370354D01*
X0291127Y0370225D01*
X0291034Y0370097D01*
X0290938Y0369972D01*
X0290839Y0369850D01*
X0290736Y0369730D01*
X0290631Y0369612D01*
X0290523Y0369498D01*
X0290411Y0369386D01*
X0290297Y0369277D01*
X0290181Y0369171D01*
X0290061Y0369068D01*
X0289940Y0368968D01*
X0289815Y0368871D01*
X0289688Y0368777D01*
X0289559Y0368686D01*
X0289428Y0368599D01*
X0289295Y0368515D01*
X0289159Y0368434D01*
X0289021Y0368357D01*
X0288882Y0368284D01*
X0288741Y0368214D01*
X0288598Y0368147D01*
X0288453Y0368084D01*
X0288307Y0368025D01*
X0288159Y0367969D01*
X0288010Y0367918D01*
X0287860Y0367870D01*
X0287709Y0367826D01*
X0287556Y0367785D01*
X0287403Y0367749D01*
X0287248Y0367716D01*
X0287093Y0367687D01*
X0286938Y0367663D01*
X0286781Y0367642D01*
X0286625Y0367625D01*
X0286467Y0367612D01*
X0286310Y0367603D01*
X0286152Y0367598D01*
X0285995Y0367597D01*
X0285837Y0367600D01*
X0285679Y0367607D01*
X0285522Y0367618D01*
X0285365Y0367633D01*
X0285208Y0367652D01*
X0285052Y0367675D01*
X0284897Y0367701D01*
X0284742Y0367732D01*
X0284588Y0367766D01*
X0284435Y0367805D01*
X0284283Y0367847D01*
X0284133Y0367893D01*
X0283983Y0367943D01*
X0283835Y0367997D01*
X0283688Y0368054D01*
X0283542Y0368115D01*
X0283399Y0368180D01*
X0283256Y0368248D01*
X0283116Y0368320D01*
X0282978Y0368395D01*
X0282841Y0368474D01*
X0282706Y0368556D01*
X0282574Y0368642D01*
X0282444Y0368731D01*
X0282316Y0368823D01*
X0282190Y0368919D01*
X0282067Y0369017D01*
X0281947Y0369119D01*
X0281829Y0369224D01*
X0281713Y0369331D01*
X0281601Y0369442D01*
X0281491Y0369555D01*
X0281384Y0369671D01*
X0281280Y0369789D01*
X0281179Y0369911D01*
X0281082Y0370034D01*
X0280987Y0370161D01*
X0280896Y0370289D01*
X0280807Y0370420D01*
X0280723Y0370553D01*
X0280641Y0370688D01*
X0280563Y0370825D01*
X0280489Y0370964D01*
X0280418Y0371105D01*
X0280350Y0371247D01*
X0280287Y0371392D01*
X0280226Y0371537D01*
X0280170Y0371685D01*
X0280117Y0371833D01*
X0280068Y0371983D01*
X0280023Y0372134D01*
X0279982Y0372287D01*
X0279944Y0372440D01*
X0279911Y0372594D01*
X0279881Y0372749D01*
X0279855Y0372904D01*
X0279834Y0373061D01*
X0279816Y0373217D01*
X0279802Y0373374D01*
X0279792Y0373532D01*
X0279786Y0373689D01*
X0279784Y0373847D01*
D11*
X0293117Y0129651D02*
X0292350Y0128884D01*
X0292350Y0126582D01*
X0296954Y0126582D01*
X0296954Y0128884D01*
X0296187Y0129651D01*
X0293117Y0129651D01*
X0293885Y0125047D02*
X0296954Y0123513D01*
X0293885Y0121978D01*
X0294652Y0120443D02*
X0295419Y0120443D01*
X0295419Y0117374D01*
X0294652Y0117374D02*
X0293885Y0118141D01*
X0293885Y0119676D01*
X0294652Y0120443D01*
X0296954Y0119676D02*
X0296954Y0118141D01*
X0296187Y0117374D01*
X0294652Y0117374D01*
X0294652Y0115840D02*
X0295419Y0115072D01*
X0295419Y0112770D01*
X0296954Y0112770D02*
X0292350Y0112770D01*
X0292350Y0115072D01*
X0293117Y0115840D01*
X0294652Y0115840D01*
X0295419Y0114305D02*
X0296954Y0115840D01*
X0294652Y0111236D02*
X0294652Y0108166D01*
X0295419Y0106632D02*
X0296187Y0106632D01*
X0296954Y0105864D01*
X0296954Y0104330D01*
X0296187Y0103562D01*
X0295419Y0103562D01*
X0294652Y0104330D01*
X0294652Y0105864D01*
X0295419Y0106632D01*
X0294652Y0105864D02*
X0293885Y0106632D01*
X0293117Y0106632D01*
X0292350Y0105864D01*
X0292350Y0104330D01*
X0293117Y0103562D01*
X0293885Y0103562D01*
X0294652Y0104330D01*
X0296954Y0102028D02*
X0296954Y0098958D01*
X0296954Y0100493D02*
X0292350Y0100493D01*
X0293885Y0098958D01*
X0292350Y0097424D02*
X0296954Y0094355D01*
X0296187Y0092820D02*
X0296954Y0092053D01*
X0296954Y0090518D01*
X0296187Y0089751D01*
X0296187Y0088216D02*
X0296954Y0087449D01*
X0296954Y0085914D01*
X0296187Y0085147D01*
X0293117Y0088216D01*
X0296187Y0088216D01*
X0294652Y0089751D02*
X0293885Y0091285D01*
X0293885Y0092053D01*
X0294652Y0092820D01*
X0296187Y0092820D01*
X0294652Y0089751D02*
X0292350Y0089751D01*
X0292350Y0092820D01*
X0293117Y0088216D02*
X0292350Y0087449D01*
X0292350Y0085914D01*
X0293117Y0085147D01*
X0296187Y0085147D01*
X0084034Y0087734D02*
X0084034Y0088501D01*
X0083267Y0089269D01*
X0079430Y0089269D01*
X0079430Y0090036D02*
X0079430Y0088501D01*
X0083267Y0086967D02*
X0084034Y0087734D01*
X0084034Y0091571D02*
X0084034Y0092338D01*
X0083267Y0092338D01*
X0083267Y0091571D01*
X0084034Y0091571D01*
X0083267Y0093873D02*
X0084034Y0094640D01*
X0084034Y0096175D01*
X0083267Y0096942D01*
X0084034Y0098477D02*
X0079430Y0098477D01*
X0080965Y0099244D02*
X0081732Y0098477D01*
X0080965Y0099244D02*
X0080965Y0100778D01*
X0081732Y0101546D01*
X0084034Y0101546D01*
X0083267Y0103080D02*
X0084034Y0103848D01*
X0084034Y0105382D01*
X0083267Y0106150D01*
X0081732Y0106150D01*
X0080965Y0105382D01*
X0080965Y0103848D01*
X0081732Y0103080D01*
X0083267Y0103080D01*
X0084034Y0107684D02*
X0080965Y0107684D01*
X0080965Y0109986D01*
X0081732Y0110754D01*
X0084034Y0110754D01*
X0083267Y0112288D02*
X0084034Y0113056D01*
X0084034Y0115358D01*
X0084801Y0115358D02*
X0080965Y0115358D01*
X0080965Y0113056D01*
X0081732Y0112288D01*
X0083267Y0112288D01*
X0085568Y0113823D02*
X0085568Y0114590D01*
X0084801Y0115358D01*
X0080197Y0096942D02*
X0079430Y0096175D01*
X0079430Y0094640D01*
X0080197Y0093873D01*
X0083267Y0093873D01*
D12*
X0248575Y0178535D02*
X0252278Y0178535D01*
X0253513Y0179769D01*
X0252278Y0181003D01*
X0253513Y0182238D01*
X0252278Y0183472D01*
X0248575Y0183472D01*
X0248575Y0186453D02*
X0252278Y0186453D01*
X0253513Y0187688D01*
X0252278Y0188922D01*
X0253513Y0190156D01*
X0252278Y0191391D01*
X0248575Y0191391D01*
X0248575Y0194372D02*
X0252278Y0194372D01*
X0253513Y0195606D01*
X0252278Y0196841D01*
X0253513Y0198075D01*
X0252278Y0199310D01*
X0248575Y0199310D01*
X0252278Y0202291D02*
X0252278Y0203525D01*
X0253513Y0203525D01*
X0253513Y0202291D01*
X0252278Y0202291D01*
X0252278Y0206250D02*
X0251044Y0207485D01*
X0251044Y0211188D01*
X0249809Y0211188D02*
X0253513Y0211188D01*
X0253513Y0207485D01*
X0252278Y0206250D01*
X0248575Y0207485D02*
X0248575Y0209953D01*
X0249809Y0211188D01*
X0248575Y0214169D02*
X0248575Y0217872D01*
X0249809Y0219106D01*
X0253513Y0219106D01*
X0252278Y0222088D02*
X0251044Y0223322D01*
X0251044Y0227025D01*
X0249809Y0227025D02*
X0253513Y0227025D01*
X0253513Y0223322D01*
X0252278Y0222088D01*
X0248575Y0223322D02*
X0248575Y0225791D01*
X0249809Y0227025D01*
X0246106Y0230006D02*
X0246106Y0231241D01*
X0253513Y0231241D01*
X0253513Y0232475D02*
X0253513Y0230006D01*
X0252278Y0235286D02*
X0253513Y0236520D01*
X0253513Y0238989D01*
X0252278Y0240223D01*
X0249809Y0240223D01*
X0248575Y0238989D01*
X0248575Y0236520D01*
X0249809Y0235286D01*
X0252278Y0235286D01*
X0252278Y0243204D02*
X0253513Y0244439D01*
X0253513Y0248142D01*
X0254747Y0248142D02*
X0248575Y0248142D01*
X0248575Y0244439D01*
X0249809Y0243204D01*
X0252278Y0243204D01*
X0255981Y0245673D02*
X0255981Y0246908D01*
X0254747Y0248142D01*
X0253513Y0251123D02*
X0253513Y0252358D01*
X0252278Y0252358D01*
X0252278Y0251123D01*
X0253513Y0251123D01*
X0252278Y0255083D02*
X0253513Y0256317D01*
X0253513Y0260020D01*
X0252278Y0263001D02*
X0253513Y0264236D01*
X0253513Y0266704D01*
X0252278Y0267939D01*
X0249809Y0267939D01*
X0248575Y0266704D01*
X0248575Y0264236D01*
X0249809Y0263001D01*
X0252278Y0263001D01*
X0248575Y0260020D02*
X0248575Y0256317D01*
X0249809Y0255083D01*
X0252278Y0255083D01*
X0253513Y0270920D02*
X0248575Y0270920D01*
X0248575Y0272154D01*
X0249809Y0273389D01*
X0248575Y0274623D01*
X0249809Y0275858D01*
X0253513Y0275858D01*
X0253513Y0273389D02*
X0249809Y0273389D01*
X0253513Y0278839D02*
X0246106Y0283776D01*
X0247341Y0287992D02*
X0246106Y0289226D01*
X0247341Y0287992D02*
X0253513Y0287992D01*
X0249809Y0286758D02*
X0249809Y0289226D01*
X0248575Y0292037D02*
X0248575Y0293271D01*
X0253513Y0293271D01*
X0253513Y0292037D02*
X0253513Y0294506D01*
X0253513Y0297316D02*
X0248575Y0297316D01*
X0248575Y0299785D02*
X0248575Y0301019D01*
X0248575Y0299785D02*
X0251044Y0297316D01*
X0246106Y0293271D02*
X0244872Y0293271D01*
X0249809Y0303915D02*
X0248575Y0305149D01*
X0248575Y0308852D01*
X0251044Y0307618D02*
X0251044Y0305149D01*
X0249809Y0303915D01*
X0253513Y0303915D02*
X0253513Y0307618D01*
X0252278Y0308852D01*
X0251044Y0307618D01*
X0248575Y0311834D02*
X0248575Y0314302D01*
X0247341Y0313068D02*
X0252278Y0313068D01*
X0253513Y0314302D01*
X0253513Y0214169D02*
X0248575Y0214169D01*
D13*
X0116898Y0225035D03*
X0113398Y0230035D03*
X0113398Y0220035D03*
X0098398Y0229535D03*
X0098398Y0244035D03*
X0098898Y0278535D03*
X0098898Y0295035D03*
X0112898Y0200535D03*
X0097398Y0175035D03*
D14*
X0100898Y0177035D03*
X0101898Y0177535D03*
X0102398Y0177535D03*
X0103398Y0178035D03*
X0104898Y0178535D03*
X0106398Y0179035D03*
X0103898Y0171535D03*
X0103398Y0171535D03*
X0102398Y0172035D03*
X0101898Y0172035D03*
X0101398Y0172535D03*
X0100898Y0172535D03*
X0104898Y0171035D03*
X0105398Y0171035D03*
X0106398Y0170535D03*
X0107898Y0170035D03*
X0111898Y0168535D03*
X0113398Y0168035D03*
X0100898Y0219035D03*
X0100398Y0219035D03*
X0099898Y0219035D03*
X0102398Y0239535D03*
X0096398Y0245035D03*
X0095898Y0245035D03*
X0102898Y0255035D03*
X0103398Y0255035D03*
X0103898Y0255035D03*
X0104398Y0255035D03*
X0100898Y0255535D03*
X0095398Y0260535D03*
X0099898Y0264535D03*
X0100398Y0264535D03*
X0108898Y0265035D03*
X0109398Y0265035D03*
X0109898Y0265035D03*
X0110398Y0265035D03*
X0110898Y0265035D03*
X0111398Y0265035D03*
X0111898Y0265035D03*
X0112398Y0264535D03*
X0116898Y0260035D03*
X0111898Y0255535D03*
X0111398Y0255535D03*
X0107898Y0271035D03*
X0106398Y0272035D03*
X0105898Y0272535D03*
X0104398Y0273535D03*
X0102898Y0274535D03*
X0102898Y0279535D03*
X0102398Y0279535D03*
X0103398Y0279535D03*
X0103898Y0279535D03*
X0104398Y0279535D03*
X0104898Y0279535D03*
X0105398Y0279535D03*
X0105898Y0279535D03*
X0106398Y0279535D03*
X0106898Y0279535D03*
X0107398Y0279535D03*
X0107898Y0279535D03*
X0108398Y0279535D03*
X0112398Y0279535D03*
X0112898Y0279535D03*
X0113398Y0279535D03*
X0113898Y0279535D03*
X0114398Y0279535D03*
X0114898Y0279535D03*
X0115398Y0279535D03*
X0115898Y0279535D03*
X0116398Y0279535D03*
X0107898Y0287535D03*
X0106398Y0288535D03*
X0105898Y0289035D03*
X0104398Y0290035D03*
X0102898Y0291035D03*
X0102898Y0296035D03*
X0102398Y0296035D03*
X0103398Y0296035D03*
X0103898Y0296035D03*
X0104398Y0296035D03*
X0104898Y0296035D03*
X0105398Y0296035D03*
X0105898Y0296035D03*
X0106398Y0296035D03*
X0106898Y0296035D03*
X0107398Y0296035D03*
X0107898Y0296035D03*
X0108398Y0296035D03*
X0112398Y0296035D03*
X0112898Y0296035D03*
X0113398Y0296035D03*
X0113898Y0296035D03*
X0114398Y0296035D03*
X0114898Y0296035D03*
X0115398Y0296035D03*
X0115898Y0296035D03*
X0116398Y0296035D03*
X0111898Y0304535D03*
X0111398Y0304535D03*
X0109898Y0304535D03*
X0109398Y0304535D03*
X0108898Y0304535D03*
X0107898Y0305035D03*
X0102898Y0305035D03*
X0102398Y0305035D03*
X0099898Y0305035D03*
X0102898Y0313035D03*
X0101898Y0313535D03*
X0101398Y0313535D03*
X0100898Y0313535D03*
X0100398Y0313535D03*
X0099898Y0313535D03*
X0108898Y0314035D03*
X0109398Y0314035D03*
X0109898Y0314035D03*
X0110398Y0314035D03*
X0110898Y0314035D03*
X0111398Y0314035D03*
X0111898Y0314035D03*
X0096398Y0296035D03*
X0095898Y0296035D03*
X0095898Y0279535D03*
X0096398Y0279535D03*
D15*
X0096898Y0279285D03*
X0099398Y0264285D03*
X0098898Y0263785D03*
X0107398Y0264285D03*
X0107898Y0264785D03*
X0108398Y0264785D03*
X0112898Y0264285D03*
X0112898Y0256285D03*
X0112398Y0255785D03*
X0110898Y0255285D03*
X0110398Y0255285D03*
X0109898Y0255285D03*
X0109398Y0255285D03*
X0108898Y0255285D03*
X0108398Y0255285D03*
X0102398Y0255285D03*
X0101898Y0255285D03*
X0101398Y0255285D03*
X0100398Y0255785D03*
X0099898Y0255785D03*
X0099398Y0256285D03*
X0096898Y0244785D03*
X0101898Y0244785D03*
X0102398Y0244785D03*
X0102898Y0244785D03*
X0103398Y0244785D03*
X0103898Y0244785D03*
X0104398Y0244785D03*
X0104898Y0244785D03*
X0105398Y0244785D03*
X0105898Y0244785D03*
X0106398Y0244785D03*
X0106898Y0244785D03*
X0107398Y0244785D03*
X0107898Y0244785D03*
X0108398Y0244785D03*
X0108898Y0244785D03*
X0109398Y0244785D03*
X0109898Y0244785D03*
X0110398Y0244785D03*
X0110898Y0244785D03*
X0111398Y0244785D03*
X0111898Y0244785D03*
X0112398Y0244785D03*
X0112898Y0244785D03*
X0113398Y0244785D03*
X0113898Y0244785D03*
X0114398Y0244785D03*
X0114898Y0244785D03*
X0115398Y0244785D03*
X0115898Y0244785D03*
X0116398Y0244785D03*
X0101898Y0239785D03*
X0100898Y0230785D03*
X0100398Y0230785D03*
X0099398Y0230285D03*
X0109898Y0231285D03*
X0110398Y0231285D03*
X0110898Y0231285D03*
X0111398Y0231285D03*
X0111898Y0231285D03*
X0112398Y0230785D03*
X0111898Y0218785D03*
X0111398Y0218785D03*
X0110898Y0218285D03*
X0110398Y0218285D03*
X0110398Y0210785D03*
X0109898Y0210785D03*
X0109398Y0210785D03*
X0108898Y0210785D03*
X0108398Y0210785D03*
X0107898Y0210785D03*
X0107398Y0210785D03*
X0106898Y0210785D03*
X0106398Y0210785D03*
X0105898Y0210785D03*
X0105398Y0210785D03*
X0104898Y0210785D03*
X0104398Y0210785D03*
X0103898Y0210785D03*
X0103398Y0210785D03*
X0102898Y0210785D03*
X0102398Y0210785D03*
X0101898Y0210785D03*
X0101398Y0210785D03*
X0100898Y0210785D03*
X0100398Y0210785D03*
X0099898Y0210785D03*
X0099398Y0210785D03*
X0098898Y0210785D03*
X0098398Y0210785D03*
X0097898Y0210785D03*
X0097398Y0210785D03*
X0096898Y0210785D03*
X0096398Y0210785D03*
X0095898Y0210785D03*
X0095398Y0210785D03*
X0099398Y0219285D03*
X0101398Y0219285D03*
X0110898Y0210785D03*
X0111398Y0210785D03*
X0111898Y0210785D03*
X0112398Y0210785D03*
X0112898Y0210785D03*
X0113398Y0210785D03*
X0113898Y0210785D03*
X0114398Y0210785D03*
X0114898Y0210785D03*
X0115398Y0210785D03*
X0115898Y0210785D03*
X0116398Y0210785D03*
X0110898Y0202285D03*
X0110398Y0202285D03*
X0109898Y0202285D03*
X0109398Y0202785D03*
X0108898Y0202785D03*
X0108398Y0202785D03*
X0107898Y0202785D03*
X0107398Y0202785D03*
X0106898Y0202785D03*
X0106398Y0202785D03*
X0105898Y0202785D03*
X0105398Y0202785D03*
X0104898Y0202785D03*
X0104398Y0202785D03*
X0103898Y0202785D03*
X0103398Y0202785D03*
X0102898Y0202785D03*
X0102398Y0202285D03*
X0101898Y0202285D03*
X0101398Y0202285D03*
X0100398Y0201785D03*
X0111398Y0201785D03*
X0111398Y0189285D03*
X0110898Y0189285D03*
X0110398Y0189285D03*
X0109898Y0189285D03*
X0109398Y0189285D03*
X0108898Y0189285D03*
X0108398Y0189285D03*
X0107898Y0189285D03*
X0107398Y0189285D03*
X0106898Y0189285D03*
X0106398Y0189285D03*
X0105898Y0189285D03*
X0105398Y0189285D03*
X0104898Y0189285D03*
X0104398Y0189285D03*
X0103898Y0189285D03*
X0103398Y0189285D03*
X0102898Y0189285D03*
X0102398Y0189285D03*
X0101898Y0189285D03*
X0101398Y0189285D03*
X0100898Y0189285D03*
X0100398Y0189285D03*
X0099898Y0189285D03*
X0099398Y0189285D03*
X0098898Y0189285D03*
X0111898Y0189285D03*
X0112398Y0189285D03*
X0112898Y0189285D03*
X0114898Y0182285D03*
X0115398Y0182285D03*
X0113898Y0181785D03*
X0113398Y0181785D03*
X0112898Y0181285D03*
X0112398Y0181285D03*
X0111898Y0181285D03*
X0107898Y0179785D03*
X0107398Y0179285D03*
X0106898Y0179285D03*
X0105898Y0178785D03*
X0105398Y0178785D03*
X0104398Y0178285D03*
X0103898Y0178285D03*
X0102898Y0177785D03*
X0101398Y0177285D03*
X0095898Y0174785D03*
X0095398Y0174785D03*
X0102898Y0171785D03*
X0104398Y0171285D03*
X0105898Y0170785D03*
X0106898Y0170285D03*
X0107398Y0170285D03*
X0112398Y0168285D03*
X0112898Y0168285D03*
X0113898Y0167785D03*
X0114398Y0167785D03*
X0114898Y0167285D03*
X0115398Y0167285D03*
X0115898Y0167285D03*
X0116398Y0166785D03*
X0096898Y0295785D03*
X0108398Y0304785D03*
X0110398Y0304285D03*
X0110898Y0304285D03*
X0112398Y0304785D03*
X0103398Y0305785D03*
X0099398Y0305285D03*
X0095398Y0309285D03*
X0098898Y0312785D03*
X0099398Y0313285D03*
X0103398Y0312785D03*
X0107898Y0313285D03*
X0108398Y0313785D03*
X0112398Y0313785D03*
X0116898Y0309285D03*
D16*
X0114398Y0309285D03*
X0106898Y0309285D03*
X0097898Y0309285D03*
X0098398Y0260285D03*
X0113898Y0260285D03*
X0114398Y0260285D03*
X0104398Y0223785D03*
X0095398Y0192785D03*
X0116398Y0192785D03*
D17*
X0116398Y0225035D03*
X0100398Y0242535D03*
D18*
X0098898Y0243785D03*
X0106898Y0255785D03*
X0116398Y0260285D03*
X0095898Y0260285D03*
X0099398Y0278285D03*
X0099898Y0278285D03*
X0099898Y0294785D03*
X0099398Y0294785D03*
X0108398Y0230285D03*
X0102398Y0220285D03*
X0098898Y0200285D03*
X0098398Y0174785D03*
X0097898Y0174785D03*
D19*
X0098898Y0174785D03*
X0099398Y0174785D03*
X0099898Y0174785D03*
X0102898Y0221285D03*
X0107898Y0229285D03*
X0100898Y0277785D03*
X0100898Y0294285D03*
X0105398Y0309285D03*
X0116398Y0309285D03*
D20*
X0113398Y0313035D03*
X0112898Y0313535D03*
X0107398Y0313035D03*
X0107398Y0305535D03*
X0112898Y0305035D03*
X0098898Y0305535D03*
X0097398Y0295535D03*
X0097398Y0279035D03*
X0106898Y0264035D03*
X0113398Y0264035D03*
X0113398Y0256535D03*
X0107898Y0255535D03*
X0098898Y0256535D03*
X0097398Y0244535D03*
X0109398Y0231035D03*
X0112898Y0230535D03*
X0099898Y0230535D03*
X0098898Y0230035D03*
X0098898Y0219535D03*
X0101898Y0219535D03*
X0112398Y0219035D03*
X0112898Y0219535D03*
X0100898Y0202035D03*
X0099898Y0201535D03*
X0099398Y0201035D03*
X0111898Y0201535D03*
X0112398Y0201035D03*
X0115898Y0182535D03*
X0114398Y0182035D03*
D21*
X0115898Y0193535D03*
X0095898Y0193535D03*
X0096898Y0225035D03*
X0105398Y0259035D03*
D22*
X0115898Y0225035D03*
X0114898Y0309035D03*
D23*
X0115898Y0309285D03*
X0104898Y0309285D03*
X0096398Y0309285D03*
X0115898Y0260285D03*
X0095398Y0224785D03*
X0100398Y0174785D03*
D24*
X0096398Y0194035D03*
X0115398Y0194035D03*
X0114398Y0225035D03*
D25*
X0115398Y0225035D03*
X0106398Y0226535D03*
X0105898Y0226035D03*
X0104898Y0224535D03*
X0096398Y0225035D03*
X0104898Y0259035D03*
X0098398Y0309035D03*
D26*
X0096898Y0309285D03*
X0104398Y0309285D03*
X0105898Y0309285D03*
X0096898Y0260285D03*
X0115398Y0260285D03*
X0101398Y0242285D03*
X0100898Y0242285D03*
X0107398Y0228285D03*
X0103398Y0222285D03*
D27*
X0115398Y0309035D03*
D28*
X0097898Y0224785D03*
X0096898Y0194285D03*
X0114898Y0194285D03*
X0108898Y0174785D03*
X0108398Y0174785D03*
D29*
X0114898Y0224785D03*
X0097398Y0224785D03*
X0105898Y0259285D03*
X0106398Y0259285D03*
D30*
X0097898Y0260285D03*
X0097398Y0260285D03*
X0114898Y0260285D03*
X0106898Y0227285D03*
X0103898Y0223285D03*
X0095898Y0224785D03*
X0097398Y0309285D03*
X0103898Y0309285D03*
X0106398Y0309285D03*
D31*
X0113898Y0225035D03*
X0114398Y0194535D03*
X0097398Y0194535D03*
X0109398Y0175035D03*
D32*
X0109898Y0174785D03*
X0113898Y0194785D03*
X0097898Y0194785D03*
X0108898Y0276285D03*
X0109398Y0276285D03*
X0109898Y0276285D03*
X0110398Y0276285D03*
X0110898Y0276285D03*
X0111398Y0276285D03*
X0111898Y0276285D03*
X0111898Y0292785D03*
X0111398Y0292785D03*
X0110898Y0292785D03*
X0110398Y0292785D03*
X0109898Y0292785D03*
X0109398Y0292785D03*
X0108898Y0292785D03*
D33*
X0113898Y0309285D03*
X0105398Y0225285D03*
D34*
X0098398Y0195035D03*
X0113398Y0195035D03*
X0110398Y0175035D03*
D35*
X0096898Y0174785D03*
X0096398Y0174785D03*
X0098398Y0220285D03*
X0094898Y0224785D03*
X0108898Y0230785D03*
X0097898Y0244285D03*
X0107398Y0255285D03*
X0103898Y0260785D03*
X0098398Y0278785D03*
X0097898Y0278785D03*
X0097898Y0295285D03*
X0098398Y0295285D03*
X0113398Y0305285D03*
D36*
X0111398Y0174785D03*
X0110898Y0174785D03*
D37*
X0109898Y0219285D03*
X0103398Y0238785D03*
X0100898Y0263785D03*
D38*
X0103398Y0260785D03*
X0108398Y0270785D03*
X0107398Y0271285D03*
X0106898Y0271785D03*
X0105398Y0272785D03*
X0104898Y0273285D03*
X0103898Y0273785D03*
X0103398Y0274285D03*
X0102398Y0274785D03*
X0108398Y0287285D03*
X0107398Y0287785D03*
X0106898Y0288285D03*
X0105398Y0289285D03*
X0104898Y0289785D03*
X0103898Y0290285D03*
X0103398Y0290785D03*
X0102398Y0291285D03*
X0101898Y0304785D03*
X0101398Y0304785D03*
X0100898Y0304785D03*
X0100398Y0304785D03*
X0102398Y0313285D03*
X0095398Y0245285D03*
X0102898Y0239285D03*
D39*
X0104398Y0237785D03*
D40*
X0099398Y0243535D03*
X0104398Y0261035D03*
X0100398Y0278035D03*
X0100398Y0294535D03*
X0095898Y0309035D03*
D41*
X0103898Y0238285D03*
D42*
X0099898Y0243035D03*
X0096398Y0260535D03*
X0101398Y0277535D03*
X0101898Y0277535D03*
X0101898Y0294035D03*
X0101398Y0294035D03*
D43*
X0142547Y0170114D02*
X0142547Y0164276D01*
X0143714Y0163108D01*
X0146050Y0163108D01*
X0147217Y0164276D01*
X0147217Y0170114D01*
X0149545Y0167779D02*
X0151880Y0170114D01*
X0151880Y0163108D01*
X0149545Y0163108D02*
X0154215Y0163108D01*
X0151425Y0152783D02*
X0150691Y0152783D01*
X0149223Y0151315D01*
X0149223Y0149847D02*
X0149223Y0152783D01*
X0147555Y0152049D02*
X0146821Y0152783D01*
X0145353Y0152783D01*
X0144620Y0152049D01*
X0144620Y0150581D01*
X0145353Y0149847D01*
X0146821Y0149847D01*
X0147555Y0150581D01*
X0147555Y0152049D01*
X0142951Y0152783D02*
X0140750Y0152783D01*
X0140016Y0152049D01*
X0140750Y0151315D01*
X0142217Y0151315D01*
X0142951Y0150581D01*
X0142217Y0149847D01*
X0140016Y0149847D01*
X0138348Y0149847D02*
X0138348Y0152049D01*
X0137614Y0152783D01*
X0135412Y0152783D01*
X0135412Y0149847D01*
X0133744Y0151315D02*
X0130808Y0151315D01*
X0130808Y0152049D02*
X0131542Y0152783D01*
X0133010Y0152783D01*
X0133744Y0152049D01*
X0133744Y0151315D01*
X0133010Y0149847D02*
X0131542Y0149847D01*
X0130808Y0150581D01*
X0130808Y0152049D01*
X0129140Y0151315D02*
X0129140Y0150581D01*
X0128406Y0149847D01*
X0126938Y0149847D01*
X0126204Y0150581D01*
X0126938Y0152049D02*
X0128406Y0152049D01*
X0129140Y0151315D01*
X0129140Y0153516D02*
X0128406Y0154250D01*
X0126938Y0154250D01*
X0126204Y0153516D01*
X0126204Y0152783D01*
X0126938Y0152049D01*
X0126204Y0146750D02*
X0128406Y0146750D01*
X0129140Y0146016D01*
X0129140Y0144549D01*
X0128406Y0143815D01*
X0126204Y0143815D01*
X0127672Y0143815D02*
X0129140Y0142347D01*
X0130808Y0143081D02*
X0130808Y0144549D01*
X0131542Y0145283D01*
X0133010Y0145283D01*
X0133744Y0144549D01*
X0133744Y0143815D01*
X0130808Y0143815D01*
X0130808Y0143081D02*
X0131542Y0142347D01*
X0133010Y0142347D01*
X0135412Y0143081D02*
X0136146Y0143815D01*
X0138348Y0143815D01*
X0138348Y0144549D02*
X0138348Y0142347D01*
X0136146Y0142347D01*
X0135412Y0143081D01*
X0136146Y0145283D02*
X0137614Y0145283D01*
X0138348Y0144549D01*
X0140016Y0144549D02*
X0140750Y0145283D01*
X0142951Y0145283D01*
X0142951Y0146750D02*
X0142951Y0142347D01*
X0140750Y0142347D01*
X0140016Y0143081D01*
X0140016Y0144549D01*
X0144620Y0145283D02*
X0144620Y0143081D01*
X0145353Y0142347D01*
X0147555Y0142347D01*
X0147555Y0141613D02*
X0146821Y0140879D01*
X0146087Y0140879D01*
X0147555Y0141613D02*
X0147555Y0145283D01*
X0149223Y0146016D02*
X0149957Y0146750D01*
X0151425Y0146750D01*
X0152159Y0146016D01*
X0152159Y0145283D01*
X0150691Y0143815D01*
X0150691Y0143081D02*
X0150691Y0142347D01*
X0147821Y0127783D02*
X0147087Y0127783D01*
X0145620Y0126315D01*
X0145620Y0124847D02*
X0145620Y0127783D01*
X0143951Y0127049D02*
X0143217Y0127783D01*
X0141750Y0127783D01*
X0141016Y0127049D01*
X0141016Y0125581D01*
X0141750Y0124847D01*
X0143217Y0124847D01*
X0143951Y0126315D02*
X0141016Y0126315D01*
X0139348Y0125581D02*
X0139348Y0127783D01*
X0139348Y0125581D02*
X0138614Y0124847D01*
X0137880Y0125581D01*
X0137146Y0124847D01*
X0136412Y0125581D01*
X0136412Y0127783D01*
X0134744Y0127049D02*
X0134010Y0127783D01*
X0132542Y0127783D01*
X0131808Y0127049D01*
X0131808Y0125581D01*
X0132542Y0124847D01*
X0134010Y0124847D01*
X0134744Y0125581D01*
X0134744Y0127049D01*
X0130140Y0127049D02*
X0129406Y0126315D01*
X0127204Y0126315D01*
X0127204Y0124847D02*
X0127204Y0129250D01*
X0129406Y0129250D01*
X0130140Y0128516D01*
X0130140Y0127049D01*
X0143951Y0127049D02*
X0143951Y0126315D01*
X0126204Y0142347D02*
X0126204Y0146750D01*
X0101747Y0105993D02*
X0101747Y0101722D01*
X0101747Y0103858D02*
X0095342Y0103858D01*
X0097477Y0101722D01*
X0095342Y0099547D02*
X0095342Y0097412D01*
X0095342Y0098480D02*
X0100680Y0098480D01*
X0101747Y0097412D01*
X0101747Y0096345D01*
X0100680Y0095277D01*
D44*
X0118005Y0330213D03*
X0118005Y0330507D03*
X0118305Y0331095D03*
X0118595Y0331978D03*
X0118895Y0333448D03*
X0119185Y0333742D03*
X0119185Y0334331D03*
X0121535Y0335213D03*
X0121535Y0335507D03*
X0121535Y0335801D03*
X0121835Y0334625D03*
X0121835Y0334331D03*
X0123005Y0330801D03*
X0123005Y0330507D03*
X0123005Y0330213D03*
X0138005Y0331095D03*
X0138305Y0331978D03*
X0138895Y0333742D03*
X0139185Y0334331D03*
X0139185Y0334625D03*
X0139185Y0334919D03*
X0141245Y0335213D03*
X0141245Y0335507D03*
X0141245Y0335801D03*
X0141535Y0334919D03*
X0141535Y0334625D03*
X0141535Y0334331D03*
X0141835Y0333742D03*
X0141835Y0333448D03*
X0149185Y0331978D03*
X0149185Y0331684D03*
X0149185Y0336684D03*
X0170655Y0336684D03*
X0170655Y0336978D03*
X0170655Y0336095D03*
X0170945Y0335801D03*
X0170945Y0335507D03*
X0170945Y0335213D03*
X0170945Y0334919D03*
X0171245Y0334625D03*
X0171245Y0334331D03*
X0171245Y0333742D03*
X0171535Y0333154D03*
X0171535Y0332860D03*
X0171535Y0332566D03*
X0173305Y0332860D03*
X0173305Y0333154D03*
X0173305Y0333448D03*
X0173595Y0333742D03*
X0178005Y0335507D03*
X0178005Y0335801D03*
X0178005Y0336095D03*
X0178305Y0336684D03*
X0178305Y0336978D03*
X0178305Y0337272D03*
X0178595Y0337860D03*
X0178595Y0338154D03*
X0180655Y0338154D03*
X0180655Y0337860D03*
X0180655Y0337566D03*
X0180655Y0337272D03*
X0180655Y0336978D03*
X0180655Y0336684D03*
X0180655Y0336095D03*
X0180655Y0335801D03*
X0180655Y0335507D03*
X0180655Y0335213D03*
X0180655Y0334919D03*
X0180655Y0333448D03*
X0180655Y0333154D03*
X0180655Y0332860D03*
X0180655Y0332566D03*
X0180655Y0332272D03*
X0180655Y0331978D03*
X0180655Y0331684D03*
X0180655Y0331095D03*
X0180655Y0330801D03*
X0180655Y0330507D03*
X0180655Y0330213D03*
X0188305Y0333448D03*
X0188305Y0333742D03*
X0188595Y0334331D03*
X0188595Y0334625D03*
X0188895Y0334919D03*
X0188895Y0335213D03*
X0188895Y0335507D03*
X0190945Y0335213D03*
X0190945Y0334919D03*
X0190945Y0334625D03*
X0191245Y0334331D03*
X0191245Y0333742D03*
X0191535Y0333448D03*
X0191835Y0331978D03*
X0199185Y0336978D03*
X0199185Y0337272D03*
X0199185Y0337566D03*
X0199185Y0337860D03*
X0199185Y0338154D03*
X0201245Y0336095D03*
X0201245Y0335801D03*
X0201245Y0332566D03*
X0201245Y0332272D03*
X0201245Y0331978D03*
X0205655Y0332566D03*
X0205655Y0332860D03*
X0221835Y0332860D03*
X0221835Y0332566D03*
X0221835Y0332272D03*
X0221835Y0331978D03*
X0221835Y0333154D03*
X0221835Y0335213D03*
X0221835Y0335507D03*
X0221835Y0335801D03*
X0221835Y0336095D03*
X0228595Y0336095D03*
X0230945Y0336095D03*
X0230945Y0335801D03*
X0231245Y0336684D03*
X0230945Y0332566D03*
X0230945Y0332272D03*
X0231245Y0331684D03*
X0228895Y0332566D03*
X0228595Y0331978D03*
X0238005Y0331978D03*
X0238005Y0331684D03*
X0238005Y0332272D03*
X0238005Y0332566D03*
X0238005Y0332860D03*
X0238005Y0333154D03*
X0238005Y0333448D03*
X0238005Y0333742D03*
X0238005Y0334331D03*
X0238005Y0334625D03*
X0238005Y0334919D03*
X0238005Y0335213D03*
X0238005Y0335507D03*
X0238005Y0335801D03*
X0238005Y0336095D03*
X0238005Y0336684D03*
X0238005Y0336978D03*
X0238005Y0337272D03*
X0238005Y0337566D03*
X0238005Y0337860D03*
X0238005Y0338154D03*
X0240655Y0336684D03*
X0240655Y0336095D03*
X0240655Y0335801D03*
X0240655Y0335507D03*
X0240655Y0335213D03*
X0240655Y0334919D03*
X0240655Y0333448D03*
X0240655Y0333154D03*
X0240655Y0332860D03*
X0240655Y0332566D03*
X0240655Y0332272D03*
X0240655Y0331978D03*
X0240655Y0331684D03*
X0238005Y0331095D03*
X0238005Y0330801D03*
X0238005Y0330507D03*
X0238005Y0330213D03*
X0261535Y0336978D03*
X0261535Y0337272D03*
X0263595Y0336684D03*
X0120655Y0338154D03*
D45*
X0125215Y0338154D03*
X0125215Y0337860D03*
X0125215Y0337566D03*
X0125215Y0337272D03*
X0125215Y0336978D03*
X0125215Y0336684D03*
X0125215Y0336095D03*
X0125215Y0335801D03*
X0125215Y0335507D03*
X0125215Y0335213D03*
X0125215Y0334919D03*
X0125215Y0333448D03*
X0125215Y0333154D03*
X0125215Y0332860D03*
X0125215Y0332566D03*
X0125215Y0332272D03*
X0125215Y0331978D03*
X0125215Y0331684D03*
X0125215Y0331095D03*
X0125215Y0330801D03*
X0125215Y0330507D03*
X0125215Y0330213D03*
X0235215Y0336095D03*
D46*
X0235065Y0336684D03*
X0235365Y0333154D03*
X0235365Y0332860D03*
X0235365Y0332566D03*
X0235365Y0332272D03*
X0245065Y0332272D03*
X0245065Y0332566D03*
X0245065Y0332860D03*
X0244775Y0335213D03*
X0244775Y0335507D03*
X0244775Y0335801D03*
X0244775Y0336095D03*
X0252715Y0336095D03*
X0252715Y0335801D03*
X0252715Y0335507D03*
X0252715Y0335213D03*
X0252715Y0334919D03*
X0252715Y0333448D03*
X0252715Y0333154D03*
X0252715Y0332860D03*
X0252715Y0332566D03*
X0252715Y0332272D03*
X0252715Y0331978D03*
X0252715Y0331684D03*
X0252715Y0336684D03*
X0262715Y0336095D03*
X0262715Y0335801D03*
X0224475Y0335801D03*
X0224475Y0336095D03*
X0222125Y0334919D03*
X0222125Y0334625D03*
X0222125Y0334331D03*
X0222125Y0333742D03*
X0222125Y0333448D03*
X0224475Y0332566D03*
X0224475Y0332272D03*
X0224475Y0331978D03*
X0217125Y0332860D03*
X0217125Y0333154D03*
X0217125Y0333448D03*
X0217125Y0333742D03*
X0217125Y0334331D03*
X0217125Y0334625D03*
X0217125Y0334919D03*
X0217125Y0335213D03*
X0217125Y0335507D03*
X0215065Y0335507D03*
X0214775Y0334919D03*
X0214775Y0336095D03*
X0205365Y0336095D03*
X0205365Y0331978D03*
X0195365Y0331978D03*
X0195365Y0331684D03*
X0195365Y0332272D03*
X0195365Y0332566D03*
X0195365Y0332860D03*
X0195365Y0333154D03*
X0195365Y0333448D03*
X0195365Y0333742D03*
X0195365Y0334331D03*
X0195365Y0334625D03*
X0195365Y0334919D03*
X0195365Y0335213D03*
X0195365Y0335507D03*
X0195365Y0335801D03*
X0195365Y0336095D03*
X0195365Y0336684D03*
X0195365Y0331095D03*
X0195365Y0330801D03*
X0195365Y0330507D03*
X0195365Y0330213D03*
X0192125Y0331095D03*
X0187715Y0331684D03*
X0185065Y0331684D03*
X0185065Y0331978D03*
X0185065Y0332272D03*
X0185065Y0332566D03*
X0185065Y0332860D03*
X0185065Y0333154D03*
X0185065Y0333448D03*
X0185065Y0334919D03*
X0185065Y0335213D03*
X0185065Y0335507D03*
X0185065Y0335801D03*
X0185065Y0336095D03*
X0185065Y0336684D03*
X0185065Y0336978D03*
X0185065Y0337272D03*
X0185065Y0337566D03*
X0185065Y0337860D03*
X0185065Y0338154D03*
X0177715Y0335213D03*
X0177715Y0334919D03*
X0177715Y0334625D03*
X0175365Y0333742D03*
X0175365Y0333448D03*
X0175365Y0333154D03*
X0174475Y0336684D03*
X0170365Y0337272D03*
X0170365Y0337566D03*
X0170365Y0337860D03*
X0170365Y0338154D03*
X0159475Y0336095D03*
X0159475Y0335801D03*
X0159475Y0335507D03*
X0159475Y0335213D03*
X0159475Y0334919D03*
X0159475Y0334625D03*
X0159475Y0334331D03*
X0159475Y0333742D03*
X0159475Y0333448D03*
X0159475Y0333154D03*
X0159475Y0332860D03*
X0159475Y0332566D03*
X0159475Y0332272D03*
X0159475Y0331978D03*
X0155065Y0331978D03*
X0154775Y0332566D03*
X0154775Y0332860D03*
X0154775Y0333154D03*
X0154775Y0333448D03*
X0154775Y0333742D03*
X0154775Y0334331D03*
X0154775Y0334625D03*
X0154775Y0334919D03*
X0154775Y0335213D03*
X0154775Y0335507D03*
X0154775Y0335801D03*
X0149475Y0335801D03*
X0149475Y0335507D03*
X0149475Y0335213D03*
X0149475Y0334919D03*
X0149475Y0334625D03*
X0149475Y0334331D03*
X0149475Y0333742D03*
X0149475Y0333448D03*
X0149475Y0333154D03*
X0149475Y0332860D03*
X0149475Y0332566D03*
X0149475Y0332272D03*
X0149475Y0336095D03*
X0145065Y0336095D03*
X0145065Y0335801D03*
X0145065Y0335507D03*
X0145065Y0335213D03*
X0145065Y0334919D03*
X0145065Y0334625D03*
X0145065Y0334331D03*
X0145065Y0333742D03*
X0145065Y0333448D03*
X0145065Y0333154D03*
X0145065Y0332860D03*
X0145065Y0332566D03*
X0145065Y0332272D03*
X0145065Y0331978D03*
X0145065Y0331684D03*
X0142715Y0331095D03*
X0142715Y0330801D03*
X0137715Y0330507D03*
X0137715Y0330213D03*
X0139475Y0335213D03*
X0139475Y0335507D03*
X0139475Y0335801D03*
X0140365Y0338154D03*
X0145065Y0336684D03*
X0129775Y0336684D03*
X0129775Y0336978D03*
X0129775Y0337272D03*
X0129775Y0337566D03*
X0129775Y0337860D03*
X0129775Y0338154D03*
X0129775Y0336095D03*
X0129775Y0335801D03*
X0129775Y0335507D03*
X0129775Y0335213D03*
X0129775Y0334919D03*
X0129775Y0333448D03*
X0129775Y0333154D03*
X0129775Y0332860D03*
X0129775Y0332566D03*
X0129775Y0332272D03*
X0129775Y0331978D03*
X0129775Y0331684D03*
X0129775Y0331095D03*
X0129775Y0330801D03*
X0129775Y0330507D03*
X0129775Y0330213D03*
X0122715Y0331684D03*
X0122125Y0333448D03*
X0122125Y0333742D03*
X0119475Y0334625D03*
X0119475Y0334919D03*
X0119475Y0335213D03*
X0119775Y0335507D03*
X0119775Y0335801D03*
X0185065Y0331095D03*
X0185065Y0330801D03*
X0185065Y0330507D03*
X0185065Y0330213D03*
D47*
X0189770Y0332860D03*
X0203300Y0331095D03*
X0203300Y0337272D03*
X0212710Y0337272D03*
X0212710Y0333742D03*
X0219480Y0330801D03*
X0226540Y0331095D03*
X0226540Y0337272D03*
X0233300Y0337272D03*
X0233300Y0331095D03*
X0242420Y0330507D03*
X0242420Y0334331D03*
X0254480Y0336978D03*
X0254480Y0337272D03*
X0254480Y0337566D03*
X0254480Y0337860D03*
X0254480Y0338154D03*
X0249770Y0344491D03*
X0253890Y0347432D03*
X0254480Y0351256D03*
X0253300Y0359491D03*
X0245950Y0359491D03*
X0253600Y0369785D03*
X0252130Y0380667D03*
X0226830Y0380373D03*
X0202710Y0381550D03*
X0202710Y0381844D03*
X0202710Y0382138D03*
X0182130Y0381844D03*
X0191830Y0368314D03*
X0174180Y0358314D03*
X0173890Y0348020D03*
X0164180Y0338154D03*
X0164180Y0337860D03*
X0164180Y0337566D03*
X0164180Y0337272D03*
X0164180Y0336978D03*
X0157130Y0330801D03*
X0146830Y0330507D03*
X0140360Y0332860D03*
X0140360Y0333154D03*
X0134180Y0331095D03*
X0134180Y0330801D03*
X0134180Y0330507D03*
X0134180Y0330213D03*
X0134180Y0336978D03*
X0134180Y0337272D03*
X0134180Y0337566D03*
X0134180Y0337860D03*
X0134180Y0338154D03*
X0146830Y0337566D03*
X0120660Y0332860D03*
X0200360Y0346844D03*
X0217710Y0347726D03*
X0225660Y0347432D03*
X0225660Y0359197D03*
X0217420Y0359197D03*
X0217130Y0358903D03*
X0226830Y0369197D03*
X0254480Y0331095D03*
X0254480Y0330801D03*
X0254480Y0330507D03*
X0254480Y0330213D03*
D48*
X0244920Y0331684D03*
X0244920Y0331978D03*
X0244920Y0333154D03*
X0228450Y0333448D03*
X0228450Y0331684D03*
X0228450Y0336684D03*
X0214920Y0335801D03*
X0214920Y0335213D03*
X0205510Y0333154D03*
X0205510Y0332272D03*
X0201390Y0331684D03*
X0201390Y0335507D03*
X0201390Y0336684D03*
X0190800Y0335507D03*
X0189920Y0337566D03*
X0189920Y0337860D03*
X0189920Y0338154D03*
X0178450Y0337566D03*
X0174330Y0336095D03*
X0176390Y0330801D03*
X0176390Y0330507D03*
X0176390Y0330213D03*
X0159330Y0331684D03*
X0154920Y0332272D03*
X0154920Y0336095D03*
X0159330Y0336684D03*
X0142860Y0330507D03*
X0142860Y0330213D03*
X0137860Y0330801D03*
X0140510Y0337860D03*
X0122860Y0331095D03*
X0118450Y0331684D03*
X0120510Y0337860D03*
X0187860Y0331978D03*
X0191980Y0331684D03*
D49*
X0216390Y0349491D03*
X0216100Y0350079D03*
X0215800Y0356256D03*
X0215800Y0356550D03*
X0216100Y0356844D03*
X0216100Y0357138D03*
X0216390Y0357726D03*
X0196100Y0357138D03*
X0195800Y0358020D03*
X0175800Y0353903D03*
X0175800Y0353314D03*
X0175800Y0353020D03*
X0175800Y0352726D03*
X0175800Y0352432D03*
X0133740Y0334625D03*
X0133740Y0334331D03*
X0133740Y0333742D03*
X0146390Y0330213D03*
X0236390Y0370667D03*
X0236390Y0378903D03*
X0236390Y0379197D03*
X0236100Y0379491D03*
X0243450Y0379785D03*
X0225800Y0379197D03*
X0254040Y0370667D03*
X0253740Y0359197D03*
X0254040Y0358903D03*
X0254040Y0334625D03*
X0254040Y0334331D03*
X0254040Y0333742D03*
X0186100Y0376550D03*
X0185800Y0376844D03*
X0170800Y0383020D03*
X0170800Y0383314D03*
D50*
X0172715Y0378903D03*
X0168595Y0377726D03*
X0167715Y0375079D03*
X0199185Y0374197D03*
X0199185Y0373903D03*
X0199775Y0375667D03*
X0200065Y0376550D03*
X0200065Y0376844D03*
X0200655Y0378314D03*
X0205065Y0377726D03*
X0157125Y0330213D03*
D51*
X0162270Y0330213D03*
X0162270Y0330507D03*
X0162270Y0330801D03*
X0162270Y0331095D03*
X0162270Y0331684D03*
X0162270Y0331978D03*
X0162270Y0332272D03*
X0162270Y0332566D03*
X0162270Y0332860D03*
X0162270Y0333154D03*
X0162270Y0333448D03*
X0162270Y0334919D03*
X0162270Y0335213D03*
X0162270Y0335507D03*
X0162270Y0335801D03*
X0162270Y0336095D03*
X0162270Y0336684D03*
X0171390Y0333448D03*
X0177270Y0333154D03*
X0177570Y0334331D03*
X0199040Y0335801D03*
X0199040Y0336095D03*
X0210800Y0336095D03*
X0210800Y0335801D03*
X0210800Y0335507D03*
X0210800Y0335213D03*
X0210800Y0334919D03*
X0210800Y0334625D03*
X0210800Y0334331D03*
X0210800Y0332860D03*
X0210800Y0332566D03*
X0210800Y0332272D03*
X0210800Y0331978D03*
X0210800Y0331684D03*
X0210800Y0331095D03*
X0210800Y0330801D03*
X0210800Y0330507D03*
X0210800Y0330213D03*
X0210800Y0336684D03*
X0262860Y0335507D03*
D52*
X0244625Y0336684D03*
X0244625Y0333448D03*
X0235215Y0331978D03*
X0235215Y0331684D03*
X0224625Y0331684D03*
X0224625Y0335507D03*
X0224625Y0336684D03*
X0217565Y0336684D03*
X0214625Y0336684D03*
X0214625Y0334625D03*
X0217565Y0331684D03*
X0205215Y0331684D03*
X0205215Y0333448D03*
X0205215Y0336684D03*
X0192275Y0330801D03*
X0187275Y0330507D03*
X0187275Y0330213D03*
X0172275Y0330213D03*
X0172275Y0330507D03*
X0155215Y0331684D03*
X0155215Y0336684D03*
X0122565Y0331978D03*
D53*
X0132420Y0331978D03*
X0132420Y0331684D03*
X0132420Y0332272D03*
X0132420Y0332566D03*
X0132420Y0332860D03*
X0132420Y0333154D03*
X0132420Y0333448D03*
X0132420Y0334919D03*
X0132420Y0335213D03*
X0132420Y0335507D03*
X0132420Y0335801D03*
X0132420Y0336095D03*
X0132420Y0336684D03*
X0142420Y0331978D03*
X0142420Y0331684D03*
X0177420Y0333448D03*
X0177420Y0333742D03*
X0187420Y0331095D03*
X0187420Y0330801D03*
X0192420Y0330507D03*
X0192420Y0330213D03*
X0217420Y0331978D03*
X0217420Y0332272D03*
X0217420Y0332566D03*
X0217420Y0335801D03*
X0217420Y0336095D03*
X0247420Y0336095D03*
X0247420Y0335801D03*
X0247420Y0335507D03*
X0247420Y0335213D03*
X0247420Y0334919D03*
X0247420Y0334625D03*
X0247420Y0334331D03*
X0247420Y0333742D03*
X0247420Y0333448D03*
X0247420Y0333154D03*
X0247420Y0332860D03*
X0247420Y0332566D03*
X0247420Y0332272D03*
X0247420Y0331978D03*
X0247420Y0331684D03*
X0247420Y0336684D03*
X0247420Y0336978D03*
X0247420Y0337272D03*
X0247420Y0337566D03*
X0247420Y0337860D03*
X0247420Y0338154D03*
D54*
X0231535Y0335213D03*
X0233305Y0330213D03*
X0226535Y0330213D03*
X0225065Y0335213D03*
X0203305Y0330213D03*
X0201835Y0335213D03*
X0157125Y0338154D03*
X0120655Y0336684D03*
D55*
X0120510Y0336095D03*
X0174330Y0334331D03*
X0176390Y0332860D03*
X0176390Y0332566D03*
X0176390Y0332272D03*
X0204630Y0333742D03*
X0219630Y0330213D03*
X0227860Y0333742D03*
X0254630Y0366550D03*
X0254630Y0366844D03*
X0254630Y0367138D03*
X0254630Y0367432D03*
X0254630Y0367726D03*
X0254040Y0378020D03*
D56*
X0243595Y0380079D03*
X0226245Y0379785D03*
X0202715Y0382432D03*
X0202715Y0382726D03*
X0202715Y0383020D03*
X0181835Y0383020D03*
X0181835Y0382726D03*
X0192125Y0367432D03*
X0174775Y0357432D03*
X0175065Y0356844D03*
X0174775Y0348903D03*
X0203305Y0337566D03*
X0202715Y0334919D03*
X0203305Y0330801D03*
X0226535Y0330801D03*
X0226535Y0337566D03*
X0242125Y0330213D03*
X0254185Y0347726D03*
X0245065Y0356256D03*
X0245365Y0359197D03*
X0243305Y0369785D03*
X0236245Y0370373D03*
X0225655Y0370373D03*
X0226245Y0358314D03*
X0226535Y0358020D03*
X0216535Y0358020D03*
X0216245Y0357432D03*
X0217125Y0348314D03*
X0226245Y0348020D03*
X0226535Y0348314D03*
X0157125Y0330507D03*
D57*
X0157275Y0337566D03*
X0146685Y0337860D03*
X0174625Y0357726D03*
X0200215Y0346550D03*
X0200215Y0346256D03*
X0216685Y0358314D03*
X0225805Y0358903D03*
X0226095Y0369785D03*
X0235805Y0369785D03*
X0243745Y0369491D03*
X0244035Y0369197D03*
X0253745Y0370079D03*
X0252565Y0380373D03*
X0244035Y0380373D03*
X0170805Y0382138D03*
X0170805Y0382432D03*
X0170805Y0382726D03*
X0226095Y0347726D03*
X0219625Y0337566D03*
X0212565Y0337566D03*
X0212565Y0333448D03*
X0203155Y0334625D03*
X0226685Y0334331D03*
X0233155Y0334331D03*
X0233155Y0337566D03*
X0233155Y0330801D03*
X0242275Y0337860D03*
X0249035Y0331095D03*
X0249035Y0330801D03*
X0249035Y0330507D03*
X0249035Y0330213D03*
D58*
X0233300Y0330507D03*
X0226540Y0330507D03*
X0226540Y0337860D03*
X0233300Y0337860D03*
X0203300Y0337860D03*
X0203300Y0330507D03*
X0198300Y0350373D03*
X0196540Y0355373D03*
X0196540Y0355667D03*
X0195950Y0357432D03*
X0195950Y0357726D03*
X0203300Y0354197D03*
X0203300Y0353903D03*
X0203890Y0355667D03*
X0215950Y0350667D03*
X0215950Y0350373D03*
X0181540Y0366256D03*
X0181540Y0366550D03*
X0181540Y0366844D03*
X0181540Y0367138D03*
X0181540Y0367432D03*
X0181540Y0367726D03*
X0181540Y0368020D03*
X0181540Y0368314D03*
X0181540Y0368903D03*
X0181540Y0369197D03*
X0181540Y0369491D03*
X0181540Y0369785D03*
X0181540Y0370079D03*
X0181540Y0370373D03*
X0181540Y0370667D03*
X0181540Y0371256D03*
X0181540Y0371550D03*
X0181540Y0371844D03*
X0181540Y0372138D03*
X0181540Y0372432D03*
X0181540Y0372726D03*
X0181540Y0373020D03*
X0181540Y0373314D03*
X0181540Y0373903D03*
X0181540Y0374197D03*
X0181540Y0374491D03*
X0181540Y0374785D03*
X0181540Y0375079D03*
X0181540Y0375373D03*
X0181540Y0375667D03*
X0181540Y0376256D03*
X0181540Y0376550D03*
X0181540Y0376844D03*
X0181540Y0377138D03*
X0186540Y0375667D03*
X0188300Y0373020D03*
X0176540Y0368314D03*
X0176540Y0368020D03*
X0175950Y0369785D03*
X0165950Y0369491D03*
X0208300Y0368903D03*
X0208890Y0367432D03*
X0208890Y0367138D03*
X0208890Y0366844D03*
X0253300Y0379491D03*
D59*
X0253155Y0379785D03*
X0243155Y0379491D03*
X0236685Y0371256D03*
X0243155Y0370079D03*
X0225215Y0371256D03*
X0225215Y0378314D03*
X0205215Y0360079D03*
X0195215Y0359785D03*
X0175215Y0356550D03*
X0175215Y0356256D03*
X0175215Y0349785D03*
X0175215Y0349491D03*
X0200215Y0345667D03*
X0200215Y0345373D03*
X0216685Y0348903D03*
X0216685Y0349197D03*
X0221685Y0344491D03*
X0219625Y0337860D03*
X0219625Y0330507D03*
X0245215Y0347726D03*
X0254625Y0348020D03*
X0226685Y0357726D03*
X0181685Y0383314D03*
D60*
X0231095Y0383903D03*
X0221685Y0336684D03*
X0221685Y0331684D03*
X0228745Y0332272D03*
X0228745Y0332860D03*
X0228745Y0333154D03*
X0231095Y0331978D03*
X0231095Y0335507D03*
X0261685Y0336684D03*
X0138745Y0333448D03*
X0138155Y0331684D03*
X0121685Y0334919D03*
X0118155Y0330801D03*
D61*
X0120510Y0332272D03*
X0120510Y0332566D03*
X0146980Y0331095D03*
X0146980Y0330801D03*
X0146980Y0337272D03*
X0189920Y0332566D03*
X0189920Y0332272D03*
X0212860Y0336978D03*
X0253450Y0369491D03*
D62*
X0244480Y0334919D03*
X0235070Y0333448D03*
X0234770Y0336978D03*
X0225070Y0336978D03*
X0221240Y0336978D03*
X0214480Y0334331D03*
X0201830Y0336978D03*
X0176240Y0331095D03*
X0172420Y0331095D03*
X0172420Y0330801D03*
X0174480Y0335507D03*
X0174480Y0335801D03*
X0140360Y0337272D03*
X0140360Y0337566D03*
D63*
X0140215Y0332566D03*
X0157275Y0331095D03*
X0157275Y0337272D03*
X0195215Y0337272D03*
X0195215Y0336978D03*
X0195215Y0337566D03*
X0195215Y0337860D03*
X0195215Y0338154D03*
X0200215Y0347138D03*
X0200215Y0347432D03*
X0218155Y0347432D03*
X0219625Y0337272D03*
X0219625Y0331095D03*
X0242565Y0330801D03*
X0242565Y0334625D03*
X0242565Y0337272D03*
X0242565Y0337566D03*
X0225215Y0359491D03*
X0235215Y0369197D03*
X0235215Y0380373D03*
X0244625Y0380667D03*
X0191685Y0368903D03*
X0182275Y0381256D03*
X0182275Y0381550D03*
X0170805Y0381550D03*
X0170805Y0381256D03*
X0170805Y0381844D03*
D64*
X0191535Y0369491D03*
X0191535Y0369197D03*
X0173305Y0358903D03*
X0202715Y0381256D03*
X0234775Y0380667D03*
X0244475Y0368903D03*
X0248005Y0366256D03*
X0245655Y0355667D03*
X0221535Y0362138D03*
X0218005Y0359491D03*
X0242715Y0336978D03*
X0242715Y0333742D03*
X0242715Y0331095D03*
X0147125Y0336978D03*
X0140365Y0332272D03*
D65*
X0141835Y0334037D03*
X0138895Y0334037D03*
X0138005Y0331390D03*
X0121835Y0334037D03*
X0119185Y0334037D03*
X0118305Y0331390D03*
X0149185Y0336390D03*
X0170655Y0336390D03*
X0171245Y0334037D03*
X0173595Y0334037D03*
X0178005Y0336390D03*
X0180655Y0336390D03*
X0180655Y0331390D03*
X0188595Y0334037D03*
X0191245Y0334037D03*
X0201245Y0336390D03*
X0221835Y0336390D03*
X0228595Y0336390D03*
X0230945Y0336390D03*
X0238005Y0336390D03*
X0238005Y0334037D03*
X0238005Y0331390D03*
X0240655Y0331390D03*
X0240655Y0336390D03*
X0263595Y0336390D03*
D66*
X0252715Y0336390D03*
X0252715Y0331390D03*
X0244775Y0336390D03*
X0224475Y0336390D03*
X0222125Y0334037D03*
X0217125Y0334037D03*
X0214775Y0336390D03*
X0205365Y0336390D03*
X0195365Y0336390D03*
X0195365Y0334037D03*
X0195365Y0331390D03*
X0192125Y0331390D03*
X0187715Y0331390D03*
X0185065Y0331390D03*
X0185065Y0336390D03*
X0174475Y0336390D03*
X0159475Y0336390D03*
X0159475Y0334037D03*
X0154775Y0334037D03*
X0155065Y0336390D03*
X0149475Y0334037D03*
X0145065Y0334037D03*
X0145065Y0336390D03*
X0145065Y0331390D03*
X0129775Y0331390D03*
X0129775Y0336390D03*
X0122715Y0331390D03*
D67*
X0125215Y0331390D03*
X0125215Y0336390D03*
X0175215Y0334037D03*
X0235215Y0336390D03*
D68*
X0217420Y0336390D03*
X0247420Y0336390D03*
X0247420Y0334037D03*
X0247420Y0331390D03*
X0177420Y0334037D03*
X0132420Y0336390D03*
X0132420Y0331390D03*
D69*
X0142565Y0331390D03*
D70*
X0148890Y0331390D03*
X0155360Y0331390D03*
X0158890Y0331390D03*
X0205070Y0331390D03*
X0217710Y0331390D03*
X0221540Y0331390D03*
X0228300Y0331390D03*
X0231540Y0331390D03*
X0234770Y0331390D03*
X0244480Y0331390D03*
D71*
X0210800Y0331390D03*
X0210800Y0336390D03*
X0162270Y0336390D03*
X0162270Y0331390D03*
D72*
X0172275Y0331390D03*
D73*
X0176390Y0331390D03*
D74*
X0201685Y0331390D03*
X0261685Y0336390D03*
D75*
X0224920Y0331390D03*
D76*
X0228155Y0336978D03*
X0226685Y0338154D03*
X0231685Y0336978D03*
X0233155Y0338154D03*
X0219625Y0338154D03*
X0174335Y0335213D03*
X0172275Y0331684D03*
X0158745Y0336978D03*
X0155505Y0336978D03*
X0140505Y0336978D03*
X0120505Y0336978D03*
D77*
X0176390Y0331978D03*
X0176390Y0331684D03*
X0189920Y0336684D03*
X0189920Y0336978D03*
X0189920Y0337272D03*
X0203450Y0338154D03*
X0204920Y0336978D03*
X0217860Y0336978D03*
D78*
X0172420Y0332272D03*
X0172420Y0331978D03*
D79*
X0173155Y0332566D03*
X0263745Y0336978D03*
X0263745Y0337272D03*
D80*
X0245510Y0347432D03*
X0232860Y0334625D03*
X0226390Y0334625D03*
X0203450Y0334331D03*
X0189920Y0333154D03*
X0174330Y0348314D03*
X0174330Y0358020D03*
X0191980Y0367726D03*
X0191980Y0368020D03*
X0181980Y0382138D03*
X0181980Y0382432D03*
X0226390Y0380079D03*
X0235510Y0380079D03*
X0235510Y0369491D03*
X0226390Y0369491D03*
X0120510Y0333154D03*
D81*
X0157270Y0337860D03*
X0174920Y0349197D03*
X0175510Y0350373D03*
X0175510Y0350667D03*
X0175510Y0355373D03*
X0175510Y0355667D03*
X0174920Y0357138D03*
X0194920Y0360373D03*
X0194920Y0360667D03*
X0195510Y0358903D03*
X0205510Y0360667D03*
X0215510Y0354491D03*
X0215510Y0354197D03*
X0226980Y0357138D03*
X0226980Y0357432D03*
X0244920Y0356550D03*
X0254920Y0350667D03*
X0254920Y0350373D03*
X0244920Y0348020D03*
X0226980Y0348903D03*
X0226980Y0349197D03*
X0241980Y0338154D03*
X0232570Y0334919D03*
X0212270Y0333154D03*
X0259920Y0337566D03*
X0259920Y0337860D03*
X0242860Y0370373D03*
X0225510Y0370667D03*
X0225510Y0378903D03*
X0252860Y0380079D03*
X0192270Y0367138D03*
X0192270Y0366844D03*
X0187570Y0374197D03*
X0187270Y0374491D03*
X0186980Y0375079D03*
X0176980Y0367138D03*
D82*
X0191390Y0369785D03*
X0182570Y0380373D03*
X0182570Y0380667D03*
X0170800Y0380667D03*
X0202860Y0380667D03*
X0227270Y0380667D03*
X0249920Y0362138D03*
X0246390Y0347138D03*
X0182860Y0334625D03*
X0182860Y0334331D03*
X0182860Y0333742D03*
X0173450Y0347726D03*
X0127570Y0334625D03*
X0127570Y0334331D03*
X0127570Y0333742D03*
D83*
X0146245Y0338154D03*
X0163595Y0334625D03*
X0163595Y0334331D03*
X0163595Y0333742D03*
X0180655Y0348020D03*
X0180655Y0348314D03*
X0180655Y0348903D03*
X0180655Y0349197D03*
X0180655Y0349491D03*
X0180655Y0349785D03*
X0180655Y0350079D03*
X0180655Y0350373D03*
X0180655Y0350667D03*
X0180655Y0351256D03*
X0180655Y0351550D03*
X0180655Y0351844D03*
X0180655Y0352138D03*
X0180655Y0356256D03*
X0180655Y0356550D03*
X0180655Y0356844D03*
X0180655Y0357138D03*
X0180655Y0357432D03*
X0180655Y0357726D03*
X0180655Y0358020D03*
X0180655Y0358314D03*
X0180655Y0358903D03*
X0175655Y0355079D03*
X0175655Y0354785D03*
X0175655Y0354491D03*
X0175655Y0354197D03*
X0175655Y0352138D03*
X0175655Y0351844D03*
X0175655Y0351550D03*
X0175655Y0351256D03*
X0196245Y0356256D03*
X0196245Y0356550D03*
X0196245Y0356844D03*
X0195655Y0358314D03*
X0197125Y0354197D03*
X0197125Y0353903D03*
X0197715Y0352138D03*
X0202715Y0352138D03*
X0203595Y0354785D03*
X0203595Y0355079D03*
X0204185Y0356550D03*
X0204185Y0356844D03*
X0204185Y0357138D03*
X0205655Y0361256D03*
X0205655Y0361550D03*
X0205655Y0361844D03*
X0209185Y0366256D03*
X0209185Y0366550D03*
X0208595Y0367726D03*
X0208595Y0368020D03*
X0206245Y0374491D03*
X0197715Y0369197D03*
X0197715Y0368903D03*
X0197125Y0367432D03*
X0197125Y0367138D03*
X0187715Y0373903D03*
X0187125Y0374785D03*
X0186245Y0376256D03*
X0185655Y0377138D03*
X0176245Y0369491D03*
X0176245Y0369197D03*
X0176245Y0368903D03*
X0177125Y0366844D03*
X0177125Y0366550D03*
X0165655Y0368314D03*
X0167125Y0373020D03*
X0202715Y0383314D03*
X0237125Y0377432D03*
X0237125Y0377138D03*
X0237125Y0372726D03*
X0237125Y0372432D03*
X0237125Y0372138D03*
X0242125Y0372138D03*
X0242715Y0370667D03*
X0242125Y0377138D03*
X0242125Y0377432D03*
X0242715Y0378903D03*
X0253595Y0379197D03*
X0227125Y0356844D03*
X0227125Y0349785D03*
X0227125Y0349491D03*
X0216245Y0349785D03*
X0215655Y0351256D03*
X0215655Y0351550D03*
X0215655Y0351844D03*
X0215655Y0352138D03*
X0215655Y0352432D03*
X0215655Y0352726D03*
X0215655Y0353020D03*
X0215655Y0354785D03*
X0215655Y0355079D03*
X0215655Y0355373D03*
X0215655Y0355667D03*
D84*
X0221540Y0362432D03*
X0198890Y0373020D03*
X0198890Y0373314D03*
X0199480Y0374785D03*
X0199480Y0375079D03*
X0200360Y0377432D03*
X0200360Y0377726D03*
X0200950Y0379197D03*
X0200950Y0379491D03*
X0204480Y0379491D03*
X0204480Y0379197D03*
X0205360Y0376844D03*
X0168890Y0378903D03*
X0168300Y0376844D03*
X0253890Y0378314D03*
X0254480Y0372432D03*
X0254480Y0372138D03*
X0254480Y0371844D03*
X0234480Y0333742D03*
D85*
X0182860Y0334037D03*
X0127570Y0334037D03*
X0170800Y0380962D03*
D86*
X0186390Y0375962D03*
X0215800Y0355962D03*
X0231100Y0365962D03*
X0248450Y0383609D03*
X0175800Y0353609D03*
X0133740Y0334037D03*
X0254040Y0334037D03*
D87*
X0254185Y0358609D03*
X0254185Y0370962D03*
X0242715Y0378609D03*
X0202715Y0383609D03*
X0170655Y0383609D03*
X0165655Y0368609D03*
X0180655Y0358609D03*
X0180655Y0355962D03*
X0180655Y0350962D03*
X0180655Y0348609D03*
X0175655Y0350962D03*
X0195655Y0358609D03*
X0197125Y0353609D03*
X0163595Y0334037D03*
D88*
X0203890Y0334037D03*
D89*
X0212710Y0334037D03*
X0173890Y0358609D03*
X0230950Y0383609D03*
D90*
X0254775Y0350962D03*
X0233595Y0334037D03*
X0227125Y0334037D03*
X0216835Y0348609D03*
X0200365Y0345962D03*
X0174475Y0348609D03*
D91*
X0191685Y0368609D03*
X0242565Y0334037D03*
D92*
X0259335Y0334331D03*
X0259335Y0334625D03*
X0259335Y0334919D03*
X0259335Y0335213D03*
X0259335Y0335507D03*
X0259335Y0335801D03*
X0259335Y0336095D03*
X0259335Y0336684D03*
X0259335Y0336978D03*
X0259335Y0337272D03*
X0264035Y0338154D03*
X0264035Y0336095D03*
X0264035Y0335801D03*
X0264035Y0335507D03*
X0264035Y0335213D03*
X0264035Y0334919D03*
X0264035Y0334625D03*
X0264035Y0334331D03*
D93*
X0261240Y0334331D03*
X0261240Y0334625D03*
X0261240Y0334919D03*
X0261240Y0335213D03*
X0261240Y0335507D03*
X0261240Y0335801D03*
X0261240Y0336095D03*
X0263890Y0337566D03*
X0263890Y0337860D03*
X0199480Y0336684D03*
D94*
X0174480Y0334919D03*
X0174480Y0334625D03*
X0140360Y0336095D03*
X0140360Y0336684D03*
D95*
X0225950Y0334919D03*
X0225950Y0370079D03*
X0235950Y0370079D03*
X0253890Y0370373D03*
X0235950Y0379785D03*
X0225950Y0379491D03*
D96*
X0262715Y0335213D03*
D97*
X0198890Y0335507D03*
D98*
X0189920Y0335801D03*
X0189920Y0336095D03*
D99*
X0120655Y0336390D03*
D100*
X0140360Y0336390D03*
D101*
X0189920Y0336390D03*
D102*
X0199480Y0336390D03*
D103*
X0259335Y0336390D03*
D104*
X0120655Y0337272D03*
X0120655Y0337566D03*
D105*
X0212420Y0337860D03*
X0217420Y0348020D03*
D106*
X0231395Y0348020D03*
X0231395Y0348314D03*
X0231395Y0348903D03*
X0231395Y0349197D03*
X0231395Y0349491D03*
X0231395Y0349785D03*
X0231395Y0350079D03*
X0231395Y0350373D03*
X0231395Y0350667D03*
X0231395Y0351256D03*
X0231395Y0351550D03*
X0231395Y0351844D03*
X0231395Y0352138D03*
X0231395Y0355667D03*
X0231395Y0356256D03*
X0231395Y0356550D03*
X0231395Y0356844D03*
X0231395Y0357138D03*
X0231395Y0357432D03*
X0231395Y0357726D03*
X0231395Y0358020D03*
X0231395Y0358314D03*
X0231395Y0358903D03*
X0227275Y0356550D03*
X0244625Y0357432D03*
X0244625Y0357726D03*
X0244625Y0358020D03*
X0254335Y0358314D03*
X0254625Y0357726D03*
X0254625Y0357432D03*
X0244335Y0350079D03*
X0244335Y0349785D03*
X0244335Y0349491D03*
X0211975Y0338154D03*
X0200215Y0344785D03*
X0200215Y0345079D03*
X0202275Y0350373D03*
X0202275Y0350667D03*
X0202565Y0351550D03*
X0202565Y0351844D03*
X0202865Y0352432D03*
X0202865Y0352726D03*
X0203155Y0353314D03*
X0203445Y0354491D03*
X0203745Y0355373D03*
X0204035Y0356256D03*
X0205805Y0362138D03*
X0194625Y0362138D03*
X0192565Y0366256D03*
X0196975Y0366844D03*
X0197275Y0367726D03*
X0197865Y0369491D03*
X0197865Y0369785D03*
X0198745Y0372726D03*
X0199335Y0374491D03*
X0199625Y0375373D03*
X0200215Y0377138D03*
X0200505Y0378020D03*
X0200805Y0378903D03*
X0204625Y0378903D03*
X0205215Y0377432D03*
X0205215Y0377138D03*
X0205505Y0376550D03*
X0205505Y0376256D03*
X0205805Y0375667D03*
X0205805Y0375373D03*
X0206095Y0375079D03*
X0206095Y0374785D03*
X0206395Y0374197D03*
X0206395Y0373903D03*
X0206685Y0373314D03*
X0206685Y0373020D03*
X0208445Y0368314D03*
X0213445Y0369491D03*
X0213445Y0369785D03*
X0213445Y0370079D03*
X0213445Y0370373D03*
X0213445Y0370667D03*
X0213445Y0371256D03*
X0213445Y0371550D03*
X0213445Y0371844D03*
X0213445Y0372138D03*
X0213445Y0372432D03*
X0213445Y0372726D03*
X0213445Y0373020D03*
X0213445Y0373314D03*
X0213445Y0373903D03*
X0213445Y0374197D03*
X0213445Y0374491D03*
X0213445Y0374785D03*
X0213445Y0375079D03*
X0213445Y0375373D03*
X0213445Y0375667D03*
X0213445Y0376256D03*
X0213445Y0376550D03*
X0213445Y0376844D03*
X0213445Y0377138D03*
X0213445Y0377432D03*
X0213445Y0377726D03*
X0213445Y0378020D03*
X0213445Y0378314D03*
X0213445Y0378903D03*
X0213445Y0379197D03*
X0213445Y0379491D03*
X0213445Y0379785D03*
X0213445Y0380079D03*
X0213445Y0380373D03*
X0213445Y0380667D03*
X0213445Y0381256D03*
X0213445Y0381550D03*
X0213445Y0381844D03*
X0213445Y0382138D03*
X0213445Y0382432D03*
X0213445Y0382726D03*
X0213445Y0383020D03*
X0213445Y0383314D03*
X0224625Y0376256D03*
X0224625Y0375667D03*
X0224625Y0373903D03*
X0224625Y0373314D03*
X0224625Y0373020D03*
X0237275Y0373020D03*
X0237275Y0373314D03*
X0237275Y0376256D03*
X0237275Y0376550D03*
X0237275Y0376844D03*
X0236975Y0377726D03*
X0241975Y0376844D03*
X0241975Y0376550D03*
X0241975Y0376256D03*
X0241685Y0375667D03*
X0241685Y0375373D03*
X0241685Y0375079D03*
X0241685Y0374785D03*
X0241685Y0374491D03*
X0241685Y0374197D03*
X0241685Y0373903D03*
X0241975Y0373314D03*
X0241975Y0373020D03*
X0241975Y0372726D03*
X0241975Y0372432D03*
X0242275Y0371844D03*
X0242275Y0377726D03*
X0253745Y0378903D03*
X0254335Y0371550D03*
X0254335Y0371256D03*
X0197865Y0351844D03*
X0197865Y0351550D03*
X0198155Y0350667D03*
X0197565Y0352432D03*
X0197565Y0352726D03*
X0165215Y0367138D03*
X0165505Y0368020D03*
X0165805Y0368903D03*
X0165805Y0369197D03*
X0166095Y0369785D03*
X0166975Y0372726D03*
X0167275Y0373314D03*
X0167275Y0373903D03*
X0167565Y0374197D03*
X0167565Y0374491D03*
X0167565Y0374785D03*
X0167865Y0375373D03*
X0167865Y0375667D03*
X0168155Y0376256D03*
X0168155Y0376550D03*
X0168445Y0377138D03*
X0168445Y0377432D03*
X0168745Y0378020D03*
X0168745Y0378314D03*
X0172865Y0378314D03*
X0173155Y0378020D03*
X0173155Y0377726D03*
X0173155Y0377432D03*
X0173445Y0377138D03*
X0173445Y0376844D03*
X0173445Y0376550D03*
X0173745Y0376256D03*
X0174035Y0375667D03*
X0174035Y0375373D03*
X0174035Y0375079D03*
X0174335Y0374785D03*
X0174335Y0374491D03*
X0174335Y0374197D03*
X0174625Y0373903D03*
D107*
X0174770Y0373314D03*
X0174770Y0373020D03*
X0174770Y0372726D03*
X0176830Y0367726D03*
X0176830Y0367432D03*
X0177420Y0366256D03*
X0165360Y0367432D03*
X0165360Y0367726D03*
X0165070Y0366844D03*
X0165070Y0366550D03*
X0164770Y0358903D03*
X0164770Y0358314D03*
X0164770Y0358020D03*
X0164770Y0357726D03*
X0164770Y0357432D03*
X0164770Y0357138D03*
X0164770Y0356844D03*
X0164770Y0356550D03*
X0164770Y0356256D03*
X0164770Y0355667D03*
X0164770Y0355373D03*
X0164770Y0355079D03*
X0164770Y0354785D03*
X0164770Y0354491D03*
X0164770Y0354197D03*
X0164770Y0353903D03*
X0164770Y0353314D03*
X0164770Y0353020D03*
X0164770Y0352726D03*
X0164770Y0352432D03*
X0164770Y0352138D03*
X0164770Y0351844D03*
X0164770Y0351550D03*
X0164770Y0351256D03*
X0164770Y0350667D03*
X0164770Y0350373D03*
X0164770Y0350079D03*
X0164770Y0349785D03*
X0164770Y0349491D03*
X0164770Y0349197D03*
X0164770Y0348903D03*
X0164770Y0348314D03*
X0164770Y0348020D03*
X0164770Y0347726D03*
X0175360Y0350079D03*
X0196830Y0354491D03*
X0196830Y0354785D03*
X0196830Y0355079D03*
X0197420Y0353314D03*
X0197420Y0353020D03*
X0198010Y0351256D03*
X0202420Y0351256D03*
X0203010Y0353020D03*
X0204480Y0357432D03*
X0204480Y0357726D03*
X0204480Y0358020D03*
X0204770Y0358314D03*
X0204770Y0358903D03*
X0205070Y0359197D03*
X0205070Y0359491D03*
X0205070Y0359785D03*
X0205360Y0360373D03*
X0210360Y0360373D03*
X0210360Y0360079D03*
X0210360Y0359785D03*
X0210360Y0359491D03*
X0210360Y0359197D03*
X0210360Y0358903D03*
X0210360Y0358314D03*
X0210360Y0358020D03*
X0210360Y0357726D03*
X0210360Y0357432D03*
X0210360Y0357138D03*
X0210360Y0356844D03*
X0210360Y0356550D03*
X0210360Y0356256D03*
X0210360Y0355667D03*
X0210360Y0355373D03*
X0210360Y0355079D03*
X0210360Y0354785D03*
X0210360Y0354491D03*
X0210360Y0354197D03*
X0210360Y0353903D03*
X0210360Y0353314D03*
X0210360Y0353020D03*
X0210360Y0352726D03*
X0210360Y0352432D03*
X0210360Y0352138D03*
X0210360Y0351844D03*
X0210360Y0351550D03*
X0210360Y0351256D03*
X0210360Y0350667D03*
X0210360Y0350373D03*
X0210360Y0350079D03*
X0210360Y0349785D03*
X0210360Y0349491D03*
X0210360Y0349197D03*
X0210360Y0348903D03*
X0210360Y0348314D03*
X0210360Y0348020D03*
X0210360Y0347726D03*
X0210360Y0347432D03*
X0210360Y0347138D03*
X0210360Y0346844D03*
X0210360Y0346550D03*
X0210360Y0346256D03*
X0210360Y0345667D03*
X0210360Y0345373D03*
X0210360Y0345079D03*
X0210360Y0344785D03*
X0215360Y0353314D03*
X0215360Y0353903D03*
X0210360Y0360667D03*
X0210360Y0361256D03*
X0210360Y0361550D03*
X0210360Y0361844D03*
X0210360Y0362138D03*
X0208010Y0369197D03*
X0208010Y0369491D03*
X0208010Y0369785D03*
X0206830Y0372726D03*
X0197420Y0368314D03*
X0197420Y0368020D03*
X0196830Y0366550D03*
X0196830Y0366256D03*
X0192420Y0366550D03*
X0194770Y0361844D03*
X0194770Y0361550D03*
X0194770Y0361256D03*
X0195070Y0360079D03*
X0195360Y0359491D03*
X0195360Y0359197D03*
X0192420Y0373020D03*
X0192420Y0373314D03*
X0192420Y0373903D03*
X0192420Y0374197D03*
X0192420Y0374491D03*
X0192420Y0374785D03*
X0192420Y0375079D03*
X0192420Y0375373D03*
X0192420Y0375667D03*
X0192420Y0376256D03*
X0192420Y0376550D03*
X0192420Y0376844D03*
X0192420Y0377138D03*
X0192420Y0377432D03*
X0192420Y0377726D03*
X0192420Y0378020D03*
X0192420Y0378314D03*
X0192420Y0378903D03*
X0192420Y0379197D03*
X0192420Y0379491D03*
X0192420Y0379785D03*
X0192420Y0380079D03*
X0192420Y0380373D03*
X0192420Y0380667D03*
X0192420Y0381256D03*
X0192420Y0381550D03*
X0192420Y0381844D03*
X0192420Y0382138D03*
X0192420Y0382432D03*
X0192420Y0382726D03*
X0192420Y0383020D03*
X0192420Y0383314D03*
X0186830Y0375373D03*
X0188010Y0373314D03*
X0224480Y0374197D03*
X0224480Y0374491D03*
X0224480Y0374785D03*
X0224480Y0375079D03*
X0224480Y0375373D03*
X0224770Y0376550D03*
X0224770Y0376844D03*
X0224770Y0377138D03*
X0225070Y0377726D03*
X0225070Y0378020D03*
X0224770Y0372726D03*
X0224770Y0372432D03*
X0224770Y0372138D03*
X0225070Y0371844D03*
X0225070Y0371550D03*
X0236830Y0371550D03*
X0236830Y0371844D03*
X0237420Y0373903D03*
X0237420Y0374197D03*
X0237420Y0374491D03*
X0237420Y0374785D03*
X0237420Y0375079D03*
X0237420Y0375373D03*
X0237420Y0375667D03*
X0236830Y0378020D03*
X0236830Y0378314D03*
X0242420Y0378314D03*
X0242420Y0378020D03*
X0243010Y0379197D03*
X0242420Y0371550D03*
X0242420Y0371256D03*
X0245070Y0358903D03*
X0244770Y0358314D03*
X0244770Y0357138D03*
X0244770Y0356844D03*
X0254480Y0358020D03*
X0255070Y0350079D03*
X0255070Y0349785D03*
X0255070Y0349491D03*
X0255070Y0349197D03*
X0255070Y0348903D03*
X0254770Y0348314D03*
X0244770Y0348314D03*
X0244480Y0348903D03*
X0244480Y0349197D03*
X0227420Y0350079D03*
X0227420Y0350373D03*
X0259770Y0338154D03*
D108*
X0137125Y0344491D03*
X0137125Y0344785D03*
X0137125Y0345079D03*
X0137125Y0345373D03*
X0137125Y0345667D03*
X0137125Y0346256D03*
X0137125Y0346550D03*
X0137125Y0346844D03*
X0137125Y0347138D03*
X0137125Y0347432D03*
X0137125Y0347726D03*
X0137125Y0348020D03*
X0137125Y0348314D03*
X0137125Y0348903D03*
X0137125Y0349197D03*
X0137125Y0349491D03*
X0137125Y0377138D03*
X0137125Y0377432D03*
X0137125Y0377726D03*
X0137125Y0378020D03*
X0137125Y0378314D03*
X0137125Y0378903D03*
X0137125Y0379197D03*
X0137125Y0379491D03*
X0137125Y0379785D03*
X0137125Y0380079D03*
X0137125Y0380373D03*
X0137125Y0380667D03*
X0137125Y0381256D03*
X0137125Y0381550D03*
X0137125Y0381844D03*
X0137125Y0382138D03*
X0137125Y0382432D03*
X0137125Y0382726D03*
X0137125Y0383020D03*
X0137125Y0383314D03*
D109*
X0166980Y0344785D03*
D110*
X0169480Y0347432D03*
X0185360Y0347432D03*
X0185360Y0347138D03*
X0185360Y0346844D03*
X0185360Y0346550D03*
X0185360Y0346256D03*
X0185360Y0345667D03*
X0185360Y0345373D03*
X0185360Y0345079D03*
X0185360Y0344785D03*
X0185360Y0347726D03*
X0169480Y0359197D03*
X0170950Y0370373D03*
X0203010Y0370373D03*
D111*
X0200215Y0348314D03*
X0200215Y0348020D03*
X0200215Y0347726D03*
X0221685Y0344785D03*
X0253155Y0347138D03*
X0253155Y0369197D03*
D112*
X0236100Y0347726D03*
X0236100Y0347432D03*
X0236100Y0347138D03*
X0236100Y0346844D03*
X0236100Y0346550D03*
X0236100Y0346256D03*
X0236100Y0345667D03*
X0236100Y0345373D03*
X0236100Y0345079D03*
X0236100Y0344785D03*
X0185210Y0359197D03*
X0185210Y0359491D03*
X0185210Y0359785D03*
X0185210Y0360079D03*
X0185210Y0360373D03*
X0185210Y0360667D03*
X0185210Y0361256D03*
X0185210Y0361550D03*
X0185210Y0361844D03*
X0185210Y0362138D03*
X0169330Y0359491D03*
X0171100Y0370667D03*
X0150210Y0360079D03*
X0169330Y0347138D03*
X0202860Y0370667D03*
D113*
X0202715Y0379785D03*
X0249775Y0344785D03*
D114*
X0251245Y0352726D03*
X0167715Y0345079D03*
X0167715Y0361844D03*
D115*
X0190505Y0372432D03*
X0231095Y0366550D03*
X0221685Y0345079D03*
D116*
X0249770Y0345079D03*
D117*
X0250805Y0353020D03*
X0249035Y0354197D03*
X0168155Y0345373D03*
D118*
X0167125Y0362138D03*
X0221535Y0361550D03*
X0230945Y0366844D03*
X0249775Y0361550D03*
X0221835Y0345373D03*
X0248305Y0382726D03*
D119*
X0248010Y0354785D03*
X0251830Y0352432D03*
X0249770Y0345373D03*
D120*
X0168450Y0345667D03*
D121*
X0151975Y0362138D03*
X0151975Y0365079D03*
X0221685Y0345667D03*
X0249625Y0361256D03*
X0247865Y0367432D03*
D122*
X0248305Y0382138D03*
X0249775Y0345667D03*
D123*
X0137125Y0345962D03*
X0137125Y0348609D03*
X0137125Y0378609D03*
X0137125Y0380962D03*
D124*
X0168745Y0345962D03*
D125*
X0185360Y0345962D03*
D126*
X0164770Y0348609D03*
X0164770Y0350962D03*
X0164770Y0353609D03*
X0164770Y0355962D03*
X0164770Y0358609D03*
X0192420Y0373609D03*
X0192420Y0375962D03*
X0192420Y0378609D03*
X0192420Y0380962D03*
X0192420Y0383609D03*
X0225360Y0378609D03*
X0225360Y0370962D03*
X0237420Y0373609D03*
X0237420Y0375962D03*
X0241830Y0375962D03*
X0248010Y0365962D03*
X0215360Y0353609D03*
X0210360Y0353609D03*
X0210360Y0355962D03*
X0210360Y0358609D03*
X0210360Y0360962D03*
X0204770Y0358609D03*
X0210360Y0350962D03*
X0210360Y0348609D03*
X0210360Y0345962D03*
D127*
X0221830Y0345962D03*
D128*
X0236100Y0345962D03*
X0185210Y0360962D03*
X0171100Y0370962D03*
X0202860Y0370962D03*
D129*
X0250070Y0353609D03*
X0249770Y0345962D03*
D130*
X0249770Y0346550D03*
X0221830Y0346844D03*
X0221830Y0347138D03*
X0221540Y0360079D03*
X0230950Y0368314D03*
X0230950Y0381256D03*
X0248300Y0381256D03*
X0203010Y0372138D03*
X0170950Y0372138D03*
X0168890Y0360373D03*
X0184770Y0355667D03*
X0184770Y0355373D03*
X0184770Y0355079D03*
X0184770Y0354785D03*
X0184770Y0354491D03*
X0184770Y0354197D03*
X0184770Y0353903D03*
X0184770Y0353314D03*
X0184770Y0353020D03*
X0184770Y0352726D03*
X0184770Y0352432D03*
X0168890Y0346256D03*
D131*
X0168300Y0361256D03*
X0151240Y0361256D03*
X0221540Y0360667D03*
X0230950Y0367726D03*
X0249770Y0360667D03*
X0249480Y0353903D03*
X0250360Y0353314D03*
X0221830Y0346256D03*
X0248300Y0381844D03*
D132*
X0235365Y0355373D03*
X0235365Y0355079D03*
X0235365Y0354785D03*
X0235365Y0354491D03*
X0235365Y0354197D03*
X0235365Y0353903D03*
X0235365Y0353314D03*
X0235365Y0353020D03*
X0235365Y0352726D03*
X0235365Y0352432D03*
X0249775Y0346256D03*
D133*
X0249625Y0359785D03*
X0171095Y0371550D03*
X0171095Y0371844D03*
X0169035Y0360079D03*
X0169035Y0346550D03*
D134*
X0150945Y0366256D03*
X0221535Y0360373D03*
X0230945Y0368020D03*
X0248305Y0381550D03*
X0221835Y0346550D03*
D135*
X0169185Y0346844D03*
X0169185Y0359785D03*
X0203005Y0371256D03*
D136*
X0202860Y0371550D03*
X0202860Y0371844D03*
X0221390Y0359785D03*
X0249920Y0346844D03*
D137*
X0200215Y0348609D03*
D138*
X0226685Y0348609D03*
X0236685Y0370962D03*
X0236685Y0378609D03*
D139*
X0241685Y0373609D03*
X0253745Y0378609D03*
X0224625Y0375962D03*
X0224625Y0373609D03*
X0213445Y0373609D03*
X0213445Y0375962D03*
X0213445Y0378609D03*
X0213445Y0380962D03*
X0213445Y0383609D03*
X0205805Y0375962D03*
X0199035Y0373609D03*
X0197565Y0368609D03*
X0213445Y0370962D03*
X0231395Y0358609D03*
X0231395Y0355962D03*
X0231395Y0350962D03*
X0231395Y0348609D03*
X0244625Y0348609D03*
X0203155Y0353609D03*
X0202275Y0350962D03*
X0198155Y0350962D03*
X0174625Y0373609D03*
X0173745Y0375962D03*
X0172865Y0378609D03*
X0167275Y0373609D03*
D140*
X0244920Y0358609D03*
X0254920Y0348609D03*
D141*
X0252865Y0368903D03*
X0200215Y0349197D03*
X0200215Y0348903D03*
X0182865Y0379491D03*
X0182865Y0379785D03*
D142*
X0170800Y0379197D03*
X0190800Y0371550D03*
X0200210Y0350079D03*
X0200210Y0349785D03*
X0200210Y0349491D03*
D143*
X0247275Y0355079D03*
X0252565Y0352138D03*
X0121685Y0352138D03*
X0121685Y0351844D03*
X0121685Y0351550D03*
X0121685Y0351256D03*
X0121685Y0350667D03*
X0121685Y0350373D03*
X0121685Y0350079D03*
X0121685Y0349785D03*
X0121685Y0352432D03*
X0121685Y0352726D03*
X0121685Y0353020D03*
X0121685Y0353314D03*
X0121685Y0353903D03*
X0121685Y0354197D03*
X0121685Y0354491D03*
X0121685Y0354785D03*
X0121685Y0355079D03*
X0121685Y0355373D03*
X0121685Y0355667D03*
X0121685Y0356256D03*
X0121685Y0356550D03*
X0121685Y0356844D03*
X0121685Y0357138D03*
X0121685Y0357432D03*
X0121685Y0357726D03*
X0121685Y0358020D03*
X0121685Y0358314D03*
X0121685Y0358903D03*
X0121685Y0359197D03*
X0121685Y0359491D03*
X0121685Y0359785D03*
X0121685Y0360079D03*
X0121685Y0360373D03*
X0121685Y0360667D03*
X0121685Y0361256D03*
X0121685Y0361550D03*
X0121685Y0361844D03*
X0121685Y0362138D03*
X0121685Y0362432D03*
X0121685Y0362726D03*
X0121685Y0363020D03*
X0121685Y0363314D03*
X0121685Y0363903D03*
X0121685Y0364197D03*
X0121685Y0364491D03*
X0121685Y0364785D03*
X0121685Y0365079D03*
X0121685Y0365373D03*
X0121685Y0365667D03*
X0121685Y0366256D03*
X0121685Y0366550D03*
X0121685Y0366844D03*
X0121685Y0367138D03*
X0121685Y0367432D03*
X0121685Y0367726D03*
X0121685Y0368020D03*
X0121685Y0368314D03*
X0121685Y0368903D03*
X0121685Y0369197D03*
X0121685Y0369491D03*
X0121685Y0369785D03*
X0121685Y0370079D03*
X0121685Y0370373D03*
X0121685Y0370667D03*
X0121685Y0371256D03*
X0121685Y0371550D03*
X0121685Y0371844D03*
X0121685Y0372138D03*
X0121685Y0372432D03*
X0121685Y0372726D03*
X0121685Y0373020D03*
X0121685Y0373314D03*
X0121685Y0373903D03*
X0121685Y0374197D03*
X0121685Y0374491D03*
X0121685Y0374785D03*
X0121685Y0375079D03*
X0121685Y0375373D03*
X0121685Y0375667D03*
X0121685Y0376256D03*
X0121685Y0376550D03*
X0121685Y0376844D03*
D144*
X0141390Y0349785D03*
D145*
X0141680Y0350079D03*
X0141680Y0376550D03*
D146*
X0141975Y0376256D03*
X0141975Y0350373D03*
D147*
X0142125Y0350667D03*
D148*
X0121685Y0350962D03*
X0121685Y0353609D03*
X0121685Y0355962D03*
X0121685Y0358609D03*
X0121685Y0360962D03*
X0121685Y0363609D03*
X0121685Y0365962D03*
X0121685Y0368609D03*
X0121685Y0370962D03*
X0121685Y0373609D03*
X0121685Y0375962D03*
D149*
X0142420Y0350962D03*
D150*
X0176540Y0368609D03*
X0181540Y0368609D03*
X0181540Y0370962D03*
X0181540Y0373609D03*
X0181540Y0375962D03*
X0181540Y0383609D03*
X0206540Y0373609D03*
X0208300Y0368609D03*
X0203890Y0355962D03*
X0196540Y0355962D03*
X0215950Y0350962D03*
D151*
X0142710Y0351256D03*
D152*
X0142860Y0351550D03*
X0142860Y0375373D03*
D153*
X0253890Y0351550D03*
D154*
X0143155Y0351844D03*
D155*
X0253155Y0351844D03*
D156*
X0143445Y0352138D03*
D157*
X0143740Y0352432D03*
D158*
X0143890Y0352726D03*
X0143890Y0374197D03*
D159*
X0144180Y0353020D03*
D160*
X0144475Y0353314D03*
D161*
X0144625Y0353609D03*
D162*
X0184770Y0353609D03*
D163*
X0235365Y0353609D03*
D164*
X0144920Y0353903D03*
X0144920Y0373020D03*
D165*
X0145210Y0372726D03*
X0145210Y0354197D03*
D166*
X0145360Y0354491D03*
X0145360Y0372432D03*
D167*
X0248595Y0354491D03*
D168*
X0145655Y0354785D03*
X0145655Y0372138D03*
D169*
X0145945Y0371844D03*
X0145945Y0355079D03*
D170*
X0146240Y0355373D03*
X0146240Y0371550D03*
D171*
X0170805Y0379785D03*
X0170805Y0380079D03*
X0191095Y0370667D03*
X0231095Y0383314D03*
X0246395Y0355373D03*
D172*
X0146390Y0355667D03*
X0146390Y0371256D03*
D173*
X0146680Y0370962D03*
X0146680Y0355962D03*
D174*
X0175510Y0355962D03*
X0194920Y0360962D03*
X0205510Y0360962D03*
X0187860Y0373609D03*
X0242570Y0370962D03*
D175*
X0226095Y0358609D03*
X0245215Y0355962D03*
D176*
X0146975Y0356256D03*
X0146975Y0370667D03*
D177*
X0147125Y0356550D03*
D178*
X0147420Y0356844D03*
D179*
X0147710Y0357138D03*
X0147710Y0369785D03*
D180*
X0147860Y0357432D03*
D181*
X0148155Y0357726D03*
D182*
X0148445Y0358020D03*
D183*
X0148740Y0358314D03*
D184*
X0148890Y0358609D03*
D185*
X0216980Y0358609D03*
D186*
X0149180Y0358903D03*
D187*
X0149475Y0359197D03*
D188*
X0150360Y0360373D03*
X0150360Y0366844D03*
X0170950Y0371256D03*
X0235950Y0362138D03*
X0235950Y0361844D03*
X0235950Y0361550D03*
X0235950Y0361256D03*
X0235950Y0360667D03*
X0235950Y0360373D03*
X0235950Y0360079D03*
X0235950Y0359785D03*
X0235950Y0359491D03*
X0235950Y0359197D03*
D189*
X0149625Y0359491D03*
X0149625Y0367726D03*
D190*
X0149920Y0367432D03*
X0149920Y0359785D03*
D191*
X0249625Y0360079D03*
D192*
X0249625Y0360373D03*
D193*
X0150655Y0360667D03*
X0150655Y0366550D03*
D194*
X0168745Y0360667D03*
X0171095Y0372432D03*
X0231095Y0381550D03*
D195*
X0168595Y0360962D03*
X0150945Y0360962D03*
D196*
X0221535Y0360962D03*
X0249775Y0360962D03*
D197*
X0235950Y0360962D03*
X0230950Y0368609D03*
X0230950Y0380962D03*
D198*
X0248300Y0382432D03*
X0221540Y0361256D03*
D199*
X0151390Y0361550D03*
X0151390Y0365667D03*
D200*
X0168010Y0361550D03*
X0230950Y0367432D03*
X0230950Y0382138D03*
D201*
X0247860Y0367726D03*
X0151680Y0365373D03*
X0151680Y0361844D03*
D202*
X0153005Y0363314D03*
X0153005Y0363903D03*
X0183305Y0378020D03*
X0183305Y0378314D03*
X0190655Y0372138D03*
X0190655Y0371844D03*
X0221535Y0361844D03*
X0249775Y0361844D03*
X0248305Y0383020D03*
D203*
X0152125Y0362432D03*
D204*
X0164920Y0366256D03*
X0199920Y0376256D03*
X0204920Y0378020D03*
X0204920Y0378314D03*
X0224920Y0377432D03*
X0249920Y0362432D03*
D205*
X0152420Y0362726D03*
X0152420Y0364491D03*
D206*
X0152710Y0364197D03*
X0152710Y0363020D03*
X0183600Y0377432D03*
X0190360Y0372726D03*
X0230950Y0383020D03*
X0248010Y0366844D03*
D207*
X0183155Y0378609D03*
X0153155Y0363609D03*
D208*
X0152270Y0364785D03*
X0247860Y0367138D03*
D209*
X0151095Y0365962D03*
D210*
X0217420Y0366256D03*
X0217420Y0366550D03*
X0217420Y0366844D03*
X0217420Y0367138D03*
X0217420Y0367432D03*
X0217420Y0367726D03*
X0217420Y0368020D03*
X0217420Y0368314D03*
X0217420Y0368903D03*
X0217420Y0369197D03*
D211*
X0227420Y0368903D03*
X0230950Y0366256D03*
X0234480Y0368903D03*
X0248300Y0383314D03*
X0170950Y0380373D03*
D212*
X0170950Y0379491D03*
X0183010Y0379197D03*
X0183010Y0378903D03*
X0190950Y0371256D03*
X0248010Y0366550D03*
D213*
X0150065Y0367138D03*
D214*
X0230950Y0367138D03*
X0230950Y0382432D03*
D215*
X0149330Y0368020D03*
D216*
X0171095Y0370079D03*
X0202865Y0370079D03*
X0249335Y0368020D03*
D217*
X0149035Y0368314D03*
D218*
X0249185Y0368314D03*
D219*
X0148740Y0368609D03*
D220*
X0217420Y0368609D03*
D221*
X0249040Y0368609D03*
D222*
X0148595Y0368903D03*
D223*
X0148300Y0369197D03*
D224*
X0148005Y0369491D03*
D225*
X0147565Y0370079D03*
D226*
X0191245Y0370079D03*
X0191245Y0370373D03*
D227*
X0147270Y0370373D03*
D228*
X0190950Y0370962D03*
D229*
X0202860Y0372432D03*
D230*
X0252420Y0372726D03*
X0252420Y0373020D03*
X0252420Y0373314D03*
X0252420Y0373903D03*
X0252420Y0374197D03*
X0252420Y0374491D03*
X0252420Y0374785D03*
X0252420Y0375079D03*
X0252420Y0375373D03*
D231*
X0144625Y0373314D03*
D232*
X0144330Y0373609D03*
D233*
X0252420Y0373609D03*
D234*
X0144035Y0373903D03*
D235*
X0143595Y0374491D03*
D236*
X0143300Y0374785D03*
D237*
X0143005Y0375079D03*
D238*
X0142565Y0375667D03*
D239*
X0142270Y0375962D03*
D240*
X0168010Y0375962D03*
X0168890Y0378609D03*
D241*
X0199775Y0375962D03*
X0200655Y0378609D03*
X0204775Y0378609D03*
D242*
X0141535Y0376844D03*
D243*
X0183450Y0377726D03*
D244*
X0182715Y0380079D03*
X0202715Y0380079D03*
X0202715Y0380373D03*
D245*
X0182420Y0380962D03*
D246*
X0202715Y0380962D03*
D247*
X0248305Y0380962D03*
D248*
X0231095Y0381844D03*
D249*
X0231095Y0382726D03*
D250*
X0266113Y0300441D03*
X0266113Y0300155D03*
X0266113Y0299584D03*
X0266113Y0299298D03*
X0266113Y0299012D03*
X0266113Y0298441D03*
X0266113Y0298155D03*
X0266113Y0297584D03*
X0266113Y0297298D03*
X0266113Y0297012D03*
X0266113Y0296441D03*
X0266113Y0296155D03*
X0266113Y0295584D03*
X0266113Y0295298D03*
X0266113Y0295012D03*
X0266113Y0294441D03*
X0266113Y0294155D03*
X0266113Y0293584D03*
X0266113Y0293298D03*
X0266113Y0293012D03*
X0266113Y0292441D03*
X0266113Y0292155D03*
X0266113Y0291584D03*
X0266113Y0291298D03*
X0266113Y0291012D03*
X0266113Y0290441D03*
X0266113Y0290155D03*
X0266113Y0289584D03*
X0266113Y0289298D03*
X0266113Y0289012D03*
X0266113Y0288441D03*
X0266113Y0288155D03*
X0266113Y0287584D03*
X0266113Y0287298D03*
X0266113Y0287012D03*
X0266113Y0286441D03*
X0266113Y0286155D03*
X0266113Y0285584D03*
X0266113Y0285298D03*
X0266113Y0285012D03*
X0266113Y0284441D03*
X0266113Y0284155D03*
X0266113Y0283584D03*
X0266113Y0283298D03*
X0266113Y0283012D03*
X0266113Y0282441D03*
X0266113Y0282155D03*
X0266113Y0281584D03*
X0266113Y0281298D03*
X0266113Y0281012D03*
X0266113Y0280441D03*
X0266113Y0280155D03*
X0266113Y0279584D03*
X0266113Y0279298D03*
X0266113Y0279012D03*
X0266113Y0278441D03*
X0266113Y0278155D03*
X0266113Y0277584D03*
X0266113Y0277298D03*
X0266113Y0277012D03*
X0266113Y0276441D03*
X0266113Y0276155D03*
X0266113Y0275584D03*
X0266113Y0275298D03*
X0266113Y0275012D03*
X0266113Y0274441D03*
X0266113Y0274155D03*
X0266113Y0273584D03*
X0266113Y0273298D03*
X0266113Y0273012D03*
X0266113Y0272441D03*
X0266113Y0272155D03*
X0266113Y0271584D03*
X0266113Y0271298D03*
X0266113Y0271012D03*
X0266113Y0270441D03*
X0266113Y0270155D03*
X0266113Y0269584D03*
X0266113Y0269298D03*
X0266113Y0269012D03*
X0266113Y0268441D03*
X0266113Y0268155D03*
X0266113Y0265584D03*
X0266113Y0265298D03*
X0266113Y0265012D03*
X0266113Y0264441D03*
X0266113Y0264155D03*
X0266113Y0263584D03*
X0266113Y0263298D03*
X0266113Y0263012D03*
X0266113Y0262441D03*
X0266113Y0262155D03*
X0266113Y0256441D03*
X0266113Y0256155D03*
X0266113Y0255584D03*
X0266113Y0255298D03*
X0266113Y0255012D03*
X0266113Y0254441D03*
X0266113Y0254155D03*
X0266113Y0253584D03*
X0266113Y0253298D03*
X0266113Y0253012D03*
X0266113Y0250441D03*
X0266113Y0250155D03*
X0266113Y0249584D03*
X0266113Y0249298D03*
X0266113Y0249012D03*
X0266113Y0248441D03*
X0266113Y0248155D03*
X0266113Y0247584D03*
X0266113Y0247298D03*
X0266113Y0247012D03*
X0266113Y0246441D03*
X0266113Y0246155D03*
X0266113Y0245584D03*
X0266113Y0245298D03*
X0266113Y0245012D03*
X0266113Y0244441D03*
X0266113Y0244155D03*
X0266113Y0243584D03*
X0266113Y0243298D03*
X0266113Y0243012D03*
X0266113Y0242441D03*
X0266113Y0242155D03*
X0266113Y0241584D03*
X0266113Y0241298D03*
X0266113Y0241012D03*
X0266113Y0240441D03*
X0266113Y0240155D03*
X0266113Y0239584D03*
X0266113Y0239298D03*
X0266113Y0239012D03*
X0266113Y0238441D03*
X0266113Y0238155D03*
X0266113Y0237584D03*
X0266113Y0237298D03*
X0266113Y0237012D03*
X0266113Y0236441D03*
X0266113Y0236155D03*
X0266113Y0235584D03*
X0266113Y0235298D03*
X0266113Y0235012D03*
X0266113Y0234441D03*
X0266113Y0234155D03*
X0266113Y0233584D03*
X0266113Y0233298D03*
X0266113Y0233012D03*
X0266113Y0232441D03*
X0266113Y0232155D03*
X0266113Y0231584D03*
X0266113Y0231298D03*
X0266113Y0231012D03*
X0266113Y0230441D03*
X0266113Y0230155D03*
X0266113Y0229584D03*
X0266113Y0229298D03*
X0266113Y0229012D03*
X0266113Y0228441D03*
X0266113Y0228155D03*
X0266113Y0227584D03*
X0266113Y0227298D03*
X0266113Y0227012D03*
X0266113Y0226441D03*
X0266113Y0226155D03*
X0266113Y0225584D03*
X0266113Y0225298D03*
X0266113Y0225012D03*
X0266113Y0224441D03*
X0266113Y0224155D03*
X0266113Y0223584D03*
X0266113Y0223298D03*
X0266113Y0223012D03*
X0266113Y0222441D03*
X0266113Y0222155D03*
X0266113Y0221584D03*
X0266113Y0221298D03*
X0266113Y0221012D03*
X0266113Y0220441D03*
X0266113Y0220155D03*
X0266113Y0219584D03*
X0266113Y0219298D03*
X0266113Y0219012D03*
X0266113Y0218441D03*
X0266113Y0218155D03*
X0266113Y0217584D03*
X0266113Y0217298D03*
X0266113Y0217012D03*
X0266113Y0216441D03*
X0266113Y0216155D03*
X0266113Y0215584D03*
X0266113Y0215298D03*
X0266113Y0215012D03*
X0266113Y0214441D03*
X0266113Y0214155D03*
X0266113Y0213584D03*
X0266113Y0213298D03*
X0266113Y0213012D03*
X0266113Y0212441D03*
X0266113Y0212155D03*
X0266113Y0211584D03*
X0266113Y0211298D03*
X0266113Y0211012D03*
X0266113Y0210441D03*
X0266113Y0210155D03*
X0266113Y0209584D03*
X0266113Y0209298D03*
X0266113Y0209012D03*
X0266113Y0208441D03*
X0266113Y0208155D03*
X0266113Y0207584D03*
X0266113Y0207298D03*
X0266113Y0207012D03*
X0266113Y0206441D03*
X0266113Y0206155D03*
X0266113Y0205584D03*
X0266113Y0205298D03*
X0266113Y0205012D03*
X0266113Y0204441D03*
X0266113Y0204155D03*
X0266113Y0203584D03*
X0266113Y0203298D03*
X0266113Y0203012D03*
X0266113Y0202441D03*
X0266113Y0202155D03*
X0266113Y0201584D03*
X0266113Y0201298D03*
X0266113Y0201012D03*
X0266113Y0200441D03*
X0266113Y0200155D03*
X0266113Y0199584D03*
X0266113Y0199298D03*
X0266113Y0199012D03*
X0266113Y0198441D03*
X0266113Y0198155D03*
X0266113Y0197584D03*
X0266113Y0197298D03*
X0266113Y0197012D03*
X0266113Y0196441D03*
X0266113Y0196155D03*
X0266113Y0195584D03*
X0266113Y0195298D03*
X0266113Y0195012D03*
X0266113Y0194441D03*
X0266113Y0194155D03*
X0266113Y0193584D03*
X0266113Y0193298D03*
X0266113Y0193012D03*
X0266113Y0192441D03*
X0266113Y0192155D03*
X0266113Y0191584D03*
X0266113Y0191298D03*
X0290113Y0191298D03*
X0290113Y0191584D03*
X0290113Y0192155D03*
X0290113Y0192441D03*
X0290113Y0193012D03*
X0290113Y0193298D03*
X0290113Y0193584D03*
X0290113Y0194155D03*
X0290113Y0194441D03*
X0290113Y0195012D03*
X0290113Y0195298D03*
X0290113Y0195584D03*
X0290113Y0196155D03*
X0290113Y0196441D03*
X0290113Y0197012D03*
X0290113Y0197298D03*
X0290113Y0197584D03*
X0290113Y0198155D03*
X0290113Y0198441D03*
X0290113Y0199012D03*
X0290113Y0199298D03*
X0290113Y0199584D03*
X0290113Y0200155D03*
X0290113Y0200441D03*
X0290113Y0201012D03*
X0290113Y0201298D03*
X0290113Y0201584D03*
X0290113Y0202155D03*
X0290113Y0202441D03*
X0290113Y0203012D03*
X0290113Y0203298D03*
X0290113Y0203584D03*
X0290113Y0204155D03*
X0290113Y0204441D03*
X0290113Y0205012D03*
X0290113Y0205298D03*
X0290113Y0205584D03*
X0290113Y0206155D03*
X0290113Y0206441D03*
X0290113Y0207012D03*
X0290113Y0207298D03*
X0290113Y0207584D03*
X0290113Y0208155D03*
X0290113Y0208441D03*
X0290113Y0209012D03*
X0290113Y0209298D03*
X0290113Y0209584D03*
X0290113Y0210155D03*
X0290113Y0210441D03*
X0290113Y0211012D03*
X0290113Y0211298D03*
X0290113Y0211584D03*
X0290113Y0212155D03*
X0290113Y0212441D03*
X0290113Y0213012D03*
X0290113Y0213298D03*
X0290113Y0213584D03*
X0290113Y0214155D03*
X0290113Y0214441D03*
X0290113Y0215012D03*
X0290113Y0215298D03*
X0290113Y0215584D03*
X0290113Y0216155D03*
X0290113Y0216441D03*
X0290113Y0217012D03*
X0290113Y0217298D03*
X0290113Y0217584D03*
X0290113Y0218155D03*
X0290113Y0218441D03*
X0290113Y0219012D03*
X0290113Y0219298D03*
X0290113Y0219584D03*
X0290113Y0220155D03*
X0290113Y0220441D03*
X0290113Y0221012D03*
X0290113Y0221298D03*
X0290113Y0221584D03*
X0290113Y0222155D03*
X0290113Y0222441D03*
X0290113Y0223012D03*
X0290113Y0223298D03*
X0290113Y0223584D03*
X0290113Y0224155D03*
X0290113Y0224441D03*
X0290113Y0225012D03*
X0290113Y0225298D03*
X0290113Y0225584D03*
X0290113Y0226155D03*
X0290113Y0226441D03*
X0290113Y0227012D03*
X0290113Y0227298D03*
X0290113Y0227584D03*
X0290113Y0228155D03*
X0290113Y0228441D03*
X0290113Y0229012D03*
X0290113Y0229298D03*
X0290113Y0229584D03*
X0290113Y0230155D03*
X0290113Y0230441D03*
X0290113Y0231012D03*
X0290113Y0231298D03*
X0290113Y0231584D03*
X0290113Y0232155D03*
X0290113Y0232441D03*
X0290113Y0233012D03*
X0290113Y0233298D03*
X0290113Y0233584D03*
X0290113Y0234155D03*
X0290113Y0234441D03*
X0290113Y0235012D03*
X0290113Y0235298D03*
X0290113Y0235584D03*
X0290113Y0236155D03*
X0290113Y0236441D03*
X0290113Y0237012D03*
X0290113Y0237298D03*
X0290113Y0237584D03*
X0290113Y0238155D03*
X0290113Y0238441D03*
X0290113Y0239012D03*
X0290113Y0239298D03*
X0290113Y0239584D03*
X0290113Y0240155D03*
X0290113Y0240441D03*
X0290113Y0241012D03*
X0290113Y0241298D03*
X0290113Y0241584D03*
X0290113Y0242155D03*
X0290113Y0242441D03*
X0290113Y0243012D03*
X0290113Y0243298D03*
X0290113Y0243584D03*
X0290113Y0244155D03*
X0290113Y0244441D03*
X0290113Y0245012D03*
X0290113Y0245298D03*
X0290113Y0245584D03*
X0290113Y0246155D03*
X0290113Y0246441D03*
X0290113Y0247012D03*
X0290113Y0247298D03*
X0290113Y0247584D03*
X0290113Y0248155D03*
X0290113Y0248441D03*
X0290113Y0249012D03*
X0290113Y0249298D03*
X0290113Y0249584D03*
X0290113Y0250155D03*
X0290113Y0250441D03*
X0290113Y0251012D03*
X0290113Y0251298D03*
X0290113Y0251584D03*
X0290113Y0252155D03*
X0290113Y0252441D03*
X0290113Y0253012D03*
X0290113Y0253298D03*
X0290113Y0253584D03*
X0290113Y0254155D03*
X0290113Y0254441D03*
X0290113Y0262155D03*
X0290113Y0262441D03*
X0290113Y0263012D03*
X0290113Y0263298D03*
X0290113Y0263584D03*
X0290113Y0264155D03*
X0290113Y0264441D03*
X0290113Y0265012D03*
X0290113Y0265298D03*
X0290113Y0265584D03*
X0290113Y0268155D03*
X0290113Y0268441D03*
X0290113Y0269012D03*
X0290113Y0269298D03*
X0290113Y0269584D03*
X0290113Y0270155D03*
X0290113Y0270441D03*
X0290113Y0271012D03*
X0290113Y0271298D03*
X0290113Y0271584D03*
X0290113Y0272155D03*
X0290113Y0272441D03*
X0290113Y0273012D03*
X0290113Y0273298D03*
X0290113Y0273584D03*
X0290113Y0274155D03*
X0290113Y0274441D03*
X0290113Y0275012D03*
X0290113Y0275298D03*
X0290113Y0275584D03*
X0290113Y0276155D03*
X0290113Y0276441D03*
X0290113Y0277012D03*
X0290113Y0277298D03*
X0290113Y0277584D03*
X0290113Y0278155D03*
X0290113Y0278441D03*
X0290113Y0279012D03*
X0290113Y0279298D03*
X0290113Y0279584D03*
X0290113Y0280155D03*
X0290113Y0280441D03*
X0290113Y0281012D03*
X0290113Y0281298D03*
X0290113Y0281584D03*
X0290113Y0282155D03*
X0290113Y0282441D03*
X0290113Y0283012D03*
X0290113Y0283298D03*
X0290113Y0283584D03*
X0290113Y0284155D03*
X0290113Y0284441D03*
X0290113Y0285012D03*
X0290113Y0285298D03*
X0290113Y0285584D03*
X0290113Y0286155D03*
X0290113Y0286441D03*
X0290113Y0287012D03*
X0290113Y0287298D03*
X0290113Y0287584D03*
X0290113Y0288155D03*
X0290113Y0288441D03*
X0290113Y0289012D03*
X0290113Y0289298D03*
X0290113Y0289584D03*
X0290113Y0290155D03*
X0290113Y0290441D03*
X0290113Y0291012D03*
X0290113Y0291298D03*
X0290113Y0291584D03*
X0290113Y0292155D03*
X0290113Y0292441D03*
X0290113Y0293012D03*
X0290113Y0293298D03*
X0290113Y0293584D03*
X0290113Y0294155D03*
X0290113Y0294441D03*
X0290113Y0295012D03*
X0290113Y0295298D03*
X0290113Y0295584D03*
X0290113Y0296155D03*
X0290113Y0296441D03*
X0290113Y0297012D03*
X0290113Y0297298D03*
X0290113Y0297584D03*
X0290113Y0298155D03*
X0290113Y0298441D03*
X0290113Y0299012D03*
X0290113Y0299298D03*
X0290113Y0299584D03*
X0290113Y0300155D03*
X0290113Y0300441D03*
D251*
X0275253Y0191298D03*
D252*
X0278108Y0197012D03*
X0278108Y0197298D03*
X0278108Y0197584D03*
X0278108Y0198155D03*
X0278108Y0198441D03*
X0278108Y0199012D03*
X0278108Y0199298D03*
X0278108Y0199584D03*
X0278108Y0200155D03*
X0278108Y0200441D03*
X0278108Y0201012D03*
X0278108Y0201298D03*
X0278108Y0201584D03*
X0278108Y0202155D03*
X0278108Y0202441D03*
X0278108Y0203012D03*
X0278108Y0203298D03*
X0283828Y0203298D03*
X0283828Y0203012D03*
X0283828Y0202441D03*
X0283828Y0202155D03*
X0283828Y0201584D03*
X0283828Y0201298D03*
X0283828Y0201012D03*
X0283828Y0200441D03*
X0283828Y0200155D03*
X0283828Y0199584D03*
X0283828Y0199298D03*
X0283828Y0199012D03*
X0283828Y0198441D03*
X0283828Y0198155D03*
X0283828Y0197584D03*
X0283828Y0197298D03*
X0283828Y0197012D03*
X0283828Y0196441D03*
X0283828Y0196155D03*
X0283828Y0195584D03*
X0283828Y0195298D03*
X0283828Y0195012D03*
X0283828Y0194441D03*
X0283828Y0194155D03*
X0283828Y0193584D03*
X0283828Y0193298D03*
X0283828Y0193012D03*
X0283828Y0192441D03*
X0283828Y0192155D03*
X0283828Y0191584D03*
X0283828Y0191298D03*
X0283828Y0203584D03*
X0283828Y0216441D03*
X0283828Y0217012D03*
X0283828Y0217298D03*
X0283828Y0217584D03*
X0283828Y0218155D03*
X0283828Y0218441D03*
X0283828Y0219012D03*
X0283828Y0219298D03*
X0283828Y0219584D03*
X0283828Y0220155D03*
X0283828Y0220441D03*
X0283828Y0221012D03*
X0283828Y0221298D03*
X0283828Y0221584D03*
X0283828Y0222155D03*
X0283828Y0222441D03*
X0283828Y0223012D03*
X0283828Y0223298D03*
X0278108Y0223298D03*
X0278108Y0223012D03*
X0278108Y0222441D03*
X0278108Y0222155D03*
X0278108Y0221584D03*
X0278108Y0221298D03*
X0278108Y0221012D03*
X0278108Y0220441D03*
X0278108Y0220155D03*
X0278108Y0219584D03*
X0278108Y0219298D03*
X0278108Y0219012D03*
X0278108Y0218441D03*
X0278108Y0218155D03*
X0278108Y0217584D03*
X0278108Y0217298D03*
X0278108Y0217012D03*
X0278108Y0216441D03*
X0272398Y0223584D03*
X0278108Y0269012D03*
X0278108Y0269298D03*
X0278108Y0269584D03*
X0278108Y0270155D03*
X0278108Y0270441D03*
X0278108Y0271012D03*
X0278108Y0271298D03*
X0278108Y0271584D03*
X0278108Y0272155D03*
X0278108Y0272441D03*
X0278108Y0273012D03*
X0278108Y0273298D03*
X0278108Y0273584D03*
X0278108Y0274155D03*
X0278108Y0274441D03*
X0278108Y0275012D03*
X0278108Y0275298D03*
X0278108Y0275584D03*
X0278108Y0276155D03*
X0283828Y0276155D03*
X0283828Y0276441D03*
X0283828Y0277012D03*
X0283828Y0277298D03*
X0283828Y0277584D03*
X0283828Y0278155D03*
X0283828Y0278441D03*
X0283828Y0279012D03*
X0283828Y0279298D03*
X0283828Y0279584D03*
X0283828Y0280155D03*
X0283828Y0280441D03*
X0283828Y0281012D03*
X0283828Y0275584D03*
X0283828Y0275298D03*
X0283828Y0275012D03*
X0283828Y0274441D03*
X0283828Y0274155D03*
X0283828Y0273584D03*
X0283828Y0273298D03*
X0283828Y0273012D03*
X0283828Y0272441D03*
X0283828Y0272155D03*
X0283828Y0271584D03*
X0283828Y0271298D03*
X0283828Y0271012D03*
X0283828Y0270441D03*
X0283828Y0270155D03*
X0283828Y0269584D03*
X0283828Y0269298D03*
X0283828Y0269012D03*
X0283828Y0289012D03*
X0283828Y0289298D03*
X0283828Y0289584D03*
X0283828Y0290155D03*
X0283828Y0290441D03*
X0283828Y0291012D03*
X0283828Y0291298D03*
X0283828Y0291584D03*
X0283828Y0292155D03*
X0283828Y0292441D03*
X0283828Y0293012D03*
X0283828Y0293298D03*
X0283828Y0293584D03*
X0283828Y0294155D03*
X0283828Y0294441D03*
X0283828Y0295012D03*
X0283828Y0295298D03*
X0283828Y0295584D03*
D253*
X0275253Y0191584D03*
D254*
X0266113Y0191870D03*
X0266113Y0192727D03*
X0266113Y0193870D03*
X0266113Y0194727D03*
X0266113Y0195870D03*
X0266113Y0196727D03*
X0266113Y0197870D03*
X0266113Y0198727D03*
X0266113Y0199870D03*
X0266113Y0200727D03*
X0266113Y0201870D03*
X0266113Y0202727D03*
X0266113Y0203870D03*
X0266113Y0204727D03*
X0266113Y0205870D03*
X0266113Y0206727D03*
X0266113Y0207870D03*
X0266113Y0208727D03*
X0266113Y0209870D03*
X0266113Y0210727D03*
X0266113Y0211870D03*
X0266113Y0212727D03*
X0266113Y0213870D03*
X0266113Y0214727D03*
X0266113Y0215870D03*
X0266113Y0216727D03*
X0266113Y0217870D03*
X0266113Y0218727D03*
X0266113Y0219870D03*
X0266113Y0220727D03*
X0266113Y0221870D03*
X0266113Y0222727D03*
X0266113Y0223870D03*
X0266113Y0224727D03*
X0266113Y0225870D03*
X0266113Y0226727D03*
X0266113Y0227870D03*
X0266113Y0228727D03*
X0266113Y0229870D03*
X0266113Y0230727D03*
X0266113Y0231870D03*
X0266113Y0232727D03*
X0266113Y0233870D03*
X0266113Y0234727D03*
X0266113Y0235870D03*
X0266113Y0236727D03*
X0266113Y0237870D03*
X0266113Y0238727D03*
X0266113Y0239870D03*
X0266113Y0240727D03*
X0266113Y0241870D03*
X0266113Y0242727D03*
X0266113Y0243870D03*
X0266113Y0244727D03*
X0266113Y0245870D03*
X0266113Y0246727D03*
X0266113Y0247870D03*
X0266113Y0248727D03*
X0266113Y0249870D03*
X0266113Y0252727D03*
X0266113Y0253870D03*
X0266113Y0254727D03*
X0266113Y0255870D03*
X0266113Y0256727D03*
X0266113Y0261870D03*
X0266113Y0262727D03*
X0266113Y0263870D03*
X0266113Y0264727D03*
X0266113Y0268727D03*
X0266113Y0269870D03*
X0266113Y0270727D03*
X0266113Y0271870D03*
X0266113Y0272727D03*
X0266113Y0273870D03*
X0266113Y0274727D03*
X0266113Y0275870D03*
X0266113Y0276727D03*
X0266113Y0277870D03*
X0266113Y0278727D03*
X0266113Y0279870D03*
X0266113Y0280727D03*
X0266113Y0281870D03*
X0266113Y0282727D03*
X0266113Y0283870D03*
X0266113Y0284727D03*
X0266113Y0285870D03*
X0266113Y0286727D03*
X0266113Y0287870D03*
X0266113Y0288727D03*
X0266113Y0289870D03*
X0266113Y0290727D03*
X0266113Y0291870D03*
X0266113Y0292727D03*
X0266113Y0293870D03*
X0266113Y0294727D03*
X0266113Y0295870D03*
X0266113Y0296727D03*
X0266113Y0297870D03*
X0266113Y0298727D03*
X0266113Y0299870D03*
X0266113Y0300727D03*
X0274683Y0300727D03*
X0290113Y0300727D03*
X0290113Y0299870D03*
X0290113Y0298727D03*
X0290113Y0297870D03*
X0290113Y0296727D03*
X0290113Y0295870D03*
X0290113Y0294727D03*
X0290113Y0293870D03*
X0290113Y0292727D03*
X0290113Y0291870D03*
X0290113Y0290727D03*
X0290113Y0289870D03*
X0290113Y0288727D03*
X0290113Y0287870D03*
X0290113Y0286727D03*
X0290113Y0285870D03*
X0290113Y0284727D03*
X0290113Y0283870D03*
X0290113Y0282727D03*
X0290113Y0281870D03*
X0290113Y0280727D03*
X0290113Y0279870D03*
X0290113Y0278727D03*
X0290113Y0277870D03*
X0290113Y0276727D03*
X0290113Y0275870D03*
X0290113Y0274727D03*
X0290113Y0273870D03*
X0290113Y0272727D03*
X0290113Y0271870D03*
X0290113Y0270727D03*
X0290113Y0269870D03*
X0290113Y0268727D03*
X0290113Y0264727D03*
X0290113Y0263870D03*
X0290113Y0262727D03*
X0290113Y0261870D03*
X0290113Y0254727D03*
X0290113Y0253870D03*
X0290113Y0252727D03*
X0290113Y0251870D03*
X0290113Y0250727D03*
X0290113Y0249870D03*
X0290113Y0248727D03*
X0290113Y0247870D03*
X0290113Y0246727D03*
X0290113Y0245870D03*
X0290113Y0244727D03*
X0290113Y0243870D03*
X0290113Y0242727D03*
X0290113Y0241870D03*
X0290113Y0240727D03*
X0290113Y0239870D03*
X0290113Y0238727D03*
X0290113Y0237870D03*
X0290113Y0236727D03*
X0290113Y0235870D03*
X0290113Y0234727D03*
X0290113Y0233870D03*
X0290113Y0232727D03*
X0290113Y0231870D03*
X0290113Y0230727D03*
X0290113Y0229870D03*
X0290113Y0228727D03*
X0290113Y0227870D03*
X0290113Y0226727D03*
X0290113Y0225870D03*
X0290113Y0224727D03*
X0290113Y0223870D03*
X0290113Y0222727D03*
X0290113Y0221870D03*
X0290113Y0220727D03*
X0290113Y0219870D03*
X0290113Y0218727D03*
X0290113Y0217870D03*
X0290113Y0216727D03*
X0290113Y0215870D03*
X0290113Y0214727D03*
X0290113Y0213870D03*
X0290113Y0212727D03*
X0290113Y0211870D03*
X0290113Y0210727D03*
X0290113Y0209870D03*
X0290113Y0208727D03*
X0290113Y0207870D03*
X0290113Y0206727D03*
X0290113Y0205870D03*
X0290113Y0204727D03*
X0290113Y0203870D03*
X0290113Y0202727D03*
X0290113Y0201870D03*
X0290113Y0200727D03*
X0290113Y0199870D03*
X0290113Y0198727D03*
X0290113Y0197870D03*
X0290113Y0196727D03*
X0290113Y0195870D03*
X0290113Y0194727D03*
X0290113Y0193870D03*
X0290113Y0192727D03*
X0290113Y0191870D03*
D255*
X0275113Y0191870D03*
D256*
X0278108Y0196727D03*
X0278108Y0197870D03*
X0278108Y0198727D03*
X0278108Y0199870D03*
X0278108Y0200727D03*
X0278108Y0201870D03*
X0278108Y0202727D03*
X0283828Y0202727D03*
X0283828Y0201870D03*
X0283828Y0200727D03*
X0283828Y0199870D03*
X0283828Y0198727D03*
X0283828Y0197870D03*
X0283828Y0196727D03*
X0283828Y0195870D03*
X0283828Y0194727D03*
X0283828Y0193870D03*
X0283828Y0192727D03*
X0283828Y0191870D03*
X0283828Y0216727D03*
X0283828Y0217870D03*
X0283828Y0218727D03*
X0283828Y0219870D03*
X0283828Y0220727D03*
X0283828Y0221870D03*
X0283828Y0222727D03*
X0278108Y0222727D03*
X0278108Y0221870D03*
X0278108Y0220727D03*
X0278108Y0219870D03*
X0278108Y0218727D03*
X0278108Y0217870D03*
X0278108Y0216727D03*
X0278108Y0269870D03*
X0278108Y0270727D03*
X0278108Y0271870D03*
X0278108Y0272727D03*
X0278108Y0273870D03*
X0278108Y0274727D03*
X0278108Y0275870D03*
X0283828Y0275870D03*
X0283828Y0276727D03*
X0283828Y0277870D03*
X0283828Y0278727D03*
X0283828Y0279870D03*
X0283828Y0280727D03*
X0283828Y0274727D03*
X0283828Y0273870D03*
X0283828Y0272727D03*
X0283828Y0271870D03*
X0283828Y0270727D03*
X0283828Y0269870D03*
X0283828Y0289870D03*
X0283828Y0290727D03*
X0283828Y0291870D03*
X0283828Y0292727D03*
X0283828Y0293870D03*
X0283828Y0294727D03*
X0283828Y0295870D03*
D257*
X0275108Y0192155D03*
D258*
X0275108Y0192441D03*
D259*
X0275253Y0192727D03*
D260*
X0275253Y0193012D03*
D261*
X0275113Y0193298D03*
X0280823Y0213012D03*
X0275393Y0279584D03*
D262*
X0275253Y0279298D03*
X0275253Y0279012D03*
X0275253Y0278441D03*
X0275253Y0278155D03*
X0275253Y0277584D03*
X0275253Y0277298D03*
X0275253Y0277012D03*
X0275253Y0276441D03*
X0275253Y0196441D03*
X0275253Y0196155D03*
X0275253Y0195584D03*
X0275253Y0195298D03*
X0275253Y0195012D03*
X0275253Y0194441D03*
X0275253Y0194155D03*
X0275253Y0193584D03*
D263*
X0275253Y0193870D03*
X0275253Y0194727D03*
X0275253Y0195870D03*
X0275253Y0276727D03*
X0275253Y0277870D03*
X0275253Y0278727D03*
D264*
X0272253Y0275870D03*
X0272253Y0274727D03*
X0272253Y0273870D03*
X0272253Y0272727D03*
X0272253Y0271870D03*
X0272253Y0270727D03*
X0272253Y0269870D03*
X0272253Y0289870D03*
X0272253Y0290727D03*
X0272253Y0291870D03*
X0272253Y0292727D03*
X0272253Y0293870D03*
X0272253Y0294727D03*
X0272253Y0295870D03*
X0272253Y0248727D03*
X0272253Y0247870D03*
X0272253Y0246727D03*
X0272253Y0245870D03*
X0272253Y0239870D03*
X0272253Y0238727D03*
X0272253Y0237870D03*
X0272253Y0236727D03*
X0272253Y0235870D03*
X0272253Y0222727D03*
X0272253Y0221870D03*
X0272253Y0220727D03*
X0272253Y0219870D03*
X0272253Y0218727D03*
X0272253Y0217870D03*
X0272253Y0216727D03*
X0272253Y0215870D03*
X0272253Y0214727D03*
X0272253Y0213870D03*
X0272253Y0212727D03*
X0272253Y0211870D03*
X0272253Y0208727D03*
X0272253Y0207870D03*
X0272253Y0206727D03*
X0272253Y0205870D03*
X0272253Y0204727D03*
X0272253Y0203870D03*
X0272253Y0202727D03*
X0272253Y0201870D03*
X0272253Y0200727D03*
X0272253Y0199870D03*
X0272253Y0198727D03*
X0272253Y0197870D03*
X0272253Y0196727D03*
D265*
X0272253Y0197012D03*
X0272253Y0197298D03*
X0272253Y0197584D03*
X0272253Y0198155D03*
X0272253Y0198441D03*
X0272253Y0199012D03*
X0272253Y0199298D03*
X0272253Y0199584D03*
X0272253Y0200155D03*
X0272253Y0200441D03*
X0272253Y0201012D03*
X0272253Y0201298D03*
X0272253Y0201584D03*
X0272253Y0202155D03*
X0272253Y0202441D03*
X0272253Y0203012D03*
X0272253Y0203298D03*
X0272253Y0203584D03*
X0272253Y0204155D03*
X0272253Y0204441D03*
X0272253Y0205012D03*
X0272253Y0205298D03*
X0272253Y0205584D03*
X0272253Y0206155D03*
X0272253Y0206441D03*
X0272253Y0207012D03*
X0272253Y0207298D03*
X0272253Y0207584D03*
X0272253Y0208155D03*
X0272253Y0208441D03*
X0272253Y0211584D03*
X0272253Y0212155D03*
X0272253Y0212441D03*
X0272253Y0213012D03*
X0272253Y0213298D03*
X0272253Y0213584D03*
X0272253Y0214155D03*
X0272253Y0214441D03*
X0272253Y0215012D03*
X0272253Y0215298D03*
X0272253Y0215584D03*
X0272253Y0216155D03*
X0272253Y0216441D03*
X0272253Y0217012D03*
X0272253Y0217298D03*
X0272253Y0217584D03*
X0272253Y0218155D03*
X0272253Y0218441D03*
X0272253Y0219012D03*
X0272253Y0219298D03*
X0272253Y0219584D03*
X0272253Y0220155D03*
X0272253Y0220441D03*
X0272253Y0221012D03*
X0272253Y0221298D03*
X0272253Y0221584D03*
X0272253Y0222155D03*
X0272253Y0222441D03*
X0272253Y0223012D03*
X0272253Y0223298D03*
X0272253Y0236155D03*
X0272253Y0236441D03*
X0272253Y0237012D03*
X0272253Y0237298D03*
X0272253Y0237584D03*
X0272253Y0238155D03*
X0272253Y0238441D03*
X0272253Y0239012D03*
X0272253Y0239298D03*
X0272253Y0239584D03*
X0272253Y0240155D03*
X0272253Y0245298D03*
X0272253Y0245584D03*
X0272253Y0246155D03*
X0272253Y0246441D03*
X0272253Y0247012D03*
X0272253Y0247298D03*
X0272253Y0247584D03*
X0272253Y0248155D03*
X0272253Y0248441D03*
X0272253Y0249012D03*
X0272253Y0249298D03*
X0272253Y0249584D03*
X0272253Y0269012D03*
X0272253Y0269298D03*
X0272253Y0269584D03*
X0272253Y0270155D03*
X0272253Y0270441D03*
X0272253Y0271012D03*
X0272253Y0271298D03*
X0272253Y0271584D03*
X0272253Y0272155D03*
X0272253Y0272441D03*
X0272253Y0273012D03*
X0272253Y0273298D03*
X0272253Y0273584D03*
X0272253Y0274155D03*
X0272253Y0274441D03*
X0272253Y0275012D03*
X0272253Y0275298D03*
X0272253Y0275584D03*
X0272253Y0276155D03*
X0272253Y0289012D03*
X0272253Y0289298D03*
X0272253Y0289584D03*
X0272253Y0290155D03*
X0272253Y0290441D03*
X0272253Y0291012D03*
X0272253Y0291298D03*
X0272253Y0291584D03*
X0272253Y0292155D03*
X0272253Y0292441D03*
X0272253Y0293012D03*
X0272253Y0293298D03*
X0272253Y0293584D03*
X0272253Y0294155D03*
X0272253Y0294441D03*
X0272253Y0295012D03*
X0272253Y0295298D03*
X0272253Y0295584D03*
D266*
X0277968Y0203584D03*
D267*
X0280968Y0203870D03*
X0280968Y0204727D03*
X0280968Y0205870D03*
X0280968Y0206727D03*
X0280968Y0213870D03*
X0280968Y0214727D03*
X0280968Y0215870D03*
D268*
X0280968Y0216155D03*
X0280968Y0215584D03*
X0280968Y0215298D03*
X0280968Y0215012D03*
X0280968Y0214441D03*
X0280968Y0214155D03*
X0280968Y0213584D03*
X0280968Y0213298D03*
X0280968Y0207012D03*
X0280968Y0206441D03*
X0280968Y0206155D03*
X0280968Y0205584D03*
X0280968Y0205298D03*
X0280968Y0205012D03*
X0280968Y0204441D03*
X0280968Y0204155D03*
D269*
X0280968Y0207298D03*
X0280968Y0207584D03*
X0275538Y0280155D03*
D270*
X0280963Y0207870D03*
D271*
X0280968Y0208155D03*
D272*
X0280968Y0208441D03*
D273*
X0280968Y0208727D03*
X0280968Y0300727D03*
D274*
X0273683Y0211298D03*
X0270823Y0211298D03*
D275*
X0280968Y0211584D03*
X0281538Y0300155D03*
D276*
X0280968Y0211870D03*
D277*
X0280823Y0212155D03*
D278*
X0280823Y0212441D03*
X0275683Y0280441D03*
D279*
X0280968Y0212727D03*
D280*
X0277108Y0223584D03*
D281*
X0283683Y0223584D03*
D282*
X0278113Y0223870D03*
X0278113Y0224727D03*
X0278113Y0225870D03*
X0278113Y0233870D03*
X0278113Y0234727D03*
X0278113Y0240727D03*
X0278113Y0244727D03*
X0278113Y0249870D03*
X0278113Y0250727D03*
X0278113Y0251870D03*
X0278113Y0252727D03*
X0278113Y0265870D03*
X0278113Y0266727D03*
X0278113Y0267870D03*
X0278113Y0268727D03*
X0278113Y0285870D03*
X0278113Y0286727D03*
X0278113Y0287870D03*
X0278113Y0288727D03*
D283*
X0278113Y0288441D03*
X0278113Y0288155D03*
X0278113Y0287584D03*
X0278113Y0287298D03*
X0278113Y0287012D03*
X0278113Y0286441D03*
X0278113Y0286155D03*
X0278113Y0285584D03*
X0278113Y0285298D03*
X0278113Y0268441D03*
X0278113Y0268155D03*
X0278113Y0267584D03*
X0278113Y0267298D03*
X0278113Y0267012D03*
X0278113Y0266441D03*
X0278113Y0266155D03*
X0278113Y0252441D03*
X0278113Y0252155D03*
X0278113Y0251584D03*
X0278113Y0251298D03*
X0278113Y0251012D03*
X0278113Y0250441D03*
X0278113Y0250155D03*
X0278113Y0245012D03*
X0278113Y0241012D03*
X0278113Y0240441D03*
X0278113Y0235584D03*
X0278113Y0235298D03*
X0278113Y0235012D03*
X0278113Y0234441D03*
X0278113Y0234155D03*
X0278113Y0233584D03*
X0278113Y0233298D03*
X0278113Y0233012D03*
X0278113Y0226441D03*
X0278113Y0226155D03*
X0278113Y0225584D03*
X0278113Y0225298D03*
X0278113Y0225012D03*
X0278113Y0224441D03*
X0278113Y0224155D03*
D284*
X0278253Y0226727D03*
X0278253Y0232727D03*
D285*
X0278253Y0232441D03*
X0278253Y0227012D03*
X0278253Y0241298D03*
X0278253Y0241584D03*
X0278253Y0244155D03*
X0278253Y0244441D03*
X0278253Y0253012D03*
X0278253Y0253298D03*
D286*
X0278398Y0253584D03*
X0278398Y0243584D03*
X0278398Y0232155D03*
X0278398Y0227584D03*
X0278398Y0227298D03*
X0278108Y0265298D03*
X0278108Y0265584D03*
X0278108Y0285012D03*
D287*
X0278543Y0253870D03*
X0278543Y0227870D03*
D288*
X0278828Y0228155D03*
X0278828Y0231298D03*
X0278828Y0243012D03*
X0278828Y0254155D03*
D289*
X0278543Y0243298D03*
X0278543Y0242155D03*
X0278543Y0231584D03*
D290*
X0278398Y0231870D03*
X0278398Y0241870D03*
X0278398Y0243870D03*
X0278108Y0284727D03*
D291*
X0278683Y0242441D03*
D292*
X0278968Y0242727D03*
D293*
X0275253Y0257012D03*
D294*
X0275538Y0257298D03*
D295*
X0275683Y0257584D03*
D296*
X0275828Y0257870D03*
D297*
X0275968Y0258155D03*
X0275968Y0258441D03*
D298*
X0275968Y0258727D03*
D299*
X0276113Y0259012D03*
X0276113Y0259298D03*
X0276113Y0259584D03*
X0276113Y0260155D03*
X0276113Y0260441D03*
X0276113Y0261012D03*
X0276113Y0261298D03*
X0276113Y0261584D03*
D300*
X0276113Y0260727D03*
X0276113Y0259870D03*
D301*
X0278108Y0264155D03*
D302*
X0278108Y0264441D03*
D303*
X0278113Y0264727D03*
D304*
X0278108Y0265012D03*
X0278108Y0284441D03*
D305*
X0275393Y0279870D03*
D306*
X0275968Y0280727D03*
D307*
X0276253Y0281012D03*
D308*
X0278253Y0283584D03*
D309*
X0278108Y0283870D03*
D310*
X0278113Y0284155D03*
D311*
X0273683Y0296155D03*
X0273683Y0296441D03*
X0273683Y0297012D03*
X0273683Y0297298D03*
X0273683Y0297584D03*
X0273683Y0298155D03*
X0273683Y0298441D03*
X0273683Y0299012D03*
X0281393Y0300441D03*
D312*
X0281968Y0299012D03*
X0281968Y0298441D03*
X0281968Y0298155D03*
X0281968Y0297584D03*
X0281968Y0297298D03*
X0281968Y0297012D03*
X0281968Y0296441D03*
X0281968Y0296155D03*
D313*
X0273683Y0296727D03*
X0273683Y0297870D03*
X0273683Y0298727D03*
D314*
X0281968Y0298727D03*
X0281968Y0297870D03*
X0281968Y0296727D03*
D315*
X0273823Y0299298D03*
X0273823Y0299584D03*
D316*
X0281823Y0299584D03*
X0281823Y0299298D03*
D317*
X0273968Y0299870D03*
D318*
X0281678Y0299870D03*
D319*
X0274113Y0300155D03*
D320*
X0274253Y0300441D03*
D321*
X0236624Y0304640D02*
X0232488Y0304640D01*
X0236622Y0304657D02*
X0236622Y0201757D01*
X0140165Y0201757D01*
X0140165Y0304657D01*
X0140194Y0304640D02*
X0144693Y0304640D01*
X0156898Y0317239D02*
X0156898Y0321963D01*
X0219890Y0321963D01*
X0219890Y0317239D01*
X0236622Y0321963D02*
X0140165Y0321963D01*
X0140165Y0172357D01*
X0163788Y0172357D01*
X0163788Y0201657D01*
X0168083Y0190743D02*
X0168083Y0180743D01*
X0208705Y0180743D01*
X0208705Y0190743D01*
X0168083Y0190743D01*
X0213000Y0201657D02*
X0213000Y0172357D01*
X0236622Y0172357D01*
X0236622Y0321963D01*
X0213000Y0172357D02*
X0163788Y0172357D01*
D322*
X0144716Y0304415D02*
X0144722Y0304865D01*
X0144721Y0304865D02*
X0145008Y0304865D01*
X0145295Y0304873D01*
X0145581Y0304887D01*
X0145867Y0304909D01*
X0146153Y0304937D01*
X0146437Y0304973D01*
X0146721Y0305015D01*
X0147003Y0305064D01*
X0147285Y0305120D01*
X0147565Y0305182D01*
X0147843Y0305252D01*
X0148120Y0305328D01*
X0148394Y0305411D01*
X0148667Y0305500D01*
X0148937Y0305596D01*
X0149205Y0305699D01*
X0149470Y0305808D01*
X0149733Y0305923D01*
X0149993Y0306045D01*
X0150249Y0306173D01*
X0150503Y0306307D01*
X0150753Y0306447D01*
X0151000Y0306593D01*
X0151243Y0306746D01*
X0151482Y0306904D01*
X0151718Y0307067D01*
X0151949Y0307237D01*
X0152177Y0307412D01*
X0152400Y0307592D01*
X0152618Y0307778D01*
X0152832Y0307969D01*
X0153042Y0308165D01*
X0153246Y0308366D01*
X0153446Y0308572D01*
X0153640Y0308783D01*
X0153830Y0308998D01*
X0154014Y0309218D01*
X0154192Y0309443D01*
X0154366Y0309671D01*
X0154533Y0309904D01*
X0154695Y0310141D01*
X0154851Y0310381D01*
X0155002Y0310626D01*
X0155146Y0310873D01*
X0155284Y0311125D01*
X0155417Y0311379D01*
X0155543Y0311637D01*
X0155662Y0311898D01*
X0155776Y0312161D01*
X0155883Y0312427D01*
X0155983Y0312696D01*
X0156077Y0312967D01*
X0156165Y0313240D01*
X0156245Y0313515D01*
X0156319Y0313792D01*
X0156387Y0314071D01*
X0156447Y0314352D01*
X0156501Y0314633D01*
X0156548Y0314916D01*
X0156588Y0315200D01*
X0156621Y0315485D01*
X0156647Y0315771D01*
X0156667Y0316057D01*
X0156679Y0316344D01*
X0156685Y0316630D01*
X0156683Y0316917D01*
X0156675Y0317204D01*
X0157124Y0317223D01*
X0157124Y0317224D01*
X0157133Y0316926D01*
X0157135Y0316628D01*
X0157129Y0316330D01*
X0157116Y0316033D01*
X0157096Y0315736D01*
X0157069Y0315439D01*
X0157034Y0315144D01*
X0156993Y0314849D01*
X0156944Y0314555D01*
X0156888Y0314263D01*
X0156826Y0313972D01*
X0156756Y0313682D01*
X0156679Y0313394D01*
X0156595Y0313109D01*
X0156504Y0312825D01*
X0156407Y0312544D01*
X0156302Y0312265D01*
X0156191Y0311989D01*
X0156074Y0311715D01*
X0155949Y0311445D01*
X0155819Y0311177D01*
X0155681Y0310913D01*
X0155538Y0310652D01*
X0155388Y0310395D01*
X0155232Y0310141D01*
X0155070Y0309891D01*
X0154902Y0309646D01*
X0154728Y0309404D01*
X0154548Y0309167D01*
X0154362Y0308934D01*
X0154171Y0308705D01*
X0153975Y0308482D01*
X0153773Y0308263D01*
X0153565Y0308049D01*
X0153353Y0307840D01*
X0153136Y0307637D01*
X0152914Y0307438D01*
X0152687Y0307246D01*
X0152455Y0307058D01*
X0152219Y0306877D01*
X0151979Y0306701D01*
X0151735Y0306531D01*
X0151486Y0306367D01*
X0151234Y0306209D01*
X0150978Y0306057D01*
X0150718Y0305912D01*
X0150455Y0305772D01*
X0150188Y0305640D01*
X0149918Y0305513D01*
X0149646Y0305393D01*
X0149370Y0305280D01*
X0149092Y0305174D01*
X0148812Y0305074D01*
X0148529Y0304981D01*
X0148244Y0304896D01*
X0147957Y0304816D01*
X0147668Y0304744D01*
X0147377Y0304679D01*
X0147085Y0304621D01*
X0146792Y0304570D01*
X0146497Y0304527D01*
X0146202Y0304490D01*
X0145905Y0304461D01*
X0145608Y0304438D01*
X0145311Y0304423D01*
X0145013Y0304415D01*
X0144716Y0304415D01*
X0144716Y0304462D01*
X0145013Y0304462D01*
X0145309Y0304470D01*
X0145606Y0304485D01*
X0145901Y0304507D01*
X0146197Y0304537D01*
X0146491Y0304573D01*
X0146784Y0304617D01*
X0147077Y0304668D01*
X0147368Y0304725D01*
X0147657Y0304790D01*
X0147945Y0304862D01*
X0148231Y0304941D01*
X0148515Y0305026D01*
X0148797Y0305119D01*
X0149076Y0305218D01*
X0149353Y0305324D01*
X0149627Y0305437D01*
X0149899Y0305556D01*
X0150168Y0305682D01*
X0150433Y0305814D01*
X0150695Y0305953D01*
X0150954Y0306098D01*
X0151209Y0306249D01*
X0151461Y0306406D01*
X0151708Y0306570D01*
X0151952Y0306739D01*
X0152191Y0306914D01*
X0152426Y0307095D01*
X0152657Y0307282D01*
X0152883Y0307474D01*
X0153104Y0307671D01*
X0153321Y0307874D01*
X0153532Y0308082D01*
X0153738Y0308295D01*
X0153940Y0308513D01*
X0154135Y0308736D01*
X0154326Y0308963D01*
X0154511Y0309195D01*
X0154690Y0309432D01*
X0154863Y0309673D01*
X0155031Y0309917D01*
X0155192Y0310166D01*
X0155348Y0310419D01*
X0155497Y0310675D01*
X0155640Y0310935D01*
X0155777Y0311198D01*
X0155907Y0311465D01*
X0156031Y0311734D01*
X0156148Y0312007D01*
X0156259Y0312282D01*
X0156363Y0312560D01*
X0156460Y0312840D01*
X0156550Y0313122D01*
X0156634Y0313407D01*
X0156710Y0313694D01*
X0156780Y0313982D01*
X0156842Y0314272D01*
X0156898Y0314563D01*
X0156946Y0314856D01*
X0156988Y0315150D01*
X0157022Y0315444D01*
X0157049Y0315740D01*
X0157069Y0316036D01*
X0157082Y0316332D01*
X0157088Y0316628D01*
X0157086Y0316925D01*
X0157077Y0317222D01*
X0157030Y0317219D01*
X0157039Y0316924D01*
X0157041Y0316629D01*
X0157035Y0316333D01*
X0157022Y0316038D01*
X0157002Y0315743D01*
X0156975Y0315449D01*
X0156941Y0315155D01*
X0156900Y0314863D01*
X0156852Y0314571D01*
X0156796Y0314281D01*
X0156734Y0313992D01*
X0156665Y0313705D01*
X0156588Y0313420D01*
X0156505Y0313136D01*
X0156415Y0312855D01*
X0156318Y0312576D01*
X0156215Y0312299D01*
X0156105Y0312025D01*
X0155988Y0311753D01*
X0155864Y0311485D01*
X0155735Y0311219D01*
X0155598Y0310957D01*
X0155456Y0310698D01*
X0155307Y0310443D01*
X0155152Y0310191D01*
X0154992Y0309943D01*
X0154825Y0309700D01*
X0154652Y0309460D01*
X0154474Y0309224D01*
X0154289Y0308993D01*
X0154100Y0308767D01*
X0153905Y0308545D01*
X0153704Y0308328D01*
X0153499Y0308115D01*
X0153288Y0307908D01*
X0153072Y0307706D01*
X0152852Y0307509D01*
X0152627Y0307318D01*
X0152397Y0307132D01*
X0152163Y0306952D01*
X0151925Y0306777D01*
X0151682Y0306609D01*
X0151435Y0306446D01*
X0151185Y0306289D01*
X0150931Y0306139D01*
X0150673Y0305994D01*
X0150412Y0305856D01*
X0150147Y0305724D01*
X0149880Y0305599D01*
X0149609Y0305480D01*
X0149336Y0305368D01*
X0149060Y0305262D01*
X0148781Y0305163D01*
X0148501Y0305071D01*
X0148218Y0304986D01*
X0147933Y0304907D01*
X0147646Y0304836D01*
X0147358Y0304771D01*
X0147068Y0304714D01*
X0146777Y0304663D01*
X0146485Y0304620D01*
X0146191Y0304583D01*
X0145897Y0304554D01*
X0145603Y0304532D01*
X0145308Y0304517D01*
X0145012Y0304509D01*
X0144717Y0304509D01*
X0144717Y0304556D01*
X0145012Y0304556D01*
X0145306Y0304564D01*
X0145600Y0304579D01*
X0145893Y0304601D01*
X0146186Y0304630D01*
X0146478Y0304666D01*
X0146770Y0304710D01*
X0147060Y0304760D01*
X0147348Y0304817D01*
X0147635Y0304882D01*
X0147921Y0304953D01*
X0148205Y0305031D01*
X0148487Y0305116D01*
X0148766Y0305208D01*
X0149044Y0305306D01*
X0149319Y0305411D01*
X0149591Y0305523D01*
X0149860Y0305642D01*
X0150127Y0305767D01*
X0150390Y0305898D01*
X0150650Y0306035D01*
X0150907Y0306179D01*
X0151160Y0306329D01*
X0151410Y0306486D01*
X0151656Y0306648D01*
X0151897Y0306816D01*
X0152135Y0306990D01*
X0152368Y0307169D01*
X0152597Y0307354D01*
X0152821Y0307545D01*
X0153041Y0307741D01*
X0153255Y0307942D01*
X0153465Y0308148D01*
X0153670Y0308360D01*
X0153870Y0308576D01*
X0154064Y0308797D01*
X0154253Y0309023D01*
X0154436Y0309253D01*
X0154614Y0309488D01*
X0154786Y0309727D01*
X0154952Y0309969D01*
X0155113Y0310216D01*
X0155267Y0310467D01*
X0155415Y0310721D01*
X0155557Y0310979D01*
X0155693Y0311240D01*
X0155822Y0311505D01*
X0155945Y0311772D01*
X0156061Y0312043D01*
X0156171Y0312316D01*
X0156274Y0312591D01*
X0156370Y0312870D01*
X0156460Y0313150D01*
X0156543Y0313432D01*
X0156619Y0313717D01*
X0156688Y0314003D01*
X0156750Y0314290D01*
X0156805Y0314580D01*
X0156853Y0314870D01*
X0156895Y0315161D01*
X0156929Y0315454D01*
X0156956Y0315747D01*
X0156975Y0316041D01*
X0156988Y0316335D01*
X0156994Y0316629D01*
X0156992Y0316923D01*
X0156984Y0317217D01*
X0156937Y0317215D01*
X0156945Y0316922D01*
X0156947Y0316629D01*
X0156941Y0316336D01*
X0156928Y0316043D01*
X0156909Y0315751D01*
X0156882Y0315459D01*
X0156848Y0315167D01*
X0156807Y0314877D01*
X0156759Y0314588D01*
X0156704Y0314300D01*
X0156642Y0314013D01*
X0156573Y0313728D01*
X0156498Y0313445D01*
X0156415Y0313164D01*
X0156326Y0312884D01*
X0156230Y0312607D01*
X0156127Y0312333D01*
X0156018Y0312061D01*
X0155902Y0311791D01*
X0155779Y0311525D01*
X0155651Y0311262D01*
X0155516Y0311001D01*
X0155374Y0310744D01*
X0155227Y0310491D01*
X0155073Y0310241D01*
X0154913Y0309996D01*
X0154748Y0309754D01*
X0154576Y0309516D01*
X0154399Y0309282D01*
X0154217Y0309053D01*
X0154028Y0308828D01*
X0153835Y0308608D01*
X0153636Y0308392D01*
X0153432Y0308182D01*
X0153223Y0307976D01*
X0153009Y0307776D01*
X0152790Y0307580D01*
X0152567Y0307390D01*
X0152339Y0307206D01*
X0152107Y0307027D01*
X0151870Y0306854D01*
X0151629Y0306687D01*
X0151385Y0306525D01*
X0151136Y0306370D01*
X0150884Y0306220D01*
X0150628Y0306077D01*
X0150369Y0305940D01*
X0150106Y0305809D01*
X0149841Y0305685D01*
X0149572Y0305567D01*
X0149301Y0305455D01*
X0149027Y0305350D01*
X0148751Y0305252D01*
X0148473Y0305161D01*
X0148192Y0305076D01*
X0147909Y0304998D01*
X0147625Y0304927D01*
X0147339Y0304863D01*
X0147051Y0304806D01*
X0146762Y0304756D01*
X0146472Y0304713D01*
X0146181Y0304677D01*
X0145889Y0304648D01*
X0145597Y0304626D01*
X0145304Y0304611D01*
X0145011Y0304603D01*
X0144718Y0304603D01*
X0144718Y0304650D01*
X0145011Y0304650D01*
X0145302Y0304658D01*
X0145594Y0304673D01*
X0145885Y0304695D01*
X0146176Y0304724D01*
X0146466Y0304760D01*
X0146755Y0304803D01*
X0147042Y0304852D01*
X0147329Y0304909D01*
X0147614Y0304973D01*
X0147897Y0305044D01*
X0148179Y0305121D01*
X0148459Y0305206D01*
X0148736Y0305297D01*
X0149011Y0305395D01*
X0149284Y0305499D01*
X0149554Y0305610D01*
X0149822Y0305727D01*
X0150086Y0305851D01*
X0150347Y0305982D01*
X0150606Y0306118D01*
X0150860Y0306261D01*
X0151112Y0306410D01*
X0151359Y0306565D01*
X0151603Y0306726D01*
X0151843Y0306892D01*
X0152078Y0307065D01*
X0152310Y0307243D01*
X0152537Y0307427D01*
X0152759Y0307616D01*
X0152977Y0307810D01*
X0153190Y0308010D01*
X0153399Y0308215D01*
X0153602Y0308424D01*
X0153800Y0308639D01*
X0153993Y0308858D01*
X0154180Y0309082D01*
X0154362Y0309311D01*
X0154539Y0309544D01*
X0154709Y0309781D01*
X0154874Y0310022D01*
X0155033Y0310267D01*
X0155186Y0310515D01*
X0155333Y0310768D01*
X0155474Y0311023D01*
X0155609Y0311283D01*
X0155737Y0311545D01*
X0155859Y0311810D01*
X0155974Y0312079D01*
X0156083Y0312350D01*
X0156186Y0312623D01*
X0156281Y0312899D01*
X0156370Y0313177D01*
X0156452Y0313458D01*
X0156528Y0313740D01*
X0156596Y0314024D01*
X0156658Y0314309D01*
X0156713Y0314596D01*
X0156761Y0314884D01*
X0156801Y0315173D01*
X0156835Y0315463D01*
X0156862Y0315754D01*
X0156882Y0316046D01*
X0156894Y0316337D01*
X0156900Y0316629D01*
X0156898Y0316921D01*
X0156890Y0317213D01*
X0156843Y0317211D01*
X0156851Y0316920D01*
X0156853Y0316630D01*
X0156847Y0316339D01*
X0156835Y0316048D01*
X0156815Y0315758D01*
X0156788Y0315468D01*
X0156755Y0315179D01*
X0156714Y0314891D01*
X0156667Y0314604D01*
X0156612Y0314318D01*
X0156551Y0314034D01*
X0156482Y0313751D01*
X0156407Y0313470D01*
X0156325Y0313191D01*
X0156237Y0312914D01*
X0156141Y0312639D01*
X0156039Y0312367D01*
X0155931Y0312097D01*
X0155816Y0311829D01*
X0155695Y0311565D01*
X0155567Y0311304D01*
X0155433Y0311046D01*
X0155292Y0310791D01*
X0155146Y0310539D01*
X0154993Y0310292D01*
X0154835Y0310048D01*
X0154671Y0309808D01*
X0154501Y0309571D01*
X0154325Y0309340D01*
X0154144Y0309112D01*
X0153957Y0308889D01*
X0153765Y0308670D01*
X0153568Y0308457D01*
X0153365Y0308248D01*
X0153158Y0308044D01*
X0152946Y0307845D01*
X0152729Y0307651D01*
X0152507Y0307463D01*
X0152281Y0307280D01*
X0152050Y0307102D01*
X0151815Y0306931D01*
X0151577Y0306764D01*
X0151334Y0306604D01*
X0151087Y0306450D01*
X0150837Y0306302D01*
X0150583Y0306159D01*
X0150326Y0306023D01*
X0150066Y0305894D01*
X0149802Y0305770D01*
X0149536Y0305653D01*
X0149267Y0305543D01*
X0148995Y0305439D01*
X0148721Y0305341D01*
X0148444Y0305251D01*
X0148166Y0305167D01*
X0147885Y0305089D01*
X0147603Y0305019D01*
X0147319Y0304955D01*
X0147034Y0304899D01*
X0146747Y0304849D01*
X0146460Y0304806D01*
X0146171Y0304770D01*
X0145881Y0304742D01*
X0145591Y0304720D01*
X0145301Y0304705D01*
X0145010Y0304697D01*
X0144719Y0304697D01*
X0144720Y0304744D01*
X0145009Y0304744D01*
X0145299Y0304752D01*
X0145588Y0304767D01*
X0145877Y0304788D01*
X0146166Y0304817D01*
X0146453Y0304853D01*
X0146740Y0304895D01*
X0147025Y0304945D01*
X0147310Y0305001D01*
X0147592Y0305065D01*
X0147874Y0305135D01*
X0148153Y0305212D01*
X0148430Y0305295D01*
X0148706Y0305386D01*
X0148979Y0305483D01*
X0149249Y0305586D01*
X0149517Y0305696D01*
X0149783Y0305813D01*
X0150045Y0305936D01*
X0150304Y0306065D01*
X0150561Y0306201D01*
X0150813Y0306342D01*
X0151063Y0306490D01*
X0151308Y0306644D01*
X0151550Y0306803D01*
X0151788Y0306969D01*
X0152022Y0307140D01*
X0152252Y0307317D01*
X0152477Y0307499D01*
X0152698Y0307687D01*
X0152914Y0307880D01*
X0153125Y0308078D01*
X0153332Y0308281D01*
X0153534Y0308489D01*
X0153730Y0308702D01*
X0153921Y0308920D01*
X0154107Y0309142D01*
X0154288Y0309368D01*
X0154463Y0309599D01*
X0154632Y0309835D01*
X0154796Y0310074D01*
X0154954Y0310317D01*
X0155106Y0310563D01*
X0155251Y0310814D01*
X0155391Y0311068D01*
X0155525Y0311325D01*
X0155652Y0311585D01*
X0155773Y0311849D01*
X0155888Y0312115D01*
X0155996Y0312384D01*
X0156097Y0312655D01*
X0156192Y0312929D01*
X0156280Y0313205D01*
X0156362Y0313483D01*
X0156437Y0313763D01*
X0156505Y0314044D01*
X0156566Y0314328D01*
X0156620Y0314612D01*
X0156668Y0314898D01*
X0156708Y0315185D01*
X0156742Y0315473D01*
X0156768Y0315761D01*
X0156788Y0316051D01*
X0156800Y0316340D01*
X0156806Y0316630D01*
X0156804Y0316920D01*
X0156796Y0317209D01*
X0156749Y0317207D01*
X0156757Y0316919D01*
X0156759Y0316630D01*
X0156753Y0316341D01*
X0156741Y0316053D01*
X0156721Y0315765D01*
X0156695Y0315478D01*
X0156661Y0315191D01*
X0156621Y0314905D01*
X0156574Y0314620D01*
X0156520Y0314337D01*
X0156459Y0314055D01*
X0156391Y0313774D01*
X0156317Y0313495D01*
X0156235Y0313218D01*
X0156147Y0312944D01*
X0156053Y0312671D01*
X0155952Y0312401D01*
X0155844Y0312133D01*
X0155730Y0311868D01*
X0155610Y0311605D01*
X0155483Y0311346D01*
X0155350Y0311090D01*
X0155211Y0310837D01*
X0155065Y0310588D01*
X0154914Y0310342D01*
X0154757Y0310100D01*
X0154594Y0309862D01*
X0154425Y0309627D01*
X0154251Y0309397D01*
X0154071Y0309172D01*
X0153886Y0308950D01*
X0153695Y0308733D01*
X0153499Y0308521D01*
X0153299Y0308314D01*
X0153093Y0308112D01*
X0152882Y0307914D01*
X0152667Y0307722D01*
X0152447Y0307535D01*
X0152222Y0307354D01*
X0151994Y0307178D01*
X0151761Y0307007D01*
X0151524Y0306842D01*
X0151283Y0306683D01*
X0151038Y0306530D01*
X0150790Y0306383D01*
X0150538Y0306242D01*
X0150283Y0306107D01*
X0150025Y0305978D01*
X0149763Y0305856D01*
X0149499Y0305740D01*
X0149232Y0305630D01*
X0148963Y0305527D01*
X0148691Y0305430D01*
X0148416Y0305340D01*
X0148140Y0305257D01*
X0147862Y0305180D01*
X0147582Y0305110D01*
X0147300Y0305047D01*
X0147017Y0304991D01*
X0146733Y0304942D01*
X0146447Y0304899D01*
X0146161Y0304864D01*
X0145873Y0304835D01*
X0145586Y0304814D01*
X0145297Y0304799D01*
X0145009Y0304791D01*
X0144720Y0304791D01*
X0144721Y0304838D01*
X0145008Y0304838D01*
X0145296Y0304846D01*
X0145583Y0304860D01*
X0145869Y0304882D01*
X0146155Y0304911D01*
X0146441Y0304946D01*
X0146725Y0304988D01*
X0147008Y0305037D01*
X0147290Y0305093D01*
X0147571Y0305156D01*
X0147850Y0305226D01*
X0148127Y0305302D01*
X0148402Y0305385D01*
X0148675Y0305475D01*
X0148946Y0305571D01*
X0149215Y0305674D01*
X0149481Y0305783D01*
X0149744Y0305899D01*
X0150004Y0306021D01*
X0150262Y0306149D01*
X0150516Y0306283D01*
X0150767Y0306424D01*
X0151014Y0306570D01*
X0151258Y0306723D01*
X0151498Y0306881D01*
X0151734Y0307045D01*
X0151966Y0307215D01*
X0152193Y0307391D01*
X0152417Y0307571D01*
X0152636Y0307758D01*
X0152850Y0307949D01*
X0153060Y0308146D01*
X0153265Y0308347D01*
X0153465Y0308554D01*
X0153660Y0308765D01*
X0153850Y0308981D01*
X0154035Y0309201D01*
X0154214Y0309426D01*
X0154387Y0309655D01*
X0154555Y0309888D01*
X0154718Y0310126D01*
X0154874Y0310367D01*
X0155025Y0310612D01*
X0155170Y0310860D01*
X0155308Y0311112D01*
X0155441Y0311367D01*
X0155567Y0311625D01*
X0155687Y0311887D01*
X0155801Y0312151D01*
X0155908Y0312417D01*
X0156009Y0312687D01*
X0156103Y0312958D01*
X0156190Y0313232D01*
X0156271Y0313508D01*
X0156346Y0313786D01*
X0156413Y0314065D01*
X0156474Y0314346D01*
X0156528Y0314629D01*
X0156575Y0314912D01*
X0156615Y0315197D01*
X0156648Y0315483D01*
X0156674Y0315769D01*
X0156694Y0316056D01*
X0156706Y0316343D01*
X0156712Y0316630D01*
X0156710Y0316918D01*
X0156702Y0317205D01*
X0219664Y0317222D02*
X0220114Y0317203D01*
X0220113Y0317204D02*
X0220105Y0316916D01*
X0220104Y0316627D01*
X0220111Y0316339D01*
X0220124Y0316051D01*
X0220144Y0315764D01*
X0220171Y0315477D01*
X0220205Y0315191D01*
X0220246Y0314905D01*
X0220294Y0314621D01*
X0220348Y0314338D01*
X0220410Y0314056D01*
X0220478Y0313776D01*
X0220553Y0313498D01*
X0220635Y0313222D01*
X0220724Y0312948D01*
X0220819Y0312675D01*
X0220921Y0312406D01*
X0221029Y0312139D01*
X0221144Y0311874D01*
X0221265Y0311613D01*
X0221392Y0311354D01*
X0221526Y0311099D01*
X0221666Y0310847D01*
X0221812Y0310598D01*
X0221964Y0310353D01*
X0222121Y0310112D01*
X0222285Y0309875D01*
X0222454Y0309641D01*
X0222629Y0309412D01*
X0222809Y0309187D01*
X0222995Y0308967D01*
X0223186Y0308751D01*
X0223383Y0308540D01*
X0223584Y0308334D01*
X0223790Y0308133D01*
X0224001Y0307936D01*
X0224217Y0307745D01*
X0224437Y0307559D01*
X0224662Y0307379D01*
X0224891Y0307204D01*
X0225125Y0307035D01*
X0225362Y0306871D01*
X0225603Y0306714D01*
X0225848Y0306562D01*
X0226097Y0306416D01*
X0226349Y0306276D01*
X0226604Y0306142D01*
X0226863Y0306015D01*
X0227124Y0305894D01*
X0227389Y0305779D01*
X0227656Y0305671D01*
X0227925Y0305569D01*
X0228198Y0305474D01*
X0228472Y0305385D01*
X0228748Y0305303D01*
X0229026Y0305228D01*
X0229306Y0305160D01*
X0229588Y0305098D01*
X0229871Y0305044D01*
X0230155Y0304996D01*
X0230441Y0304955D01*
X0230727Y0304921D01*
X0231014Y0304894D01*
X0231301Y0304874D01*
X0231589Y0304861D01*
X0231877Y0304854D01*
X0232166Y0304855D01*
X0232454Y0304863D01*
X0232472Y0304414D01*
X0232173Y0304405D01*
X0231874Y0304404D01*
X0231575Y0304411D01*
X0231276Y0304424D01*
X0230978Y0304445D01*
X0230680Y0304473D01*
X0230383Y0304509D01*
X0230087Y0304551D01*
X0229792Y0304601D01*
X0229498Y0304657D01*
X0229206Y0304721D01*
X0228915Y0304792D01*
X0228626Y0304870D01*
X0228339Y0304955D01*
X0228055Y0305047D01*
X0227772Y0305146D01*
X0227492Y0305252D01*
X0227215Y0305364D01*
X0226941Y0305483D01*
X0226669Y0305609D01*
X0226401Y0305741D01*
X0226136Y0305880D01*
X0225874Y0306025D01*
X0225616Y0306176D01*
X0225362Y0306334D01*
X0225111Y0306498D01*
X0224865Y0306667D01*
X0224623Y0306843D01*
X0224385Y0307025D01*
X0224152Y0307212D01*
X0223923Y0307405D01*
X0223699Y0307603D01*
X0223480Y0307807D01*
X0223266Y0308016D01*
X0223057Y0308230D01*
X0222853Y0308449D01*
X0222655Y0308673D01*
X0222462Y0308902D01*
X0222275Y0309135D01*
X0222093Y0309373D01*
X0221917Y0309615D01*
X0221748Y0309861D01*
X0221584Y0310112D01*
X0221426Y0310366D01*
X0221275Y0310624D01*
X0221130Y0310886D01*
X0220991Y0311151D01*
X0220859Y0311419D01*
X0220733Y0311691D01*
X0220614Y0311965D01*
X0220502Y0312242D01*
X0220396Y0312522D01*
X0220297Y0312805D01*
X0220205Y0313089D01*
X0220120Y0313376D01*
X0220042Y0313665D01*
X0219971Y0313956D01*
X0219907Y0314248D01*
X0219851Y0314542D01*
X0219801Y0314837D01*
X0219759Y0315133D01*
X0219723Y0315430D01*
X0219695Y0315728D01*
X0219674Y0316026D01*
X0219661Y0316325D01*
X0219654Y0316624D01*
X0219655Y0316923D01*
X0219664Y0317222D01*
X0219711Y0317221D01*
X0219702Y0316923D01*
X0219701Y0316625D01*
X0219708Y0316327D01*
X0219721Y0316029D01*
X0219742Y0315732D01*
X0219770Y0315435D01*
X0219805Y0315139D01*
X0219847Y0314844D01*
X0219897Y0314550D01*
X0219953Y0314257D01*
X0220017Y0313966D01*
X0220088Y0313677D01*
X0220166Y0313389D01*
X0220250Y0313103D01*
X0220342Y0312820D01*
X0220440Y0312538D01*
X0220545Y0312259D01*
X0220657Y0311983D01*
X0220776Y0311710D01*
X0220901Y0311439D01*
X0221033Y0311172D01*
X0221171Y0310908D01*
X0221316Y0310647D01*
X0221466Y0310390D01*
X0221623Y0310137D01*
X0221787Y0309887D01*
X0221956Y0309642D01*
X0222131Y0309401D01*
X0222312Y0309164D01*
X0222498Y0308931D01*
X0222690Y0308704D01*
X0222888Y0308480D01*
X0223091Y0308262D01*
X0223299Y0308049D01*
X0223512Y0307841D01*
X0223730Y0307638D01*
X0223954Y0307440D01*
X0224181Y0307248D01*
X0224414Y0307062D01*
X0224651Y0306881D01*
X0224892Y0306706D01*
X0225137Y0306537D01*
X0225387Y0306373D01*
X0225640Y0306216D01*
X0225897Y0306066D01*
X0226158Y0305921D01*
X0226422Y0305783D01*
X0226689Y0305651D01*
X0226960Y0305526D01*
X0227233Y0305407D01*
X0227509Y0305295D01*
X0227788Y0305190D01*
X0228070Y0305092D01*
X0228353Y0305000D01*
X0228639Y0304916D01*
X0228927Y0304838D01*
X0229216Y0304767D01*
X0229507Y0304703D01*
X0229800Y0304647D01*
X0230094Y0304597D01*
X0230389Y0304555D01*
X0230685Y0304520D01*
X0230982Y0304492D01*
X0231279Y0304471D01*
X0231577Y0304458D01*
X0231875Y0304451D01*
X0232173Y0304452D01*
X0232471Y0304461D01*
X0232469Y0304508D01*
X0232172Y0304499D01*
X0231875Y0304498D01*
X0231578Y0304505D01*
X0231281Y0304518D01*
X0230985Y0304539D01*
X0230690Y0304567D01*
X0230395Y0304602D01*
X0230101Y0304644D01*
X0229808Y0304693D01*
X0229517Y0304750D01*
X0229227Y0304813D01*
X0228938Y0304883D01*
X0228652Y0304961D01*
X0228367Y0305045D01*
X0228084Y0305136D01*
X0227804Y0305234D01*
X0227526Y0305339D01*
X0227251Y0305451D01*
X0226979Y0305569D01*
X0226710Y0305694D01*
X0226443Y0305825D01*
X0226180Y0305962D01*
X0225921Y0306106D01*
X0225664Y0306257D01*
X0225412Y0306413D01*
X0225164Y0306576D01*
X0224919Y0306744D01*
X0224679Y0306918D01*
X0224443Y0307099D01*
X0224211Y0307284D01*
X0223984Y0307476D01*
X0223762Y0307673D01*
X0223545Y0307875D01*
X0223332Y0308082D01*
X0223125Y0308295D01*
X0222923Y0308512D01*
X0222726Y0308734D01*
X0222534Y0308961D01*
X0222349Y0309193D01*
X0222168Y0309429D01*
X0221994Y0309669D01*
X0221826Y0309914D01*
X0221663Y0310162D01*
X0221507Y0310414D01*
X0221356Y0310671D01*
X0221212Y0310930D01*
X0221075Y0311193D01*
X0220944Y0311460D01*
X0220819Y0311729D01*
X0220701Y0312001D01*
X0220589Y0312276D01*
X0220484Y0312554D01*
X0220386Y0312834D01*
X0220295Y0313117D01*
X0220211Y0313402D01*
X0220133Y0313688D01*
X0220063Y0313977D01*
X0220000Y0314267D01*
X0219943Y0314558D01*
X0219894Y0314851D01*
X0219852Y0315145D01*
X0219817Y0315440D01*
X0219789Y0315735D01*
X0219768Y0316031D01*
X0219755Y0316328D01*
X0219748Y0316625D01*
X0219749Y0316922D01*
X0219758Y0317219D01*
X0219805Y0317217D01*
X0219796Y0316921D01*
X0219795Y0316625D01*
X0219802Y0316330D01*
X0219815Y0316034D01*
X0219836Y0315739D01*
X0219863Y0315445D01*
X0219898Y0315151D01*
X0219940Y0314858D01*
X0219989Y0314567D01*
X0220046Y0314276D01*
X0220109Y0313987D01*
X0220179Y0313700D01*
X0220256Y0313414D01*
X0220340Y0313131D01*
X0220431Y0312849D01*
X0220529Y0312570D01*
X0220633Y0312294D01*
X0220744Y0312019D01*
X0220862Y0311748D01*
X0220986Y0311480D01*
X0221117Y0311214D01*
X0221254Y0310952D01*
X0221397Y0310694D01*
X0221547Y0310439D01*
X0221703Y0310187D01*
X0221865Y0309940D01*
X0222032Y0309696D01*
X0222206Y0309457D01*
X0222386Y0309222D01*
X0222571Y0308991D01*
X0222761Y0308765D01*
X0222957Y0308544D01*
X0223159Y0308327D01*
X0223365Y0308115D01*
X0223577Y0307909D01*
X0223794Y0307707D01*
X0224015Y0307511D01*
X0224241Y0307321D01*
X0224472Y0307136D01*
X0224707Y0306956D01*
X0224946Y0306782D01*
X0225190Y0306615D01*
X0225437Y0306453D01*
X0225689Y0306297D01*
X0225944Y0306147D01*
X0226202Y0306004D01*
X0226464Y0305867D01*
X0226730Y0305736D01*
X0226998Y0305612D01*
X0227269Y0305494D01*
X0227544Y0305383D01*
X0227820Y0305279D01*
X0228099Y0305181D01*
X0228381Y0305090D01*
X0228664Y0305006D01*
X0228950Y0304929D01*
X0229237Y0304859D01*
X0229526Y0304796D01*
X0229817Y0304739D01*
X0230108Y0304690D01*
X0230401Y0304648D01*
X0230695Y0304613D01*
X0230989Y0304586D01*
X0231284Y0304565D01*
X0231580Y0304552D01*
X0231875Y0304545D01*
X0232171Y0304546D01*
X0232467Y0304555D01*
X0232465Y0304601D01*
X0232170Y0304593D01*
X0231876Y0304592D01*
X0231581Y0304599D01*
X0231287Y0304612D01*
X0230993Y0304633D01*
X0230700Y0304660D01*
X0230407Y0304695D01*
X0230115Y0304737D01*
X0229825Y0304786D01*
X0229536Y0304842D01*
X0229248Y0304905D01*
X0228962Y0304974D01*
X0228677Y0305051D01*
X0228395Y0305135D01*
X0228114Y0305225D01*
X0227836Y0305323D01*
X0227561Y0305427D01*
X0227288Y0305537D01*
X0227017Y0305655D01*
X0226750Y0305778D01*
X0226486Y0305909D01*
X0226225Y0306045D01*
X0225967Y0306188D01*
X0225713Y0306337D01*
X0225463Y0306492D01*
X0225216Y0306654D01*
X0224973Y0306821D01*
X0224735Y0306994D01*
X0224501Y0307173D01*
X0224271Y0307357D01*
X0224046Y0307547D01*
X0223825Y0307742D01*
X0223609Y0307943D01*
X0223399Y0308149D01*
X0223193Y0308359D01*
X0222992Y0308575D01*
X0222797Y0308796D01*
X0222607Y0309021D01*
X0222423Y0309251D01*
X0222244Y0309485D01*
X0222071Y0309723D01*
X0221904Y0309966D01*
X0221742Y0310213D01*
X0221587Y0310463D01*
X0221438Y0310717D01*
X0221295Y0310975D01*
X0221159Y0311236D01*
X0221028Y0311500D01*
X0220905Y0311767D01*
X0220787Y0312038D01*
X0220677Y0312311D01*
X0220573Y0312586D01*
X0220475Y0312864D01*
X0220385Y0313145D01*
X0220301Y0313427D01*
X0220224Y0313712D01*
X0220155Y0313998D01*
X0220092Y0314286D01*
X0220036Y0314575D01*
X0219987Y0314865D01*
X0219945Y0315157D01*
X0219910Y0315450D01*
X0219883Y0315743D01*
X0219862Y0316037D01*
X0219849Y0316331D01*
X0219842Y0316626D01*
X0219843Y0316920D01*
X0219851Y0317215D01*
X0219898Y0317213D01*
X0219890Y0316919D01*
X0219889Y0316626D01*
X0219896Y0316332D01*
X0219909Y0316039D01*
X0219929Y0315747D01*
X0219957Y0315454D01*
X0219992Y0315163D01*
X0220033Y0314873D01*
X0220082Y0314583D01*
X0220138Y0314295D01*
X0220200Y0314008D01*
X0220270Y0313723D01*
X0220346Y0313440D01*
X0220430Y0313159D01*
X0220520Y0312879D01*
X0220617Y0312602D01*
X0220721Y0312328D01*
X0220831Y0312056D01*
X0220948Y0311786D01*
X0221071Y0311520D01*
X0221201Y0311257D01*
X0221337Y0310997D01*
X0221479Y0310740D01*
X0221627Y0310487D01*
X0221782Y0310238D01*
X0221943Y0309992D01*
X0222109Y0309751D01*
X0222282Y0309513D01*
X0222460Y0309280D01*
X0222643Y0309051D01*
X0222832Y0308826D01*
X0223027Y0308607D01*
X0223227Y0308392D01*
X0223432Y0308182D01*
X0223642Y0307977D01*
X0223857Y0307777D01*
X0224076Y0307582D01*
X0224301Y0307393D01*
X0224530Y0307210D01*
X0224763Y0307032D01*
X0225001Y0306859D01*
X0225242Y0306693D01*
X0225488Y0306532D01*
X0225737Y0306377D01*
X0225990Y0306229D01*
X0226247Y0306087D01*
X0226507Y0305951D01*
X0226770Y0305821D01*
X0227036Y0305698D01*
X0227306Y0305581D01*
X0227578Y0305471D01*
X0227852Y0305367D01*
X0228129Y0305270D01*
X0228409Y0305180D01*
X0228690Y0305096D01*
X0228973Y0305020D01*
X0229258Y0304950D01*
X0229545Y0304888D01*
X0229833Y0304832D01*
X0230123Y0304783D01*
X0230413Y0304742D01*
X0230704Y0304707D01*
X0230997Y0304679D01*
X0231289Y0304659D01*
X0231582Y0304646D01*
X0231876Y0304639D01*
X0232169Y0304640D01*
X0232463Y0304648D01*
X0232461Y0304695D01*
X0232169Y0304687D01*
X0231876Y0304686D01*
X0231584Y0304693D01*
X0231292Y0304706D01*
X0231000Y0304726D01*
X0230709Y0304754D01*
X0230419Y0304788D01*
X0230130Y0304830D01*
X0229841Y0304878D01*
X0229554Y0304934D01*
X0229269Y0304996D01*
X0228985Y0305065D01*
X0228703Y0305142D01*
X0228422Y0305225D01*
X0228144Y0305315D01*
X0227868Y0305411D01*
X0227595Y0305514D01*
X0227324Y0305624D01*
X0227056Y0305740D01*
X0226790Y0305863D01*
X0226528Y0305992D01*
X0226269Y0306128D01*
X0226014Y0306270D01*
X0225761Y0306418D01*
X0225513Y0306572D01*
X0225268Y0306732D01*
X0225028Y0306898D01*
X0224791Y0307069D01*
X0224559Y0307247D01*
X0224331Y0307430D01*
X0224107Y0307618D01*
X0223888Y0307812D01*
X0223674Y0308011D01*
X0223465Y0308215D01*
X0223261Y0308424D01*
X0223062Y0308638D01*
X0222868Y0308857D01*
X0222680Y0309081D01*
X0222497Y0309309D01*
X0222319Y0309541D01*
X0222148Y0309778D01*
X0221982Y0310018D01*
X0221822Y0310263D01*
X0221668Y0310511D01*
X0221520Y0310764D01*
X0221378Y0311019D01*
X0221242Y0311278D01*
X0221113Y0311540D01*
X0220990Y0311806D01*
X0220874Y0312074D01*
X0220764Y0312345D01*
X0220661Y0312618D01*
X0220565Y0312894D01*
X0220475Y0313172D01*
X0220392Y0313453D01*
X0220315Y0313735D01*
X0220246Y0314019D01*
X0220184Y0314304D01*
X0220128Y0314591D01*
X0220080Y0314880D01*
X0220038Y0315169D01*
X0220004Y0315459D01*
X0219976Y0315750D01*
X0219956Y0316042D01*
X0219943Y0316334D01*
X0219936Y0316626D01*
X0219937Y0316919D01*
X0219945Y0317211D01*
X0219992Y0317209D01*
X0219984Y0316918D01*
X0219983Y0316627D01*
X0219990Y0316335D01*
X0220003Y0316045D01*
X0220023Y0315754D01*
X0220050Y0315464D01*
X0220085Y0315175D01*
X0220126Y0314887D01*
X0220174Y0314600D01*
X0220230Y0314314D01*
X0220292Y0314029D01*
X0220361Y0313746D01*
X0220437Y0313465D01*
X0220520Y0313186D01*
X0220609Y0312909D01*
X0220705Y0312634D01*
X0220808Y0312362D01*
X0220917Y0312092D01*
X0221033Y0311825D01*
X0221156Y0311561D01*
X0221284Y0311299D01*
X0221419Y0311041D01*
X0221561Y0310787D01*
X0221708Y0310536D01*
X0221861Y0310288D01*
X0222021Y0310045D01*
X0222186Y0309805D01*
X0222357Y0309569D01*
X0222534Y0309338D01*
X0222716Y0309111D01*
X0222904Y0308888D01*
X0223097Y0308670D01*
X0223295Y0308457D01*
X0223498Y0308248D01*
X0223707Y0308045D01*
X0223920Y0307847D01*
X0224138Y0307654D01*
X0224361Y0307466D01*
X0224588Y0307284D01*
X0224819Y0307107D01*
X0225055Y0306936D01*
X0225295Y0306771D01*
X0225538Y0306611D01*
X0225786Y0306458D01*
X0226037Y0306311D01*
X0226291Y0306169D01*
X0226549Y0306034D01*
X0226811Y0305906D01*
X0227075Y0305783D01*
X0227342Y0305667D01*
X0227612Y0305558D01*
X0227884Y0305455D01*
X0228159Y0305359D01*
X0228436Y0305270D01*
X0228715Y0305187D01*
X0228996Y0305111D01*
X0229279Y0305042D01*
X0229564Y0304980D01*
X0229850Y0304924D01*
X0230137Y0304876D01*
X0230425Y0304835D01*
X0230714Y0304800D01*
X0231004Y0304773D01*
X0231295Y0304753D01*
X0231585Y0304740D01*
X0231877Y0304733D01*
X0232168Y0304734D01*
X0232459Y0304742D01*
X0232457Y0304789D01*
X0232167Y0304781D01*
X0231877Y0304780D01*
X0231587Y0304787D01*
X0231297Y0304800D01*
X0231008Y0304820D01*
X0230719Y0304847D01*
X0230431Y0304881D01*
X0230144Y0304923D01*
X0229858Y0304971D01*
X0229573Y0305026D01*
X0229290Y0305088D01*
X0229008Y0305157D01*
X0228728Y0305232D01*
X0228450Y0305315D01*
X0228174Y0305404D01*
X0227900Y0305499D01*
X0227629Y0305602D01*
X0227360Y0305711D01*
X0227094Y0305826D01*
X0226831Y0305948D01*
X0226571Y0306076D01*
X0226314Y0306211D01*
X0226060Y0306351D01*
X0225810Y0306498D01*
X0225563Y0306651D01*
X0225321Y0306810D01*
X0225082Y0306974D01*
X0224847Y0307145D01*
X0224617Y0307321D01*
X0224390Y0307502D01*
X0224169Y0307689D01*
X0223952Y0307881D01*
X0223739Y0308079D01*
X0223532Y0308282D01*
X0223329Y0308489D01*
X0223131Y0308702D01*
X0222939Y0308919D01*
X0222752Y0309140D01*
X0222571Y0309367D01*
X0222395Y0309597D01*
X0222224Y0309832D01*
X0222060Y0310071D01*
X0221901Y0310313D01*
X0221748Y0310560D01*
X0221601Y0310810D01*
X0221461Y0311064D01*
X0221326Y0311321D01*
X0221198Y0311581D01*
X0221076Y0311844D01*
X0220961Y0312110D01*
X0220852Y0312379D01*
X0220749Y0312650D01*
X0220654Y0312924D01*
X0220565Y0313200D01*
X0220482Y0313478D01*
X0220407Y0313758D01*
X0220338Y0314040D01*
X0220276Y0314323D01*
X0220221Y0314608D01*
X0220173Y0314894D01*
X0220131Y0315181D01*
X0220097Y0315469D01*
X0220070Y0315758D01*
X0220050Y0316047D01*
X0220037Y0316337D01*
X0220030Y0316627D01*
X0220031Y0316917D01*
X0220039Y0317207D01*
X0220086Y0317205D01*
X0220078Y0316916D01*
X0220077Y0316627D01*
X0220084Y0316338D01*
X0220097Y0316050D01*
X0220117Y0315762D01*
X0220144Y0315474D01*
X0220178Y0315187D01*
X0220219Y0314901D01*
X0220267Y0314616D01*
X0220322Y0314333D01*
X0220384Y0314050D01*
X0220452Y0313770D01*
X0220527Y0313491D01*
X0220609Y0313214D01*
X0220698Y0312939D01*
X0220794Y0312666D01*
X0220896Y0312396D01*
X0221004Y0312128D01*
X0221119Y0311863D01*
X0221241Y0311601D01*
X0221368Y0311342D01*
X0221502Y0311086D01*
X0221642Y0310833D01*
X0221789Y0310584D01*
X0221941Y0310339D01*
X0222099Y0310097D01*
X0222263Y0309859D01*
X0222432Y0309625D01*
X0222608Y0309396D01*
X0222789Y0309170D01*
X0222975Y0308949D01*
X0223166Y0308733D01*
X0223363Y0308522D01*
X0223565Y0308315D01*
X0223772Y0308113D01*
X0223983Y0307916D01*
X0224199Y0307725D01*
X0224420Y0307539D01*
X0224646Y0307358D01*
X0224875Y0307182D01*
X0225109Y0307013D01*
X0225347Y0306849D01*
X0225589Y0306691D01*
X0225834Y0306539D01*
X0226083Y0306392D01*
X0226336Y0306252D01*
X0226592Y0306118D01*
X0226851Y0305991D01*
X0227113Y0305869D01*
X0227378Y0305754D01*
X0227646Y0305646D01*
X0227916Y0305544D01*
X0228189Y0305448D01*
X0228464Y0305359D01*
X0228741Y0305277D01*
X0229020Y0305202D01*
X0229300Y0305134D01*
X0229583Y0305072D01*
X0229866Y0305017D01*
X0230151Y0304969D01*
X0230437Y0304928D01*
X0230724Y0304894D01*
X0231012Y0304867D01*
X0231300Y0304847D01*
X0231588Y0304834D01*
X0231877Y0304827D01*
X0232166Y0304828D01*
X0232455Y0304836D01*
D323*
X0214894Y0157357D03*
X0206894Y0157357D03*
X0169894Y0157357D03*
X0161894Y0157357D03*
D324*
X0158794Y0157099D02*
X0158494Y0156798D01*
X0158794Y0157099D02*
X0158794Y0157699D01*
X0158494Y0157999D01*
X0158193Y0157999D01*
X0157893Y0157699D01*
X0157893Y0157399D01*
X0157893Y0157699D02*
X0157593Y0157999D01*
X0157293Y0157999D01*
X0156992Y0157699D01*
X0156992Y0157099D01*
X0157293Y0156798D01*
X0157293Y0156158D02*
X0157893Y0156158D01*
X0158193Y0155857D01*
X0158193Y0154957D01*
X0158193Y0155557D02*
X0158794Y0156158D01*
X0158794Y0154957D02*
X0156992Y0154957D01*
X0156992Y0155857D01*
X0157293Y0156158D01*
X0173622Y0155787D02*
X0173923Y0156088D01*
X0174523Y0156088D01*
X0174823Y0155787D01*
X0174823Y0154887D01*
X0174823Y0155487D02*
X0175424Y0156088D01*
X0174523Y0156728D02*
X0174523Y0157929D01*
X0173622Y0157629D02*
X0174523Y0156728D01*
X0175424Y0157629D02*
X0173622Y0157629D01*
X0173622Y0155787D02*
X0173622Y0154887D01*
X0175424Y0154887D01*
X0189494Y0155757D02*
X0189794Y0155457D01*
X0190395Y0155457D01*
X0190695Y0155757D01*
X0191335Y0155457D02*
X0192536Y0156658D01*
X0192536Y0156958D01*
X0192236Y0157258D01*
X0191636Y0157258D01*
X0191335Y0156958D01*
X0190695Y0156958D02*
X0190395Y0157258D01*
X0189794Y0157258D01*
X0189494Y0156958D01*
X0189494Y0155757D01*
X0191335Y0155457D02*
X0192536Y0155457D01*
X0201872Y0155787D02*
X0202173Y0156088D01*
X0202773Y0156088D01*
X0203073Y0155787D01*
X0203073Y0154887D01*
X0203073Y0155487D02*
X0203674Y0156088D01*
X0203674Y0156728D02*
X0202473Y0157929D01*
X0202173Y0157929D01*
X0201872Y0157629D01*
X0201872Y0157029D01*
X0202173Y0156728D01*
X0201872Y0155787D02*
X0201872Y0154887D01*
X0203674Y0154887D01*
X0203674Y0156728D02*
X0203674Y0157929D01*
X0192536Y0165457D02*
X0191335Y0165457D01*
X0191936Y0165457D02*
X0191936Y0167258D01*
X0191335Y0166658D01*
X0190695Y0166958D02*
X0190395Y0167258D01*
X0189794Y0167258D01*
X0189494Y0166958D01*
X0189494Y0165757D01*
X0189794Y0165457D01*
X0190395Y0165457D01*
X0190695Y0165757D01*
X0218622Y0157329D02*
X0220424Y0157329D01*
X0220424Y0157929D02*
X0220424Y0156728D01*
X0220424Y0156088D02*
X0219823Y0155487D01*
X0219823Y0155787D02*
X0219823Y0154887D01*
X0220424Y0154887D02*
X0218622Y0154887D01*
X0218622Y0155787D01*
X0218923Y0156088D01*
X0219523Y0156088D01*
X0219823Y0155787D01*
X0219223Y0156728D02*
X0218622Y0157329D01*
X0146976Y0139048D02*
X0146676Y0139348D01*
X0146076Y0139348D01*
X0145775Y0139048D01*
X0145135Y0139048D02*
X0144835Y0139348D01*
X0143934Y0139348D01*
X0143934Y0137547D01*
X0144835Y0137547D01*
X0145135Y0137847D01*
X0145135Y0139048D01*
X0145775Y0137547D02*
X0146976Y0138748D01*
X0146976Y0139048D01*
X0146976Y0137547D02*
X0145775Y0137547D01*
X0113976Y0137847D02*
X0113976Y0138147D01*
X0113676Y0138447D01*
X0112775Y0138447D01*
X0112775Y0137847D01*
X0113076Y0137547D01*
X0113676Y0137547D01*
X0113976Y0137847D01*
X0113376Y0139048D02*
X0112775Y0138447D01*
X0112135Y0138447D02*
X0111835Y0138147D01*
X0110934Y0138147D01*
X0110934Y0137547D02*
X0110934Y0139348D01*
X0111835Y0139348D01*
X0112135Y0139048D01*
X0112135Y0138447D01*
X0111534Y0138147D02*
X0112135Y0137547D01*
X0113376Y0139048D02*
X0113976Y0139348D01*
X0113976Y0122348D02*
X0112775Y0122348D01*
X0112775Y0121447D01*
X0113376Y0121748D01*
X0113676Y0121748D01*
X0113976Y0121447D01*
X0113976Y0120847D01*
X0113676Y0120547D01*
X0113076Y0120547D01*
X0112775Y0120847D01*
X0112135Y0120547D02*
X0111534Y0121147D01*
X0111835Y0121147D02*
X0110934Y0121147D01*
X0110934Y0120547D02*
X0110934Y0122348D01*
X0111835Y0122348D01*
X0112135Y0122048D01*
X0112135Y0121447D01*
X0111835Y0121147D01*
X0143934Y0120547D02*
X0144835Y0120547D01*
X0145135Y0120847D01*
X0145135Y0122048D01*
X0144835Y0122348D01*
X0143934Y0122348D01*
X0143934Y0120547D01*
X0145775Y0120547D02*
X0146976Y0120547D01*
X0146376Y0120547D02*
X0146376Y0122348D01*
X0145775Y0121748D01*
D325*
X0191894Y0152237D02*
X0191894Y0152477D01*
X0191894Y0162237D02*
X0191894Y0162477D01*
D326*
X0137503Y0140258D02*
X0137503Y0138447D01*
X0136283Y0137526D01*
X0137503Y0136636D02*
X0137503Y0138447D01*
X0137442Y0138547D02*
X0136283Y0139307D01*
X0137503Y0123258D02*
X0137503Y0121447D01*
X0136283Y0120526D01*
X0137503Y0119636D02*
X0137503Y0121447D01*
X0137442Y0121547D02*
X0136283Y0122307D01*
X0180854Y0114139D02*
X0091287Y0114139D01*
X0088137Y0117288D01*
X0088137Y0085005D01*
X0091287Y0088155D01*
X0091287Y0114139D01*
X0088137Y0117288D02*
X0288531Y0117288D01*
X0285381Y0114139D01*
X0195814Y0114139D01*
X0195814Y0114218D02*
X0195814Y0117013D01*
X0180854Y0117013D02*
X0180854Y0114218D01*
X0091287Y0088155D02*
X0285381Y0088155D01*
X0288531Y0085005D01*
X0088137Y0085005D01*
X0285381Y0088155D02*
X0285381Y0114139D01*
X0288531Y0117288D02*
X0288531Y0085005D01*
D327*
X0277861Y0108903D02*
X0272350Y0108903D01*
X0275105Y0113115D01*
X0277861Y0108903D01*
D328*
X0121834Y0121447D03*
X0121834Y0138447D03*
M02*
