G75*
%MOIN*%
%OFA0B0*%
%FSLAX25Y25*%
%IPPOS*%
%LPD*%
%AMOC8*
5,1,8,0,0,1.08239X$1,22.5*
%
%ADD10C,0.13300*%
%ADD11R,0.03202X0.06194*%
%ADD12C,0.11036*%
%ADD13C,0.03300*%
%ADD14R,0.04737X0.05131*%
%ADD15R,0.05131X0.04737*%
%ADD16OC8,0.06706*%
%ADD17R,0.04737X0.04737*%
%ADD18C,0.04000*%
D10*
X0090634Y0373847D03*
X0286034Y0373847D03*
D11*
X0206110Y0192042D03*
X0202173Y0192042D03*
X0198236Y0192042D03*
X0194299Y0192042D03*
X0190362Y0192042D03*
X0186425Y0192042D03*
X0182488Y0192042D03*
X0178551Y0192042D03*
X0174614Y0192042D03*
X0170677Y0192042D03*
X0170677Y0179443D03*
X0174614Y0179443D03*
X0178551Y0179443D03*
X0182488Y0179443D03*
X0186425Y0179443D03*
X0190362Y0179443D03*
X0194299Y0179443D03*
X0198236Y0179443D03*
X0202173Y0179443D03*
X0206110Y0179443D03*
D12*
X0228748Y0181412D03*
X0148040Y0181412D03*
X0148040Y0314089D03*
X0228748Y0314089D03*
D13*
X0204142Y0185743D03*
X0172646Y0185743D03*
D14*
X0169894Y0160703D03*
X0161894Y0160703D03*
X0161894Y0154010D03*
X0169894Y0154010D03*
X0206894Y0154010D03*
X0214894Y0154010D03*
X0214894Y0160703D03*
X0206894Y0160703D03*
D15*
X0195240Y0162357D03*
X0188547Y0162357D03*
X0188547Y0152357D03*
X0195240Y0152357D03*
X0125180Y0138447D03*
X0118487Y0138447D03*
X0118487Y0121447D03*
X0125180Y0121447D03*
D16*
X0108334Y0096147D03*
X0118334Y0096147D03*
X0118334Y0106147D03*
X0108334Y0106147D03*
X0128334Y0106147D03*
X0138334Y0106147D03*
X0148334Y0106147D03*
X0158334Y0106147D03*
X0168334Y0106147D03*
X0178334Y0106147D03*
X0188334Y0106147D03*
X0198334Y0106147D03*
X0208334Y0106147D03*
X0218334Y0106147D03*
X0228334Y0106147D03*
X0238334Y0106147D03*
X0248334Y0106147D03*
X0258334Y0106147D03*
X0268334Y0106147D03*
X0268334Y0096147D03*
X0258334Y0096147D03*
X0248334Y0096147D03*
X0238334Y0096147D03*
X0228334Y0096147D03*
X0218334Y0096147D03*
X0208334Y0096147D03*
X0198334Y0096147D03*
X0188334Y0096147D03*
X0178334Y0096147D03*
X0168334Y0096147D03*
X0158334Y0096147D03*
X0148334Y0096147D03*
X0138334Y0096147D03*
X0128334Y0096147D03*
D17*
X0133381Y0121447D03*
X0140287Y0121447D03*
X0140287Y0138447D03*
X0133381Y0138447D03*
D18*
X0140334Y0132947D03*
X0160894Y0145357D03*
X0165894Y0145357D03*
X0188394Y0146357D03*
M02*
