G75*
%MOIN*%
%OFA0B0*%
%FSLAX25Y25*%
%IPPOS*%
%LPD*%
%AMOC8*
5,1,8,0,0,1.08239X$1,22.5*
%
%ADD10C,0.13300*%
%ADD11C,0.11036*%
%ADD12C,0.03300*%
%ADD13OC8,0.06706*%
%ADD14C,0.04000*%
D10*
X0090634Y0373847D03*
X0286034Y0373847D03*
D11*
X0228748Y0314089D03*
X0148040Y0314089D03*
X0148040Y0181412D03*
X0228748Y0181412D03*
D12*
X0204142Y0185743D03*
X0172646Y0185743D03*
D13*
X0108334Y0096147D03*
X0118334Y0096147D03*
X0118334Y0106147D03*
X0108334Y0106147D03*
X0128334Y0106147D03*
X0138334Y0106147D03*
X0148334Y0106147D03*
X0158334Y0106147D03*
X0168334Y0106147D03*
X0178334Y0106147D03*
X0188334Y0106147D03*
X0198334Y0106147D03*
X0208334Y0106147D03*
X0218334Y0106147D03*
X0228334Y0106147D03*
X0238334Y0106147D03*
X0248334Y0106147D03*
X0258334Y0106147D03*
X0268334Y0106147D03*
X0268334Y0096147D03*
X0258334Y0096147D03*
X0248334Y0096147D03*
X0238334Y0096147D03*
X0228334Y0096147D03*
X0218334Y0096147D03*
X0208334Y0096147D03*
X0198334Y0096147D03*
X0188334Y0096147D03*
X0178334Y0096147D03*
X0168334Y0096147D03*
X0158334Y0096147D03*
X0148334Y0096147D03*
X0138334Y0096147D03*
X0128334Y0096147D03*
D14*
X0140334Y0132947D03*
X0160894Y0145357D03*
X0165894Y0145357D03*
X0188394Y0146357D03*
M02*
